<svg width="391.7" height="345.4" xmlns="http://www.w3.org/2000/svg" xml:space="preserve" version="1.1">
 <defs>
  <linearGradient y2="0.84217" x2="-0.03684" y1="0.29385" x1="0.68371" id="SVGID_1_">
   <stop stop-color="#EB7B26" offset="0.07"/>
   <stop stop-color="#D36E20" offset="0.32"/>
   <stop stop-color="#984D14" offset="0.84"/>
  </linearGradient>
  <linearGradient y2="0.94185" x2="0.08095" y1="0.23953" x1="0.76087" id="SVGID_00000025431297377013251130000015429924094186776755_">
   <stop stop-color="#EB7B26" offset="0"/>
   <stop stop-color="#D36E20" offset="0.25"/>
   <stop stop-color="#984D14" offset="0.79"/>
  </linearGradient>
  <linearGradient y2="1.51377" x2="-0.73103" y1="0.47018" x1="0.66154" id="SVGID_00000116946689631524957350000002979077388875736468_">
   <stop stop-color="#EB7B26" offset="0.07"/>
   <stop stop-color="#D36E20" offset="0.22"/>
   <stop stop-color="#984D14" offset="0.55"/>
  </linearGradient>
  <linearGradient y2="0.50674" x2="-0.38404" y1="0.49535" x1="1.27406" id="SVGID_00000060745218257054903020000016481799817755682717_">
   <stop stop-color="#EB7B26" offset="0.07"/>
   <stop stop-color="#D36E20" offset="0.26"/>
   <stop stop-color="#984D14" offset="0.66"/>
  </linearGradient>
  <linearGradient y2="1.06805" x2="0.65998" y1="0.00059" x1="0.24035" id="SVGID_00000018952153741151149460000007528286113914746785_">
   <stop stop-color="#EB7B26" offset="0.11"/>
   <stop stop-color="#E77825" offset="0.26"/>
   <stop stop-color="#DB7222" offset="0.41"/>
   <stop stop-color="#C8671E" offset="0.55"/>
   <stop stop-color="#AC5818" offset="0.69"/>
   <stop stop-color="#984D14" offset="0.78"/>
  </linearGradient>
  <linearGradient y2="0.90881" x2="1.08004" y1="-0.0441" x1="-0.12589" id="SVGID_00000045613911969465649940000004039578866675912849_">
   <stop stop-color="#EB7B26" offset="0.07"/>
   <stop stop-color="#E87925" offset="0.38"/>
   <stop stop-color="#E07523" offset="0.53"/>
   <stop stop-color="#D36D20" offset="0.66"/>
   <stop stop-color="#C0631C" offset="0.76"/>
   <stop stop-color="#A85517" offset="0.86"/>
   <stop stop-color="#9F5015" offset="0.89"/>
  </linearGradient>
  <linearGradient y2="2.00701" x2="-0.72274" y1="1.00427" x1="0.1497" id="SVGID_00000045596497788238320470000011303927002016055965_">
   <stop stop-color="#EB7B26" offset="0.07"/>
   <stop stop-color="#D36E20" offset="0.22"/>
   <stop stop-color="#984D14" offset="0.55"/>
  </linearGradient>
 </defs>
 <g>
  <title>Layer 1</title>
  <g id="Anaranjado">
   <g id="svg_9">
    <polygon id="svg_10" fill="url(#SVGID_1_)" points="151.9,168.3 152.4,168.1 152.4,168.1 152.4,168.1 152.4,168.1 172.7,160.2 188.9,149.6 202,135     225.3,114.2 225.7,113.9 247,102 233.7,102 194.6,115.8 129.8,174 109.2,197.9 108.8,202.8 112.9,206.3 114.9,199.9 115.4,199.1     128.2,185.6   " class="st2"/>
    <polygon id="svg_11" fill="url(#SVGID_00000025431297377013251130000015429924094186776755_)" points="256.1,133 154.1,172     130.8,188.9 118.8,201.8 116.6,208.8 120.2,209.8 121,210.2 131.6,219.3 132.3,220.2 133.5,223.6 179.8,205 180.3,204.9     204,201.8 220.9,190.5 250.8,177.2 251.1,177 285.2,168.7 285.8,168.7 308.1,169.4 310.8,151.3 291.7,137.2   "/>
    <polygon id="svg_12" fill="url(#SVGID_00000116946689631524957350000002979077388875736468_)" points="252.3,181 222.7,194.2     213.2,200.5 219.4,199.7 220.2,199.8 256.7,209.1 257.6,209.5 266.8,218 282.6,207.9 306,173.5 285.9,172.8   "/>
    <polygon id="svg_13" fill="url(#SVGID_00000060745218257054903020000016481799817755682717_)" points="218.9,203.6 180.4,209.3     134.6,228.7 136.1,232.5 136.2,233.6 133.8,250.9 142.9,258.5 158.4,261 182.2,268.7 218.5,284.4 224.9,284.3 241.8,278     251.7,264.2 253.9,251.7 254.1,251.1 263.5,233.9 264.1,220.4 254.6,212   "/>
    <polygon id="svg_14" fill="url(#SVGID_00000018952153741151149460000007528286113914746785_)" points="186.9,117.4 177,111.3     176.4,110.8 167.4,98.5 160.3,83.4 150.3,79.6 136.8,82.1 124.3,89.8 99.8,170.4 95.2,197.3 106.1,195.3 126.9,171.1   "/>
    <polygon id="svg_15" fill="url(#SVGID_00000045613911969465649940000004039578866675912849_)" points="119.6,91.1 105.5,95.3     90.8,109.4 77.4,150.4 74.1,186.9 79.9,201.1 81.6,200 82.3,199.7 90.8,198.1 95.8,169.3   "/>
    <polygon id="svg_16" fill="url(#SVGID_00000045596497788238320470000011303927002016055965_)" points="204.9,138.1 197.7,146.1     239.9,125.6 240.4,125.5 299.4,112.2 300.5,112.2 309.5,115.1 310.9,104.5 306,96 289.9,91.4 255.8,102 227.9,117.6   "/>
   </g>
  </g>
  <g id="svg_18">
   <g id="svg_1">
    <polygon stroke="#000000" id="svg_2" fill="#000000" points="338,156.60000610351562 328.6000061035156,124.69999694824219 310.6000061035156,118.9000015258789 310.6000061035156,118.9000015258789 299.79998779296875,115.4000015258789 241.5,128.5 197.3000030517578,150 255.10000610351562,127.89999389648438 256,127.80000305175781 292.70001220703125,132.1999969482422 293.70001220703125,132.5 314.29998779296875,147.6999969482422 315.1000061035156,149.6999969482422 311.8999938964844,170.89999389648438 311.6000061035156,171.8000030517578 285.79998779296875,209.5 285.20001220703125,210.10000610351562 268.6000061035156,220.8000030517578 267.8999938964844,234.6999969482422 267.6000061035156,235.60000610351562 257.79998779296875,252.8000030517578 255.39999389648438,265.29998779296875 255,266.20001220703125 244.1999969482422,280.79998779296875 243.1999969482422,281.5 230.60000610351562,285.8999938964844 242.6999969482422,290.3999938964844 265.29998779296875,284.5 284.70001220703125,251.3000030517578 285.1000061035156,231.6999969482422 286.1000061035156,230 298.1000061035156,222.1999969482422 316.8999938964844,200 319.1000061035156,188.1999969482422 320,186.89999389648438 330.5,179.8000030517578 " class="st0"/>
    <polygon stroke="#000000" id="svg_3" fill="#000000" points="197.60000610351562,108.5999984741211 187.8000030517578,97.69999694824219 178.39999389648438,85.9000015258789 178,85.19999694824219 174.10000610351562,72.0999984741211 171,63.900001525878906 170.89999389648438,63.19999694824219 170.5,35.29999923706055 159.8000030517578,16.700000762939453 143.39999389648438,12 123.5,12 108.9000015258789,22 81,64.80000305175781 72.5,107.0999984741211 69.69999694824219,149.89999389648438 72.30000305175781,161 73.4000015258789,148.60000610351562 73.5,148.1999969482422 87.19999694824219,106.4000015258789 87.80000305175781,105.5999984741211 103.19999694824219,90.80000305175781 104.0999984741211,90.19999694824219 121.9000015258789,85.30000305175781 135.10000610351562,77.19999694824219 135.8000030517578,76.9000015258789 150.3000030517578,74.30000305175781 151.39999389648438,74.4000015258789 162.6999969482422,78.69999694824219 163.89999389648438,79.69999694824219 171.3000030517578,95.30000305175781 179.6999969482422,106.9000015258789 190.1999969482422,113.30000305175781 192.3000030517578,111.5 193,111 195.89999389648438,110 " class="st0"/>
    <polygon stroke="#000000" id="svg_4" fill="#000000" points="391.70001220703125,31.400001525878906 385.1000061035156,16.5 352.20001220703125,20.799999237060547 264.1000061035156,66 227.60000610351562,89.80000305175781 207.60000610351562,106.19999694824219 232.60000610351562,97.0999984741211 233.3000030517578,97 254.60000610351562,97 289.29998779296875,86 290.5,86 307.8999938964844,91.0999984741211 309.1000061035156,92.0999984741211 314.8999938964844,102.0999984741211 315.1000061035156,103.5 313.5,115.9000015258789 330,121.4000015258789 337.29998779296875,116.5999984741211 344.8999938964844,95.80000305175781 345.3999938964844,95 383,57.70000076293945 " class="st0"/>
    <polygon stroke="#000000" id="svg_5" fill="#000000" points="81.5,253.1999969482422 85.80000305175781,245.6999969482422 86.19999694824219,238.3000030517578 80.5,226.39999389648438 76.9000015258789,224.89999389648438 58.5,228 54.70000076293945,237.39999389648438 56,242.1999969482422 72.0999984741211,259 78.30000305175781,259 81.5,253.3000030517578 " class="st0"/>
    <polygon stroke="#000000" id="svg_6" fill="#000000" points="134.60000610351562,254.8000030517578 130.10000610351562,250.8000030517578 129.39999389648438,248.89999389648438 132.1999969482422,231.10000610351562 128.5,221.10000610351562 118.5999984741211,212.6999969482422 113.4000015258789,211.1999969482422 112.5999984741211,210.8000030517578 105.5999984741211,204.6999969482422 104.9000015258789,203 105.0999984741211,198.6999969482422 83.4000015258789,202.8000030517578 76.0999984741211,207.1999969482422 62.70000076293945,223.1999969482422 76.80000305175781,220.8000030517578 78,220.89999389648438 82.9000015258789,223 83.9000015258789,224 90.19999694824219,237.10000610351562 90.4000015258789,238.10000610351562 89.9000015258789,246.5 89.69999694824219,247.5 86.4000015258789,253.10000610351562 115.19999694824219,261.5 " class="st0"/>
   </g>
   <polyline id="svg_7" stroke-linejoin="bevel" stroke-width="0.75" stroke="#000000" fill="none" points="60.20000076293945,230.10000610351562 45.900001525878906,223 0.4000000059604645,252.5 0.4000000059604645,255 " class="st1"/>
   <polyline id="svg_8" stroke-linejoin="bevel" stroke-width="0.75" stroke="#000000" fill="none" points="74.4000015258789,228.5 60.5,224 27.399999618530273,269.6000061035156 27.399999618530273,274 " class="st1"/>
  </g>
 </g>
</svg>