<?xml version="1.0" encoding="utf-8"?>
<!-- Generator: Adobe Illustrator 27.7.0, SVG Export Plug-In . SVG Version: 6.00 Build 0)  -->
<svg version="1.1" id="Capa_2_00000024688723093975299910000016748155752762684299_"
	 xmlns="http://www.w3.org/2000/svg" xmlns:xlink="http://www.w3.org/1999/xlink" x="0px" y="0px" viewBox="0 0 391.7 345.4"
	 style="enable-background:new 0 0 391.7 345.4;" xml:space="preserve">
<style type="text/css">
	.st0{fill:#1F140F;}
	.st1{fill:none;stroke:#1F140F;stroke-width:0.75;stroke-linejoin:bevel;}
	.st2{fill:url(#SVGID_1_);}
	.st3{fill:url(#SVGID_00000052081426158434866350000005931037858065479072_);}
	.st4{fill:url(#SVGID_00000013187660641885556070000005227467048533489282_);}
	.st5{fill:url(#SVGID_00000085971628383435489950000017696792362538797474_);}
	.st6{fill:url(#SVGID_00000050657087559901052190000006175927934966274741_);}
	.st7{fill:url(#SVGID_00000029745396019544534500000000071191258240156319_);}
	.st8{fill:url(#SVGID_00000001628011553956846890000003397253633981037236_);}
</style>
<g id="Negro">
	<g>
		<polygon class="st0" points="338,157.6 328.6,125.7 310.6,119.9 310.6,119.9 299.8,116.4 241.5,129.5 197.3,151 255.1,128.9 
			256,128.8 292.7,133.2 293.7,133.5 314.3,148.7 315.1,150.7 311.9,171.9 311.6,172.8 285.8,210.5 285.2,211.1 268.6,221.8 
			267.9,235.7 267.6,236.6 257.8,253.8 255.4,266.3 255,267.2 244.2,281.8 243.2,282.5 230.6,286.9 242.7,291.4 265.3,285.5 
			284.7,252.3 285.1,232.7 286.1,231 298.1,223.2 316.9,201 319.1,189.2 320,187.9 330.5,180.8 		"/>
		<polygon class="st0" points="197.6,109.6 187.8,98.7 178.4,86.9 178,86.2 174.1,73.1 171,64.9 170.9,64.2 170.5,36.3 159.8,17.7 
			143.4,13 123.5,13 108.9,23 81,65.8 72.5,108.1 69.7,150.9 72.3,162 73.4,149.6 73.5,149.2 87.2,107.4 87.8,106.6 103.2,91.8 
			104.1,91.2 121.9,86.3 135.1,78.2 135.8,77.9 150.3,75.3 151.4,75.4 162.7,79.7 163.9,80.7 171.3,96.3 179.7,107.9 190.2,114.3 
			192.3,112.5 193,112 195.9,111 		"/>
		<polygon class="st0" points="391.7,32.4 385.1,17.5 352.2,21.8 264.1,67 227.6,90.8 207.6,107.2 232.6,98.1 233.3,98 254.6,98 
			289.3,87 290.5,87 307.9,92.1 309.1,93.1 314.9,103.1 315.1,104.5 313.5,116.9 330,122.4 337.3,117.6 344.9,96.8 345.4,96 
			383,58.7 		"/>
		<polygon class="st0" points="81.5,254.2 85.8,246.7 86.2,239.3 80.5,227.4 76.9,225.9 58.5,229 54.7,238.4 56,243.2 72.1,260 
			78.3,260 81.5,254.3 		"/>
		<polygon class="st0" points="134.6,255.8 130.1,251.8 129.4,249.9 132.2,232.1 128.5,222.1 118.6,213.7 113.4,212.2 112.6,211.8 
			105.6,205.7 104.9,204 105.1,199.7 83.4,203.8 76.1,208.2 62.7,224.2 76.8,221.8 78,221.9 82.9,224 83.9,225 90.2,238.1 
			90.4,239.1 89.9,247.5 89.7,248.5 86.4,254.1 115.2,262.5 		"/>
	</g>
	<polyline class="st1" points="60.2,231.1 45.9,224 0.4,253.5 0.4,256 	"/>
	<polyline class="st1" points="74.4,229.5 60.5,225 27.4,270.6 27.4,275 	"/>
</g>
<g id="Anaranjado">
	<g>
		
			<linearGradient id="SVGID_1_" gradientUnits="userSpaceOnUse" x1="203.2891" y1="213.2415" x2="103.7091" y2="156.0515" gradientTransform="matrix(1 0 0 -1 0 345.89)">
			<stop  offset="7.000000e-02" style="stop-color:#EB7B26"/>
			<stop  offset="0.32" style="stop-color:#D36E20"/>
			<stop  offset="0.84" style="stop-color:#984D14"/>
		</linearGradient>
		<polygon class="st2" points="151.9,168.3 152.4,168.1 152.4,168.1 152.4,168.1 152.4,168.1 172.7,160.2 188.9,149.6 202,135 
			225.3,114.2 225.7,113.9 247,102 233.7,102 194.6,115.8 129.8,174 109.2,197.9 108.8,202.8 112.9,206.3 114.9,199.9 115.4,199.1 
			128.2,185.6 		"/>
		
			<linearGradient id="SVGID_00000025431297377013251130000015429924094186776755_" gradientUnits="userSpaceOnUse" x1="264.3608" y1="191.1884" x2="132.3208" y2="127.5583" gradientTransform="matrix(1 0 0 -1 0 345.89)">
			<stop  offset="0" style="stop-color:#EB7B26"/>
			<stop  offset="0.25" style="stop-color:#D36E20"/>
			<stop  offset="0.79" style="stop-color:#984D14"/>
		</linearGradient>
		<polygon style="fill:url(#SVGID_00000025431297377013251130000015429924094186776755_);" points="256.1,133 154.1,172 
			130.8,188.9 118.8,201.8 116.6,208.8 120.2,209.8 121,210.2 131.6,219.3 132.3,220.2 133.5,223.6 179.8,205 180.3,204.9 
			204,201.8 220.9,190.5 250.8,177.2 251.1,177 285.2,168.7 285.8,168.7 308.1,169.4 310.8,151.3 291.7,137.2 		"/>
		
			<linearGradient id="SVGID_00000116946689631524957350000002979077388875736468_" gradientUnits="userSpaceOnUse" x1="274.5908" y1="151.8377" x2="145.3608" y2="104.6677" gradientTransform="matrix(1 0 0 -1 0 345.89)">
			<stop  offset="7.000000e-02" style="stop-color:#EB7B26"/>
			<stop  offset="0.22" style="stop-color:#D36E20"/>
			<stop  offset="0.55" style="stop-color:#984D14"/>
		</linearGradient>
		<polygon style="fill:url(#SVGID_00000116946689631524957350000002979077388875736468_);" points="252.3,181 222.7,194.2 
			213.2,200.5 219.4,199.7 220.2,199.8 256.7,209.1 257.6,209.5 266.8,218 282.6,207.9 306,173.5 285.9,172.8 		"/>
		
			<linearGradient id="SVGID_00000060745218257054903020000016481799817755682717_" gradientUnits="userSpaceOnUse" x1="299.81" y1="102.2654" x2="83.76" y2="101.3454" gradientTransform="matrix(1 0 0 -1 0 345.89)">
			<stop  offset="7.000000e-02" style="stop-color:#EB7B26"/>
			<stop  offset="0.26" style="stop-color:#D36E20"/>
			<stop  offset="0.66" style="stop-color:#984D14"/>
		</linearGradient>
		<polygon style="fill:url(#SVGID_00000060745218257054903020000016481799817755682717_);" points="218.9,203.6 180.4,209.3 
			134.6,228.7 136.1,232.5 136.2,233.6 133.8,250.9 142.9,258.5 158.4,261 182.2,268.7 218.5,284.4 224.9,284.3 241.8,278 
			251.7,264.2 253.9,251.7 254.1,251.1 263.5,233.9 264.1,220.4 254.6,212 		"/>
		
			<linearGradient id="SVGID_00000018952153741151149460000007528286113914746785_" gradientUnits="userSpaceOnUse" x1="117.2403" y1="266.2201" x2="155.7203" y2="140.5801" gradientTransform="matrix(1 0 0 -1 0 345.89)">
			<stop  offset="0.11" style="stop-color:#EB7B26"/>
			<stop  offset="0.26" style="stop-color:#E77825"/>
			<stop  offset="0.41" style="stop-color:#DB7222"/>
			<stop  offset="0.55" style="stop-color:#C8671E"/>
			<stop  offset="0.69" style="stop-color:#AC5818"/>
			<stop  offset="0.78" style="stop-color:#984D14"/>
		</linearGradient>
		<polygon style="fill:url(#SVGID_00000018952153741151149460000007528286113914746785_);" points="186.9,117.4 177,111.3 
			176.4,110.8 167.4,98.5 160.3,83.4 150.3,79.6 136.8,82.1 124.3,89.8 99.8,170.4 95.2,197.3 106.1,195.3 126.9,171.1 		"/>
		
			<linearGradient id="SVGID_00000045613911969465649940000004039578866675912849_" gradientUnits="userSpaceOnUse" x1="68.372" y1="259.6411" x2="123.242" y2="154.821" gradientTransform="matrix(1 0 0 -1 0 345.89)">
			<stop  offset="7.000000e-02" style="stop-color:#EB7B26"/>
			<stop  offset="0.38" style="stop-color:#E87925"/>
			<stop  offset="0.53" style="stop-color:#E07523"/>
			<stop  offset="0.66" style="stop-color:#D36D20"/>
			<stop  offset="0.76" style="stop-color:#C0631C"/>
			<stop  offset="0.86" style="stop-color:#A85517"/>
			<stop  offset="0.89" style="stop-color:#9F5015"/>
		</linearGradient>
		<polygon style="fill:url(#SVGID_00000045613911969465649940000004039578866675912849_);" points="119.6,91.1 105.5,95.3 
			90.8,109.4 77.4,150.4 74.1,186.9 79.9,201.1 81.6,200 82.3,199.7 90.8,198.1 95.8,169.3 		"/>
		
			<linearGradient id="SVGID_00000045596497788238320470000011303927002016055965_" gradientUnits="userSpaceOnUse" x1="214.6463" y1="199.5566" x2="115.8863" y2="144.7066" gradientTransform="matrix(1 0 0 -1 0 345.89)">
			<stop  offset="7.000000e-02" style="stop-color:#EB7B26"/>
			<stop  offset="0.22" style="stop-color:#D36E20"/>
			<stop  offset="0.55" style="stop-color:#984D14"/>
		</linearGradient>
		<polygon style="fill:url(#SVGID_00000045596497788238320470000011303927002016055965_);" points="204.9,138.1 197.7,146.1 
			239.9,125.6 240.4,125.5 299.4,112.2 300.5,112.2 309.5,115.1 310.9,104.5 306,96 289.9,91.4 255.8,102 227.9,117.6 		"/>
	</g>
</g>
</svg>
