<?xml version="1.0" encoding="UTF-8"?>
<svg id="Capa_2" data-name="Capa 2" xmlns="http://www.w3.org/2000/svg" xmlns:xlink="http://www.w3.org/1999/xlink" viewBox="0 0 499.68 191.68">
  <defs>
    <style>
      .cls-1 {
        fill: url(#Degradado_sin_nombre_41);
      }

      .cls-2 {
        fill: url(#Degradado_sin_nombre_78);
      }

      .cls-3 {
        fill: #1f140f;
      }

      .cls-4 {
        fill: url(#Degradado_sin_nombre_38);
      }

      .cls-5 {
        fill: url(#Degradado_sin_nombre_43);
      }

      .cls-6 {
        fill: url(#Degradado_sin_nombre_82);
      }

      .cls-7 {
        fill: url(#Degradado_sin_nombre_80);
      }

      .cls-8 {
        stroke: #1f140f;
        stroke-linejoin: bevel;
        stroke-width: .75px;
      }

      .cls-8, .cls-9 {
        fill: none;
      }

      .cls-10 {
        fill: url(#Degradado_sin_nombre_42);
      }

      .cls-11 {
        fill: url(#Degradado_sin_nombre_37);
      }
    </style>
    <radialGradient id="Degradado_sin_nombre_82" data-name="Degradado sin nombre 82" cx="208.63" cy="137.98" fx="208.63" fy="137.98" r="210.91" gradientUnits="userSpaceOnUse">
      <stop offset="0" stop-color="#eb7b26"/>
      <stop offset=".21" stop-color="#eb7b26"/>
      <stop offset=".31" stop-color="#bb611c"/>
      <stop offset=".45" stop-color="#7f4211"/>
      <stop offset=".55" stop-color="#5a2e09"/>
      <stop offset=".61" stop-color="#4c2707"/>
      <stop offset="1" stop-color="#1b1209"/>
    </radialGradient>
    <linearGradient id="Degradado_sin_nombre_37" data-name="Degradado sin nombre 37" x1="411.36" y1="56.09" x2="364.67" y2="82.9" gradientUnits="userSpaceOnUse">
      <stop offset=".07" stop-color="#eb7b26"/>
      <stop offset=".32" stop-color="#d36e20"/>
      <stop offset=".84" stop-color="#984d14"/>
    </linearGradient>
    <linearGradient id="Degradado_sin_nombre_41" data-name="Degradado sin nombre 41" x1="439.99" y1="66.43" x2="378.08" y2="96.26" gradientUnits="userSpaceOnUse">
      <stop offset="0" stop-color="#eb7b26"/>
      <stop offset=".25" stop-color="#d36e20"/>
      <stop offset=".79" stop-color="#984d14"/>
    </linearGradient>
    <linearGradient id="Degradado_sin_nombre_42" data-name="Degradado sin nombre 42" x1="444.79" y1="84.88" x2="384.2" y2="107" gradientUnits="userSpaceOnUse">
      <stop offset=".07" stop-color="#eb7b26"/>
      <stop offset=".22" stop-color="#d36e20"/>
      <stop offset=".55" stop-color="#984d14"/>
    </linearGradient>
    <linearGradient id="Degradado_sin_nombre_43" data-name="Degradado sin nombre 43" x1="456.61" y1="108.12" x2="355.32" y2="108.55" gradientUnits="userSpaceOnUse">
      <stop offset=".07" stop-color="#eb7b26"/>
      <stop offset=".26" stop-color="#d36e20"/>
      <stop offset=".66" stop-color="#984d14"/>
    </linearGradient>
    <linearGradient id="Degradado_sin_nombre_80" data-name="Degradado sin nombre 80" x1="371.01" y1="31.25" x2="389.06" y2="90.16" gradientUnits="userSpaceOnUse">
      <stop offset=".11" stop-color="#eb7b26"/>
      <stop offset=".26" stop-color="#e77825"/>
      <stop offset=".41" stop-color="#db7222"/>
      <stop offset=".55" stop-color="#c8671e"/>
      <stop offset=".69" stop-color="#ac5818"/>
      <stop offset=".78" stop-color="#984d14"/>
    </linearGradient>
    <linearGradient id="Degradado_sin_nombre_78" data-name="Degradado sin nombre 78" x1="348.1" y1="34.34" x2="373.83" y2="83.48" gradientUnits="userSpaceOnUse">
      <stop offset=".07" stop-color="#eb7b26"/>
      <stop offset=".38" stop-color="#e87925"/>
      <stop offset=".53" stop-color="#e07523"/>
      <stop offset=".66" stop-color="#d36d20"/>
      <stop offset=".76" stop-color="#c0631c"/>
      <stop offset=".86" stop-color="#a85517"/>
      <stop offset=".89" stop-color="#9f5015"/>
    </linearGradient>
    <linearGradient id="Degradado_sin_nombre_38" data-name="Degradado sin nombre 38" x1="416.68" y1="62.51" x2="370.38" y2="88.23" gradientUnits="userSpaceOnUse">
      <stop offset=".07" stop-color="#eb7b26"/>
      <stop offset=".22" stop-color="#d36e20"/>
      <stop offset=".55" stop-color="#984d14"/>
    </linearGradient>
  </defs>
  <g id="Capa_7" data-name="Capa 7">
    <g>
      <g>
        <path class="cls-9" d="m48.94,102.32l-8.26,6.62c-2.18-2.27-4.16-3.96-5.94-5.07-1.77-1.11-4.34-1.67-7.69-1.67-3.66,0-6.64.83-8.92,2.48s-3.42,3.79-3.42,6.4c0,2.26,1,4.26,2.99,5.99,1.99,1.73,5.39,3.63,10.18,5.69,4.8,2.06,8.53,3.98,11.2,5.76,2.67,1.78,4.86,3.74,6.58,5.89,1.72,2.15,2.99,4.41,3.83,6.79.84,2.38,1.26,4.9,1.26,7.55,0,6.21-2.26,11.5-6.77,15.87-4.51,4.37-9.97,6.56-16.38,6.56s-11.77-1.71-16.56-5.13c-4.79-3.42-8.47-8.55-11.05-15.38l10.2-2.87c3.71,8.4,9.4,12.6,17.05,12.6,3.71,0,6.8-1.11,9.26-3.33,2.46-2.22,3.69-5.02,3.69-8.41,0-2.02-.65-4.06-1.94-6.11-1.29-2.05-2.9-3.73-4.81-5.05-1.92-1.32-4.96-2.85-9.15-4.56-4.18-1.71-7.4-3.28-9.65-4.71-2.25-1.42-4.21-3.12-5.85-5.09-1.65-1.97-2.85-3.93-3.62-5.89s-1.15-4.04-1.15-6.27c0-5.35,2.15-9.91,6.45-13.67,4.3-3.77,9.51-5.65,15.65-5.65,4.06,0,8.18.88,12.37,2.64,4.18,1.76,7.66,4.43,10.43,8.03Z"/>
        <path class="cls-9" d="m98.64,153.89v11.66c-5.2,2.97-10.24,4.45-15.12,4.45-6.68,0-12.53-2.51-17.55-7.53-5.02-5.02-7.53-10.83-7.53-17.44,0-7.5,2.5-13.72,7.5-18.67,5-4.94,11.27-7.41,18.81-7.41,4.49,0,9.12,1.17,13.89,3.52v11.37c-5.12-3.28-9.96-4.92-14.53-4.92-4.22,0-7.91,1.48-11.08,4.45-3.16,2.97-4.75,6.45-4.75,10.43,0,4.49,1.48,8.27,4.45,11.34,2.97,3.07,6.6,4.6,10.9,4.6s9.38-1.95,15-5.86Z"/>
        <path class="cls-9" d="m106.66,104.43c0-2.11.78-3.94,2.34-5.48,1.56-1.54,3.42-2.31,5.57-2.31s3.94.77,5.48,2.31c1.54,1.54,2.32,3.37,2.32,5.48s-.77,3.99-2.32,5.51c-1.54,1.52-3.37,2.29-5.48,2.29s-4.01-.76-5.57-2.29c-1.56-1.52-2.34-3.36-2.34-5.51Zm2.87,15.88h10.08v48.35h-10.08v-48.35Z"/>
        <path class="cls-9" d="m135.03,94h41.38v10.2h-31.3v18.64h31.3v10.08h-31.18v35.75h-10.2v-74.67Z"/>
        <path class="cls-9" d="m188.83,92.59h10.2v76.07h-10.2v-76.07Z"/>
        <path class="cls-9" d="m211.98,120.31h10.2v27.25c0,8.4,3.69,12.6,11.08,12.6,3.28,0,5.88-1.12,7.79-3.37,1.91-2.25,2.87-5.32,2.87-9.23v-27.25h10.08v28.89c0,6.06-1.97,11.04-5.92,14.94-3.95,3.91-8.99,5.86-15.12,5.86s-11.31-1.95-15.18-5.86c-3.87-3.91-5.8-9.01-5.8-15.3v-28.54Z"/>
        <path class="cls-9" d="m269.59,106.25h10.2v14.07h10.08v9.32h-10.08v39.03h-10.2v-39.03h-8.03v-9.44h8.03v-13.95Z"/>
        <path class="cls-9" d="m302.12,106.25h10.2v14.07h10.08v9.32h-10.08v39.03h-10.2v-39.03h-8.03v-9.44h8.03v-13.95Z"/>
        <path class="cls-9" d="m379.65,146.45h-41.26c.9,4.96,2.94,8.59,6.12,10.87s6.65,3.43,10.4,3.43c5.78,0,10.63-2.4,14.53-7.21l7.44,5.63c-5.59,7.23-13.07,10.84-22.45,10.84-7.19,0-13.21-2.46-18.05-7.38-4.85-4.92-7.27-11.04-7.27-18.34,0-6.84,2.45-12.77,7.36-17.79,4.9-5.02,10.89-7.53,17.96-7.53s12.91,2.55,17.87,7.65c4.96,5.1,7.4,11.71,7.33,19.84Zm-40.2-8.15h29.54c-3.28-6.64-8.13-9.96-14.53-9.96-6.99,0-12,3.32-15,9.96Z"/>
        <path class="cls-9" d="m402.74,120.31v9.96c2.27-3.98,4.48-6.87,6.65-8.64,2.17-1.78,4.99-2.67,8.47-2.67.98,0,2.38.23,4.22.7l-3.11,10.2c-1.95-.39-3.24-.59-3.87-.59-3.44,0-6.32,1.2-8.64,3.6-2.33,2.4-3.49,5.4-3.49,9v26.78h-10.2v-48.35h9.96Z"/>
      </g>
      <g>
        <path class="cls-6" d="m48.94,102.32l-8.26,6.62c-2.18-2.27-4.16-3.96-5.94-5.07-1.77-1.11-4.34-1.67-7.69-1.67-3.66,0-6.64.83-8.92,2.48-2.28,1.66-3.42,3.79-3.42,6.4,0,2.26,1,4.26,2.99,5.99,1.99,1.73,5.39,3.63,10.18,5.69,4.8,2.06,8.53,3.98,11.2,5.76,2.67,1.78,4.87,3.74,6.58,5.88,1.72,2.15,2.99,4.41,3.83,6.79.84,2.38,1.26,4.9,1.26,7.55,0,6.21-2.26,11.5-6.77,15.87-4.51,4.37-9.97,6.56-16.38,6.56s-11.77-1.71-16.56-5.13C6.26,162.64,2.58,157.51,0,150.67l10.2-2.87c3.71,8.4,9.4,12.6,17.05,12.6,3.71,0,6.8-1.11,9.26-3.33,2.46-2.22,3.69-5.02,3.69-8.41,0-2.03-.65-4.06-1.94-6.11-1.29-2.04-2.89-3.73-4.81-5.05-1.92-1.32-4.97-2.84-9.15-4.56-4.18-1.71-7.4-3.28-9.65-4.71-2.25-1.42-4.21-3.12-5.85-5.1s-2.85-3.93-3.62-5.88-1.15-4.04-1.15-6.27c0-5.35,2.15-9.91,6.45-13.67,4.3-3.77,9.51-5.65,15.65-5.65,4.06,0,8.18.88,12.37,2.64,4.18,1.76,7.66,4.44,10.43,8.03Z"/>
        <path class="cls-6" d="m98.63,153.89v11.66c-5.2,2.97-10.24,4.45-15.12,4.45-6.68,0-12.53-2.51-17.55-7.53-5.02-5.02-7.53-10.83-7.53-17.44,0-7.5,2.5-13.72,7.5-18.67,5-4.94,11.27-7.41,18.81-7.41,4.49,0,9.12,1.17,13.89,3.52v11.37c-5.12-3.28-9.96-4.92-14.53-4.92-4.22,0-7.91,1.49-11.08,4.45-3.17,2.97-4.75,6.45-4.75,10.43,0,4.49,1.48,8.27,4.45,11.34,2.97,3.07,6.6,4.6,10.9,4.6s9.38-1.95,15-5.86Z"/>
        <path class="cls-6" d="m106.66,104.43c0-2.11.78-3.94,2.34-5.48,1.56-1.54,3.42-2.31,5.57-2.31s3.94.77,5.48,2.31c1.54,1.54,2.31,3.37,2.31,5.48s-.77,3.98-2.31,5.51c-1.54,1.52-3.37,2.29-5.48,2.29s-4.01-.76-5.57-2.29c-1.56-1.52-2.34-3.36-2.34-5.51Zm2.87,15.88h10.08v48.35h-10.08v-48.35Z"/>
        <path class="cls-6" d="m135.03,94h41.38v10.2h-31.3v18.64h31.3v10.08h-31.18v35.75h-10.2v-74.67Z"/>
        <path class="cls-6" d="m188.83,92.59h10.2v76.07h-10.2v-76.07Z"/>
        <path class="cls-6" d="m211.98,120.31h10.2v27.25c0,8.4,3.69,12.6,11.08,12.6,3.28,0,5.88-1.12,7.79-3.37,1.91-2.25,2.87-5.32,2.87-9.23v-27.25h10.08v28.89c0,6.06-1.97,11.04-5.92,14.94-3.95,3.91-8.99,5.86-15.12,5.86s-11.31-1.95-15.18-5.86c-3.87-3.91-5.8-9-5.8-15.3v-28.54Z"/>
        <path class="cls-6" d="m269.59,106.25h10.2v14.07h10.08v9.32h-10.08v39.03h-10.2v-39.03h-8.03v-9.44h8.03v-13.95Z"/>
        <path class="cls-6" d="m302.12,106.25h10.2v14.07h10.08v9.32h-10.08v39.03h-10.2v-39.03h-8.03v-9.44h8.03v-13.95Z"/>
        <path class="cls-6" d="m379.65,146.45h-41.26c.9,4.96,2.94,8.59,6.12,10.87,3.18,2.29,6.65,3.43,10.4,3.43,5.78,0,10.63-2.4,14.53-7.21l7.44,5.63c-5.59,7.23-13.07,10.84-22.45,10.84-7.19,0-13.21-2.46-18.05-7.38-4.85-4.92-7.27-11.04-7.27-18.34,0-6.84,2.45-12.77,7.36-17.79,4.9-5.02,10.89-7.53,17.96-7.53s12.91,2.55,17.88,7.65c4.96,5.1,7.4,11.71,7.33,19.84Zm-40.2-8.15h29.54c-3.28-6.64-8.13-9.96-14.53-9.96-6.99,0-12,3.32-15,9.96Z"/>
        <path class="cls-6" d="m402.74,120.31v9.96c2.27-3.99,4.48-6.87,6.65-8.64,2.17-1.78,4.99-2.67,8.47-2.67.98,0,2.38.23,4.22.7l-3.11,10.2c-1.95-.39-3.24-.59-3.87-.59-3.44,0-6.32,1.2-8.64,3.6-2.33,2.4-3.49,5.4-3.49,9v26.78h-10.2v-48.35h9.96Z"/>
      </g>
    </g>
    <g>
      <path class="cls-3" d="m73.59,178.93h3.26c2.69,0,4.55,1.88,4.55,4.82s-1.82,4.99-4.57,4.99h-3.25v-9.8Zm.79,9.08h2.35c2.58,0,3.84-1.81,3.84-4.22,0-2.14-1.14-4.14-3.84-4.14h-2.35v8.36Z"/>
      <path class="cls-3" d="m83.59,185.32c.01,1.79.91,2.9,2.25,2.9s1.75-.73,2-1.31h.74c-.29.92-1.04,1.98-2.77,1.98-2.13,0-2.97-1.83-2.97-3.62,0-2.01,1-3.73,3.05-3.73,2.16,0,2.85,1.86,2.85,3.19,0,.2,0,.39-.01.58h-5.15Zm4.4-.63c-.01-1.38-.76-2.46-2.13-2.46-1.43,0-2.08,1-2.24,2.46h4.36Z"/>
      <path class="cls-3" d="m90.72,186.8c.24.9.88,1.44,1.98,1.44,1.24,0,1.73-.57,1.73-1.34s-.34-1.18-1.89-1.55c-1.82-.44-2.27-.99-2.27-1.91s.73-1.87,2.32-1.87,2.35.97,2.46,1.97h-.73c-.12-.58-.58-1.31-1.77-1.31s-1.55.6-1.55,1.15c0,.64.33.96,1.72,1.29,1.98.48,2.47,1.13,2.47,2.18,0,1.27-1.03,2.06-2.52,2.06-1.61,0-2.51-.84-2.7-2.11h.74Z"/>
      <path class="cls-3" d="m102.18,186.67c-.33,1.23-1.15,2.23-2.73,2.23-1.76,0-3.01-1.31-3.01-3.64,0-1.92,1.03-3.7,3.09-3.7,1.79,0,2.52,1.27,2.65,2.25h-.74c-.21-.81-.74-1.57-1.92-1.57-1.47,0-2.31,1.25-2.31,2.99s.78,3,2.24,3c1.02,0,1.63-.52,1.99-1.56h.74Z"/>
      <path class="cls-3" d="m109.05,186.69c0,.69.01,1.77.01,2.05h-.7c-.03-.18-.04-.64-.04-1.21-.3.82-1.01,1.38-2.25,1.38-1.02,0-2.3-.4-2.3-2.54v-4.64h.71v4.46c0,1.02.32,2,1.7,2,1.55,0,2.14-.87,2.14-2.86v-3.61h.73v4.96Z"/>
      <path class="cls-3" d="m111.4,178.41h.73v4.48c.34-.7,1.02-1.33,2.39-1.33,1.66,0,2.87,1.36,2.87,3.52s-1.09,3.83-3.06,3.83c-1.17,0-1.84-.47-2.21-1.27,0,.44-.01.9-.03,1.1h-.71c.01-.8.01-1.6.01-2.39v-7.93Zm5.22,6.68c0-1.74-.86-2.85-2.18-2.85-1.74,0-2.35,1.18-2.35,3.01,0,1.64.54,2.98,2.27,2.98,1.41,0,2.27-1.17,2.27-3.13Z"/>
      <path class="cls-3" d="m119.19,183.63c0-1.17-.01-1.67-.01-1.91h.71c.01.22.03.68.03,1.56.4-1.05,1.3-1.68,2.44-1.73v.78c-1.46.09-2.44,1.09-2.44,2.76v3.63h-.73v-5.1Z"/>
      <path class="cls-3" d="m123.9,185.32c.01,1.79.91,2.9,2.25,2.9s1.75-.73,2-1.31h.74c-.29.92-1.04,1.98-2.77,1.98-2.13,0-2.97-1.83-2.97-3.62,0-2.01,1-3.73,3.05-3.73,2.16,0,2.85,1.86,2.85,3.19,0,.2,0,.39-.01.58h-5.15Zm4.4-.63c-.01-1.38-.76-2.46-2.13-2.46-1.43,0-2.08,1-2.24,2.46h4.36Z"/>
      <path class="cls-3" d="m134.53,188.73v-10.32h.73v10.32h-.73Z"/>
      <path class="cls-3" d="m142.35,187.39c0,.62.06,1.12.1,1.34h-.7c-.06-.17-.1-.48-.13-1.07-.24.52-.85,1.24-2.29,1.24-1.63,0-2.33-1.05-2.33-2.1,0-1.54,1.19-2.25,3.3-2.25h1.32v-.71c0-.7-.21-1.62-1.79-1.62-1.4,0-1.61.73-1.77,1.31h-.73c.08-.78.57-1.97,2.51-1.97,1.6,0,2.5.67,2.5,2.22v3.62Zm-.71-2.22h-1.36c-1.55,0-2.5.41-2.5,1.6,0,.88.62,1.47,1.6,1.47,1.99,0,2.26-1.32,2.26-2.82v-.25Z"/>
      <path class="cls-3" d="m153.6,186.67c-.33,1.23-1.15,2.23-2.73,2.23-1.76,0-3.01-1.31-3.01-3.64,0-1.92,1.03-3.7,3.09-3.7,1.79,0,2.52,1.27,2.65,2.25h-.74c-.21-.81-.74-1.57-1.92-1.57-1.47,0-2.31,1.25-2.31,2.99s.78,3,2.24,3c1.02,0,1.63-.52,1.99-1.56h.74Z"/>
      <path class="cls-3" d="m155.46,178.41h.73v1.37h-.73v-1.37Zm0,3.31h.73v7.01h-.73v-7.01Z"/>
      <path class="cls-3" d="m158.73,185.32c.01,1.79.91,2.9,2.25,2.9s1.75-.73,2-1.31h.74c-.29.92-1.04,1.98-2.77,1.98-2.13,0-2.97-1.83-2.97-3.62,0-2.01,1-3.73,3.05-3.73,2.16,0,2.85,1.86,2.85,3.19,0,.2,0,.39-.01.58h-5.15Zm4.4-.63c-.01-1.38-.76-2.46-2.13-2.46-1.43,0-2.08,1-2.24,2.46h4.36Z"/>
      <path class="cls-3" d="m165.65,183.49c0-.62,0-1.21-.01-1.77h.71c.03.22.04,1.12.03,1.32.31-.71.88-1.49,2.32-1.49,1.25,0,2.35.71,2.35,2.64v4.54h-.73v-4.43c0-1.24-.51-2.04-1.72-2.04-1.65,0-2.22,1.37-2.22,2.89v3.58h-.73v-5.24Z"/>
      <path class="cls-3" d="m178.59,186.67c-.33,1.23-1.15,2.23-2.73,2.23-1.76,0-3.01-1.31-3.01-3.64,0-1.92,1.03-3.7,3.09-3.7,1.79,0,2.52,1.27,2.64,2.25h-.74c-.21-.81-.74-1.57-1.92-1.57-1.47,0-2.31,1.25-2.31,2.99s.78,3,2.24,3c1.02,0,1.63-.52,1.99-1.56h.74Z"/>
      <path class="cls-3" d="m180.45,178.41h.73v1.37h-.73v-1.37Zm0,3.31h.73v7.01h-.73v-7.01Z"/>
      <path class="cls-3" d="m188.26,187.39c0,.62.06,1.12.1,1.34h-.7c-.06-.17-.1-.48-.13-1.07-.24.52-.85,1.24-2.29,1.24-1.63,0-2.33-1.05-2.33-2.1,0-1.54,1.19-2.25,3.29-2.25h1.32v-.71c0-.7-.21-1.62-1.79-1.62-1.4,0-1.61.73-1.76,1.31h-.73c.08-.78.57-1.97,2.51-1.97,1.6,0,2.5.67,2.5,2.22v3.62Zm-.71-2.22h-1.36c-1.55,0-2.5.41-2.5,1.6,0,.88.62,1.47,1.6,1.47,1.99,0,2.26-1.32,2.26-2.82v-.25Z"/>
      <path class="cls-3" d="m194.34,183.49c0-.62,0-1.21-.01-1.77h.71c.03.22.04,1.12.03,1.32.31-.71.88-1.49,2.32-1.49,1.25,0,2.35.71,2.35,2.64v4.54h-.73v-4.43c0-1.24-.51-2.04-1.72-2.04-1.65,0-2.22,1.37-2.22,2.89v3.58h-.73v-5.24Z"/>
      <path class="cls-3" d="m206.84,187.39c0,.62.06,1.12.1,1.34h-.7c-.06-.17-.1-.48-.13-1.07-.24.52-.85,1.24-2.29,1.24-1.63,0-2.33-1.05-2.33-2.1,0-1.54,1.19-2.25,3.29-2.25h1.32v-.71c0-.7-.21-1.62-1.79-1.62-1.4,0-1.61.73-1.76,1.31h-.73c.08-.78.57-1.97,2.51-1.97,1.6,0,2.5.67,2.5,2.22v3.62Zm-.71-2.22h-1.36c-1.55,0-2.5.41-2.5,1.6,0,.88.62,1.47,1.6,1.47,1.99,0,2.26-1.32,2.26-2.82v-.25Z"/>
      <path class="cls-3" d="m208.86,181.73c1.12,3.19,1.91,5.38,2.17,6.27h.01c.16-.53.94-2.62,2.28-6.27h.77l-2.65,7.01h-.87l-2.49-7.01h.77Z"/>
      <path class="cls-3" d="m215.71,185.32c.01,1.79.91,2.9,2.25,2.9s1.75-.73,2-1.31h.74c-.29.92-1.04,1.98-2.77,1.98-2.13,0-2.97-1.83-2.97-3.62,0-2.01,1-3.73,3.05-3.73,2.16,0,2.85,1.86,2.85,3.19,0,.2,0,.39-.01.58h-5.15Zm4.4-.63c-.01-1.38-.76-2.46-2.12-2.46-1.43,0-2.08,1-2.24,2.46h4.36Z"/>
      <path class="cls-3" d="m228.16,188.25c0,2.24-.99,3.43-3.04,3.43-1.84,0-2.59-1.03-2.76-2.09h.74c.25.96,1.04,1.42,2.04,1.42,1.81,0,2.31-1.17,2.31-2.94v-.72c-.38.9-1.06,1.39-2.33,1.39-1.65,0-2.9-1.34-2.9-3.5,0-2.35,1.35-3.67,3-3.67,1.42,0,2.04.67,2.23,1.23.01-.4.03-.89.04-1.06h.69c0,.26-.03,1.36-.03,2.03v4.49Zm-5.16-3.05c0,1.66.88,2.85,2.21,2.85,1.74,0,2.27-1.16,2.27-2.96s-.55-2.85-2.22-2.85-2.25,1.37-2.25,2.96Z"/>
      <path class="cls-3" d="m235.22,187.39c0,.62.06,1.12.1,1.34h-.7c-.06-.17-.1-.48-.13-1.07-.24.52-.85,1.24-2.29,1.24-1.63,0-2.33-1.05-2.33-2.1,0-1.54,1.19-2.25,3.29-2.25h1.32v-.71c0-.7-.21-1.62-1.79-1.62-1.4,0-1.61.73-1.76,1.31h-.73c.08-.78.57-1.97,2.51-1.97,1.6,0,2.5.67,2.5,2.22v3.62Zm-.71-2.22h-1.36c-1.55,0-2.5.41-2.5,1.6,0,.88.62,1.47,1.6,1.47,1.99,0,2.26-1.32,2.26-2.82v-.25Z"/>
      <path class="cls-3" d="m237.58,183.49c0-.62,0-1.21-.01-1.77h.71c.03.22.04,1.12.03,1.32.31-.71.88-1.49,2.32-1.49,1.25,0,2.35.71,2.35,2.64v4.54h-.73v-4.43c0-1.24-.51-2.04-1.72-2.04-1.65,0-2.22,1.37-2.22,2.89v3.58h-.73v-5.24Z"/>
      <path class="cls-3" d="m250.77,178.41v8.3c0,.67,0,1.32.01,2.02h-.7c-.03-.17-.04-.82-.04-1.17-.35.85-1.13,1.34-2.35,1.34-1.82,0-2.92-1.48-2.92-3.59s1.19-3.76,3.1-3.76c1.39,0,1.95.6,2.16,1.04v-4.19h.73Zm-5.22,6.87c0,1.91.98,2.94,2.18,2.94,1.84,0,2.34-1.27,2.34-3.16s-.43-2.83-2.21-2.83c-1.38,0-2.31,1.1-2.31,3.05Z"/>
      <path class="cls-3" d="m258.82,185.22c0,1.95-1.08,3.69-3.18,3.69-1.9,0-3.08-1.56-3.08-3.67s1.11-3.67,3.15-3.67c1.87,0,3.11,1.46,3.11,3.66Zm-5.48.01c0,1.66.89,3,2.36,3s2.35-1.24,2.35-2.99c0-1.65-.83-3-2.38-3s-2.34,1.32-2.34,2.99Z"/>
      <path class="cls-3" d="m270.02,185.22c0,1.95-1.08,3.69-3.18,3.69-1.9,0-3.08-1.56-3.08-3.67s1.11-3.67,3.15-3.67c1.87,0,3.11,1.46,3.11,3.66Zm-5.48.01c0,1.66.89,3,2.36,3s2.35-1.24,2.35-2.99c0-1.65-.83-3-2.38-3s-2.34,1.32-2.34,2.99Z"/>
      <path class="cls-3" d="m280.7,186.67c-.33,1.23-1.15,2.23-2.73,2.23-1.76,0-3.01-1.31-3.01-3.64,0-1.92,1.03-3.7,3.09-3.7,1.79,0,2.52,1.27,2.64,2.25h-.74c-.21-.81-.74-1.57-1.92-1.57-1.47,0-2.31,1.25-2.31,2.99s.78,3,2.24,3c1.02,0,1.63-.52,1.99-1.56h.74Z"/>
      <path class="cls-3" d="m288.15,185.22c0,1.95-1.08,3.69-3.18,3.69-1.9,0-3.08-1.56-3.08-3.67s1.11-3.67,3.15-3.67c1.87,0,3.11,1.46,3.11,3.66Zm-5.48.01c0,1.66.89,3,2.36,3s2.35-1.24,2.35-2.99c0-1.65-.83-3-2.38-3s-2.34,1.32-2.34,2.99Z"/>
      <path class="cls-3" d="m289.94,188.73v-10.32h.73v10.32h-.73Z"/>
      <path class="cls-3" d="m297.75,187.39c0,.62.06,1.12.1,1.34h-.7c-.06-.17-.1-.48-.13-1.07-.24.52-.85,1.24-2.29,1.24-1.63,0-2.33-1.05-2.33-2.1,0-1.54,1.19-2.25,3.29-2.25h1.32v-.71c0-.7-.21-1.62-1.79-1.62-1.4,0-1.61.73-1.76,1.31h-.73c.08-.78.57-1.97,2.51-1.97,1.6,0,2.5.67,2.5,2.22v3.62Zm-.71-2.22h-1.36c-1.55,0-2.5.41-2.5,1.6,0,.88.62,1.47,1.6,1.47,1.99,0,2.26-1.32,2.26-2.82v-.25Z"/>
      <path class="cls-3" d="m300.12,178.41h.73v4.48c.33-.7,1.02-1.33,2.39-1.33,1.66,0,2.87,1.36,2.87,3.52s-1.09,3.83-3.06,3.83c-1.17,0-1.84-.47-2.21-1.27,0,.44-.01.9-.03,1.1h-.71c.01-.8.01-1.6.01-2.39v-7.93Zm5.22,6.68c0-1.74-.86-2.85-2.18-2.85-1.74,0-2.35,1.18-2.35,3.01,0,1.64.54,2.98,2.27,2.98,1.41,0,2.27-1.17,2.27-3.13Z"/>
      <path class="cls-3" d="m313.68,185.22c0,1.95-1.08,3.69-3.18,3.69-1.9,0-3.08-1.56-3.08-3.67s1.11-3.67,3.15-3.67c1.87,0,3.11,1.46,3.11,3.66Zm-5.48.01c0,1.66.89,3,2.36,3s2.35-1.24,2.35-2.99c0-1.65-.83-3-2.38-3s-2.34,1.32-2.34,2.99Z"/>
      <path class="cls-3" d="m315.48,183.63c0-1.17-.01-1.67-.01-1.91h.71c.01.22.03.68.03,1.56.4-1.05,1.3-1.68,2.43-1.73v.78c-1.46.09-2.43,1.09-2.43,2.76v3.63h-.73v-5.1Z"/>
      <path class="cls-3" d="m324.7,187.39c0,.62.06,1.12.1,1.34h-.7c-.06-.17-.1-.48-.13-1.07-.24.52-.85,1.24-2.29,1.24-1.63,0-2.33-1.05-2.33-2.1,0-1.54,1.19-2.25,3.29-2.25h1.32v-.71c0-.7-.21-1.62-1.79-1.62-1.4,0-1.61.73-1.76,1.31h-.73c.08-.78.57-1.97,2.51-1.97,1.6,0,2.5.67,2.5,2.22v3.62Zm-.71-2.22h-1.36c-1.55,0-2.5.41-2.5,1.6,0,.88.62,1.47,1.6,1.47,1.99,0,2.26-1.32,2.26-2.82v-.25Z"/>
      <path class="cls-3" d="m327.07,183.49c0-.62,0-1.21-.01-1.77h.71c.03.22.04,1.12.03,1.32.31-.71.88-1.49,2.32-1.49,1.25,0,2.35.71,2.35,2.64v4.54h-.73v-4.43c0-1.24-.51-2.04-1.72-2.04-1.65,0-2.22,1.37-2.22,2.89v3.58h-.73v-5.24Z"/>
      <path class="cls-3" d="m340.26,178.41v8.3c0,.67,0,1.32.01,2.02h-.7c-.03-.17-.04-.82-.04-1.17-.35.85-1.13,1.34-2.35,1.34-1.82,0-2.92-1.48-2.92-3.59s1.19-3.76,3.1-3.76c1.39,0,1.95.6,2.16,1.04v-4.19h.73Zm-5.22,6.87c0,1.91.98,2.94,2.18,2.94,1.84,0,2.34-1.27,2.34-3.16s-.43-2.83-2.21-2.83c-1.38,0-2.31,1.1-2.31,3.05Z"/>
      <path class="cls-3" d="m348.31,185.22c0,1.95-1.08,3.69-3.18,3.69-1.9,0-3.08-1.56-3.08-3.67s1.11-3.67,3.15-3.67c1.87,0,3.11,1.46,3.11,3.66Zm-5.48.01c0,1.66.89,3,2.36,3s2.35-1.24,2.35-2.99c0-1.65-.83-3-2.38-3s-2.34,1.32-2.34,2.99Z"/>
      <path class="cls-3" d="m349.68,188.73v-1.82h.73v1.82h-.73Z"/>
    </g>
  </g>
  <g id="Negro">
    <g>
      <polygon class="cls-3" points="474.51 67.79 470.1 52.83 461.68 50.1 461.68 50.1 456.59 48.45 429.28 54.61 408.55 64.68 435.62 54.33 436.09 54.27 453.29 56.33 453.75 56.52 463.41 63.62 463.8 64.55 462.28 74.49 462.12 74.9 450.02 92.61 449.74 92.88 441.99 97.9 441.62 104.42 441.5 104.85 436.9 112.9 435.77 118.77 435.59 119.17 430.52 126 430.06 126.34 424.19 128.39 429.81 130.52 440.43 127.74 449.54 112.19 449.72 102.99 450.17 102.19 455.79 98.56 464.61 88.12 465.68 82.63 466.09 82.01 471 78.68 474.51 67.79"/>
      <polygon class="cls-3" points="408.71 45.28 404.1 40.18 399.67 34.66 399.49 34.33 397.7 28.19 396.22 24.31 396.16 23.98 396 10.91 390.96 2.19 383.28 0 373.97 0 367.11 4.69 354.01 24.75 350.03 44.57 348.72 64.64 349.95 69.85 350.47 64.05 350.52 63.83 356.94 44.26 357.19 43.86 364.42 36.92 364.83 36.68 373.19 34.38 379.39 30.56 379.73 30.43 386.51 29.19 387.03 29.24 392.34 31.25 392.87 31.75 396.34 39.07 400.28 44.47 405.24 47.49 406.21 46.62 406.53 46.43 407.87 45.96 408.71 45.28"/>
      <polygon class="cls-3" points="499.68 9.08 496.61 2.13 481.19 4.1 439.88 25.3 422.73 36.46 413.36 44.18 425.12 39.91 425.45 39.85 435.44 39.85 451.67 34.69 452.23 34.69 460.41 37.09 460.99 37.54 463.68 42.26 463.8 42.89 463.05 48.73 470.76 51.29 474.17 49.06 477.76 39.29 478 38.93 495.62 21.41 499.68 9.08"/>
      <polygon class="cls-3" points="354.25 113.07 356.28 109.55 356.48 106.09 353.8 100.52 352.11 99.8 343.49 101.27 341.68 105.67 342.29 107.94 349.84 115.8 352.75 115.8 354.27 113.11 354.25 113.07"/>
      <polygon class="cls-3" points="379.16 113.85 377.04 111.94 376.72 111.07 378.05 102.7 376.31 98.03 371.67 94.09 369.2 93.41 368.82 93.2 365.55 90.34 365.22 89.57 365.3 87.52 355.16 89.44 351.74 91.53 345.46 99.02 352.06 97.89 352.61 97.96 354.9 98.94 355.39 99.41 358.34 105.54 358.44 106.01 358.22 109.95 358.09 110.39 356.56 113.03 370.06 116.99 379.16 113.85"/>
    </g>
    <polyline class="cls-8" points="344.26 102.26 337.56 98.92 316.22 112.76 316.22 113.93"/>
    <polyline class="cls-8" points="350.91 101.51 344.39 99.39 328.88 120.78 328.88 122.84"/>
  </g>
  <g id="Anaranjado">
    <g>
      <polygon class="cls-11" points="387.27 72.83 387.49 72.71 387.49 72.71 387.49 72.71 387.49 72.71 397.02 69.02 404.63 64.02 410.76 57.18 421.68 47.43 421.85 47.31 431.84 41.73 425.61 41.73 407.29 48.21 376.91 75.47 367.27 86.67 367.08 89.01 368.99 90.63 369.93 87.64 370.15 87.26 376.14 80.9 387.27 72.83"/>
      <polygon class="cls-1" points="436.1 56.24 388.31 74.55 377.36 82.49 371.73 88.5 370.69 91.8 372.4 92.27 372.76 92.47 377.77 96.71 378.06 97.12 378.64 98.75 400.32 90.01 400.56 89.95 411.68 88.49 419.59 83.2 433.63 76.96 433.79 76.91 449.78 73.01 450.04 72.98 460.48 73.34 461.78 64.84 452.8 58.24 436.1 56.24"/>
      <polygon class="cls-10" points="434.34 78.78 420.46 84.95 416.03 87.92 418.93 87.54 419.3 87.57 436.41 91.92 436.83 92.15 441.15 96.12 448.52 91.35 459.51 75.26 450.11 74.93 434.34 78.78"/>
      <polygon class="cls-5" points="418.67 89.34 400.65 92.02 379.16 101.12 379.85 102.93 379.9 103.41 378.75 111.56 383.04 115.08 390.33 116.25 401.46 119.87 418.49 127.23 421.5 127.18 429.41 124.25 434.06 117.75 435.08 111.92 435.19 111.62 439.61 103.55 439.85 97.22 435.43 93.29 418.67 89.34"/>
      <polygon class="cls-7" points="403.65 48.93 399.03 46.11 398.75 45.85 394.54 40.06 391.2 33.01 386.52 31.23 380.19 32.39 374.33 35.99 362.85 73.79 360.69 86.41 365.81 85.44 375.56 74.12 403.65 48.93"/>
      <polygon class="cls-2" points="372.1 36.64 365.52 38.57 358.64 45.17 352.33 64.41 350.78 81.54 353.49 88.17 354.29 87.68 354.62 87.55 358.64 86.8 360.96 73.28 372.1 36.64"/>
      <polygon class="cls-4" points="412.1 58.66 408.75 62.42 428.53 52.81 428.74 52.73 456.42 46.49 456.94 46.52 461.16 47.88 461.82 42.88 459.5 38.92 451.97 36.76 435.97 41.72 422.9 49.02 412.1 58.66"/>
    </g>
  </g>
</svg>