<svg width="499.68" height="191.68" xmlns="http://www.w3.org/2000/svg" data-name="Capa 2">
 <defs>
  <radialGradient gradientUnits="userSpaceOnUse" r="210.91" fy="137.98" fx="208.63" cy="137.98" cx="208.63" data-name="Degradado sin nombre 82" id="Degradado_sin_nombre_82">
   <stop stop-color="#eb7b26" offset="0"/>
   <stop stop-color="#eb7b26" offset="0.21"/>
   <stop stop-color="#bb611c" offset="0.31"/>
   <stop stop-color="#7f4211" offset="0.45"/>
   <stop stop-color="#5a2e09" offset="0.55"/>
   <stop stop-color="#4c2707" offset="0.61"/>
   <stop stop-color="#1b1209" offset="1"/>
  </radialGradient>
  <linearGradient y2="0.84192" x2="-0.03721" y1="0.29366" x1="0.68376" data-name="Degradado sin nombre 37" id="Degradado_sin_nombre_37">
   <stop stop-color="#eb7b26" offset="0.07"/>
   <stop stop-color="#d36e20" offset="0.32"/>
   <stop stop-color="#984d14" offset="0.84"/>
  </linearGradient>
  <linearGradient y2="0.94143" x2="0.08113" y1="0.23971" x1="0.76079" data-name="Degradado sin nombre 41" id="Degradado_sin_nombre_41">
   <stop stop-color="#eb7b26" offset="0"/>
   <stop stop-color="#d36e20" offset="0.25"/>
   <stop stop-color="#984d14" offset="0.79"/>
  </linearGradient>
  <linearGradient y2="1.51345" x2="-0.73206" y1="0.46956" x1="0.66145" data-name="Degradado sin nombre 42" id="Degradado_sin_nombre_42">
   <stop stop-color="#eb7b26" offset="0.07"/>
   <stop stop-color="#d36e20" offset="0.22"/>
   <stop stop-color="#984d14" offset="0.55"/>
  </linearGradient>
  <linearGradient y2="0.50699" x2="-0.38347" y1="0.49565" x1="1.2743" data-name="Degradado sin nombre 43" id="Degradado_sin_nombre_43">
   <stop stop-color="#eb7b26" offset="0.07"/>
   <stop stop-color="#d36e20" offset="0.26"/>
   <stop stop-color="#984d14" offset="0.66"/>
  </linearGradient>
  <linearGradient y2="1.06796" x2="0.66038" y1="0.00036" x1="0.24022" data-name="Degradado sin nombre 80" id="Degradado_sin_nombre_80">
   <stop stop-color="#eb7b26" offset="0.11"/>
   <stop stop-color="#e77825" offset="0.26"/>
   <stop stop-color="#db7222" offset="0.41"/>
   <stop stop-color="#c8671e" offset="0.55"/>
   <stop stop-color="#ac5818" offset="0.69"/>
   <stop stop-color="#984d14" offset="0.78"/>
  </linearGradient>
  <linearGradient y2="0.90899" x2="1.08114" y1="-0.04463" x1="-0.1257" data-name="Degradado sin nombre 78" id="Degradado_sin_nombre_78">
   <stop stop-color="#eb7b26" offset="0.07"/>
   <stop stop-color="#e87925" offset="0.38"/>
   <stop stop-color="#e07523" offset="0.53"/>
   <stop stop-color="#d36d20" offset="0.66"/>
   <stop stop-color="#c0631c" offset="0.76"/>
   <stop stop-color="#a85517" offset="0.86"/>
   <stop stop-color="#9f5015" offset="0.89"/>
  </linearGradient>
  <linearGradient y2="2.00585" x2="-0.72301" y1="1.00351" x1="0.14943" data-name="Degradado sin nombre 38" id="Degradado_sin_nombre_38">
   <stop stop-color="#eb7b26" offset="0.07"/>
   <stop stop-color="#d36e20" offset="0.22"/>
   <stop stop-color="#984d14" offset="0.55"/>
  </linearGradient>
 </defs>
 <g>
  <title>Layer 1</title>
  <g id="svg_2">
   <path id="svg_3" fill="none" d="m48.94,102.32l-8.26,6.62c-2.18,-2.27 -4.16,-3.96 -5.94,-5.07c-1.77,-1.11 -4.34,-1.67 -7.69,-1.67c-3.66,0 -6.64,0.83 -8.92,2.48s-3.42,3.79 -3.42,6.4c0,2.26 1,4.26 2.99,5.99c1.99,1.73 5.39,3.63 10.18,5.69c4.8,2.06 8.53,3.98 11.2,5.76c2.67,1.78 4.86,3.74 6.58,5.89c1.72,2.15 2.99,4.41 3.83,6.79c0.84,2.38 1.26,4.9 1.26,7.55c0,6.21 -2.26,11.5 -6.77,15.87c-4.51,4.37 -9.97,6.56 -16.38,6.56s-11.77,-1.71 -16.56,-5.13c-4.79,-3.42 -8.47,-8.55 -11.05,-15.38l10.2,-2.87c3.71,8.4 9.4,12.6 17.05,12.6c3.71,0 6.8,-1.11 9.26,-3.33c2.46,-2.22 3.69,-5.02 3.69,-8.41c0,-2.02 -0.65,-4.06 -1.94,-6.11c-1.29,-2.05 -2.9,-3.73 -4.81,-5.05c-1.92,-1.32 -4.96,-2.85 -9.15,-4.56c-4.18,-1.71 -7.4,-3.28 -9.65,-4.71c-2.25,-1.42 -4.21,-3.12 -5.85,-5.09c-1.65,-1.97 -2.85,-3.93 -3.62,-5.89s-1.15,-4.04 -1.15,-6.27c0,-5.35 2.15,-9.91 6.45,-13.67c4.3,-3.77 9.51,-5.65 15.65,-5.65c4.06,0 8.18,0.88 12.37,2.64c4.18,1.76 7.66,4.43 10.43,8.03l0.02,-0.01z" class="cls-9"/>
   <path id="svg_4" fill="none" d="m98.64,153.89l0,11.66c-5.2,2.97 -10.24,4.45 -15.12,4.45c-6.68,0 -12.53,-2.51 -17.55,-7.53c-5.02,-5.02 -7.53,-10.83 -7.53,-17.44c0,-7.5 2.5,-13.72 7.5,-18.67c5,-4.94 11.27,-7.41 18.81,-7.41c4.49,0 9.12,1.17 13.89,3.52l0,11.37c-5.12,-3.28 -9.96,-4.92 -14.53,-4.92c-4.22,0 -7.91,1.48 -11.08,4.45c-3.16,2.97 -4.75,6.45 -4.75,10.43c0,4.49 1.48,8.27 4.45,11.34c2.97,3.07 6.6,4.6 10.9,4.6s9.38,-1.95 15,-5.86l0.01,0.01z" class="cls-9"/>
   <path id="svg_5" fill="none" d="m106.66,104.43c0,-2.11 0.78,-3.94 2.34,-5.48c1.56,-1.54 3.42,-2.31 5.57,-2.31s3.94,0.77 5.48,2.31c1.54,1.54 2.32,3.37 2.32,5.48s-0.77,3.99 -2.32,5.51c-1.54,1.52 -3.37,2.29 -5.48,2.29s-4.01,-0.76 -5.57,-2.29c-1.56,-1.52 -2.34,-3.36 -2.34,-5.51zm2.87,15.88l10.08,0l0,48.35l-10.08,0l0,-48.35z" class="cls-9"/>
   <path id="svg_6" fill="none" d="m135.03,94l41.38,0l0,10.2l-31.3,0l0,18.64l31.3,0l0,10.08l-31.18,0l0,35.75l-10.2,0l0,-74.67z" class="cls-9"/>
   <path id="svg_7" fill="none" d="m188.83,92.59l10.2,0l0,76.07l-10.2,0l0,-76.07z" class="cls-9"/>
   <path id="svg_8" fill="none" d="m211.98,120.31l10.2,0l0,27.25c0,8.4 3.69,12.6 11.08,12.6c3.28,0 5.88,-1.12 7.79,-3.37c1.91,-2.25 2.87,-5.32 2.87,-9.23l0,-27.25l10.08,0l0,28.89c0,6.06 -1.97,11.04 -5.92,14.94c-3.95,3.91 -8.99,5.86 -15.12,5.86s-11.31,-1.95 -15.18,-5.86c-3.87,-3.91 -5.8,-9.01 -5.8,-15.3l0,-28.54l0,0.01z" class="cls-9"/>
   <path id="svg_9" fill="none" d="m269.59,106.25l10.2,0l0,14.07l10.08,0l0,9.32l-10.08,0l0,39.03l-10.2,0l0,-39.03l-8.03,0l0,-9.44l8.03,0l0,-13.95z" class="cls-9"/>
   <path id="svg_10" fill="none" d="m302.12,106.25l10.2,0l0,14.07l10.08,0l0,9.32l-10.08,0l0,39.03l-10.2,0l0,-39.03l-8.03,0l0,-9.44l8.03,0l0,-13.95z" class="cls-9"/>
   <path id="svg_11" fill="none" d="m379.65,146.45l-41.26,0c0.9,4.96 2.94,8.59 6.12,10.87s6.65,3.43 10.4,3.43c5.78,0 10.63,-2.4 14.53,-7.21l7.44,5.63c-5.59,7.23 -13.07,10.84 -22.45,10.84c-7.19,0 -13.21,-2.46 -18.05,-7.38c-4.85,-4.92 -7.27,-11.04 -7.27,-18.34c0,-6.84 2.45,-12.77 7.36,-17.79c4.9,-5.02 10.89,-7.53 17.96,-7.53s12.91,2.55 17.87,7.65c4.96,5.1 7.4,11.71 7.33,19.84l0.02,-0.01zm-40.2,-8.15l29.54,0c-3.28,-6.64 -8.13,-9.96 -14.53,-9.96c-6.99,0 -12,3.32 -15,9.96l-0.01,0z" class="cls-9"/>
   <path id="svg_12" fill="none" d="m402.74,120.31l0,9.96c2.27,-3.98 4.48,-6.87 6.65,-8.64c2.17,-1.78 4.99,-2.67 8.47,-2.67c0.98,0 2.38,0.23 4.22,0.7l-3.11,10.2c-1.95,-0.39 -3.24,-0.59 -3.87,-0.59c-3.44,0 -6.32,1.2 -8.64,3.6c-2.33,2.4 -3.49,5.4 -3.49,9l0,26.78l-10.2,0l0,-48.35l9.96,0l0.01,0.01z" class="cls-9"/>
  </g>
  <g id="svg_13">
   <path id="svg_14" fill="url(#Degradado_sin_nombre_82)" d="m48.94,102.32l-8.26,6.62c-2.18,-2.27 -4.16,-3.96 -5.94,-5.07c-1.77,-1.11 -4.34,-1.67 -7.69,-1.67c-3.66,0 -6.64,0.83 -8.92,2.48c-2.28,1.66 -3.42,3.79 -3.42,6.4c0,2.26 1,4.26 2.99,5.99c1.99,1.73 5.39,3.63 10.18,5.69c4.8,2.06 8.53,3.98 11.2,5.76c2.67,1.78 4.87,3.74 6.58,5.88c1.72,2.15 2.99,4.41 3.83,6.79c0.84,2.38 1.26,4.9 1.26,7.55c0,6.21 -2.26,11.5 -6.77,15.87c-4.51,4.37 -9.97,6.56 -16.38,6.56s-11.77,-1.71 -16.56,-5.13c-4.78,-3.4 -8.46,-8.53 -11.04,-15.37l10.2,-2.87c3.71,8.4 9.4,12.6 17.05,12.6c3.71,0 6.8,-1.11 9.26,-3.33c2.46,-2.22 3.69,-5.02 3.69,-8.41c0,-2.03 -0.65,-4.06 -1.94,-6.11c-1.29,-2.04 -2.89,-3.73 -4.81,-5.05c-1.92,-1.32 -4.97,-2.84 -9.15,-4.56c-4.18,-1.71 -7.4,-3.28 -9.65,-4.71c-2.25,-1.42 -4.21,-3.12 -5.85,-5.1s-2.85,-3.93 -3.62,-5.88s-1.15,-4.04 -1.15,-6.27c0,-5.35 2.15,-9.91 6.45,-13.67c4.3,-3.77 9.51,-5.65 15.65,-5.65c4.06,0 8.18,0.88 12.37,2.64c4.18,1.76 7.66,4.44 10.43,8.03l0.01,-0.01z" class="cls-6"/>
   <path id="svg_15" fill="url(#Degradado_sin_nombre_82)" d="m98.63,153.89l0,11.66c-5.2,2.97 -10.24,4.45 -15.12,4.45c-6.68,0 -12.53,-2.51 -17.55,-7.53c-5.02,-5.02 -7.53,-10.83 -7.53,-17.44c0,-7.5 2.5,-13.72 7.5,-18.67c5,-4.94 11.27,-7.41 18.81,-7.41c4.49,0 9.12,1.17 13.89,3.52l0,11.37c-5.12,-3.28 -9.96,-4.92 -14.53,-4.92c-4.22,0 -7.91,1.49 -11.08,4.45c-3.17,2.97 -4.75,6.45 -4.75,10.43c0,4.49 1.48,8.27 4.45,11.34c2.97,3.07 6.6,4.6 10.9,4.6s9.38,-1.95 15,-5.86l0.01,0.01z" class="cls-6"/>
   <path id="svg_16" fill="url(#Degradado_sin_nombre_82)" d="m106.66,104.43c0,-2.11 0.78,-3.94 2.34,-5.48c1.56,-1.54 3.42,-2.31 5.57,-2.31s3.94,0.77 5.48,2.31c1.54,1.54 2.31,3.37 2.31,5.48s-0.77,3.98 -2.31,5.51c-1.54,1.52 -3.37,2.29 -5.48,2.29s-4.01,-0.76 -5.57,-2.29c-1.56,-1.52 -2.34,-3.36 -2.34,-5.51zm2.87,15.88l10.08,0l0,48.35l-10.08,0l0,-48.35z" class="cls-6"/>
   <path id="svg_17" fill="url(#Degradado_sin_nombre_82)" d="m135.03,94l41.38,0l0,10.2l-31.3,0l0,18.64l31.3,0l0,10.08l-31.18,0l0,35.75l-10.2,0l0,-74.67z" class="cls-6"/>
   <path id="svg_18" fill="url(#Degradado_sin_nombre_82)" d="m188.83,92.59l10.2,0l0,76.07l-10.2,0l0,-76.07z" class="cls-6"/>
   <path id="svg_19" fill="url(#Degradado_sin_nombre_82)" d="m211.98,120.31l10.2,0l0,27.25c0,8.4 3.69,12.6 11.08,12.6c3.28,0 5.88,-1.12 7.79,-3.37c1.91,-2.25 2.87,-5.32 2.87,-9.23l0,-27.25l10.08,0l0,28.89c0,6.06 -1.97,11.04 -5.92,14.94c-3.95,3.91 -8.99,5.86 -15.12,5.86s-11.31,-1.95 -15.18,-5.86c-3.87,-3.91 -5.8,-9 -5.8,-15.3l0,-28.54l0,0.01z" class="cls-6"/>
   <path id="svg_20" fill="url(#Degradado_sin_nombre_82)" d="m269.59,106.25l10.2,0l0,14.07l10.08,0l0,9.32l-10.08,0l0,39.03l-10.2,0l0,-39.03l-8.03,0l0,-9.44l8.03,0l0,-13.95z" class="cls-6"/>
   <path id="svg_21" fill="url(#Degradado_sin_nombre_82)" d="m302.12,106.25l10.2,0l0,14.07l10.08,0l0,9.32l-10.08,0l0,39.03l-10.2,0l0,-39.03l-8.03,0l0,-9.44l8.03,0l0,-13.95z" class="cls-6"/>
   <path id="svg_22" fill="url(#Degradado_sin_nombre_82)" d="m379.65,146.45l-41.26,0c0.9,4.96 2.94,8.59 6.12,10.87c3.18,2.29 6.65,3.43 10.4,3.43c5.78,0 10.63,-2.4 14.53,-7.21l7.44,5.63c-5.59,7.23 -13.07,10.84 -22.45,10.84c-7.19,0 -13.21,-2.46 -18.05,-7.38c-4.85,-4.92 -7.27,-11.04 -7.27,-18.34c0,-6.84 2.45,-12.77 7.36,-17.79c4.9,-5.02 10.89,-7.53 17.96,-7.53s12.91,2.55 17.88,7.65c4.96,5.1 7.4,11.71 7.33,19.84l0.01,-0.01zm-40.2,-8.15l29.54,0c-3.28,-6.64 -8.13,-9.96 -14.53,-9.96c-6.99,0 -12,3.32 -15,9.96l-0.01,0z" class="cls-6"/>
   <path id="svg_23" fill="url(#Degradado_sin_nombre_82)" d="m402.74,120.31l0,9.96c2.27,-3.99 4.48,-6.87 6.65,-8.64c2.17,-1.78 4.99,-2.67 8.47,-2.67c0.98,0 2.38,0.23 4.22,0.7l-3.11,10.2c-1.95,-0.39 -3.24,-0.59 -3.87,-0.59c-3.44,0 -6.32,1.2 -8.64,3.6c-2.33,2.4 -3.49,5.4 -3.49,9l0,26.78l-10.2,0l0,-48.35l9.96,0l0.01,0.01z" class="cls-6"/>
  </g>
  <g id="svg_24">
   <path id="svg_25" fill="#e9851a" d="m73.59,178.93l3.26,0c2.69,0 4.55,1.88 4.55,4.82s-1.82,4.99 -4.57,4.99l-3.25,0l0,-9.8l0.01,-0.01zm0.79,9.08l2.35,0c2.58,0 3.84,-1.81 3.84,-4.22c0,-2.14 -1.14,-4.14 -3.84,-4.14l-2.35,0l0,8.36z" class="cls-3"/>
   <path id="svg_26" fill="#e9851a" d="m83.59,185.32c0.01,1.79 0.91,2.9 2.25,2.9s1.75,-0.73 2,-1.31l0.74,0c-0.29,0.92 -1.04,1.98 -2.77,1.98c-2.13,0 -2.97,-1.83 -2.97,-3.62c0,-2.01 1,-3.73 3.05,-3.73c2.16,0 2.85,1.86 2.85,3.19c0,0.2 0,0.39 -0.01,0.58l-5.15,0l0.01,0.01zm4.4,-0.63c-0.01,-1.38 -0.76,-2.46 -2.13,-2.46c-1.43,0 -2.08,1 -2.24,2.46l4.36,0l0.01,0z" class="cls-3"/>
   <path id="svg_27" fill="#e9851a" d="m90.72,186.8c0.24,0.9 0.88,1.44 1.98,1.44c1.24,0 1.73,-0.57 1.73,-1.34s-0.34,-1.18 -1.89,-1.55c-1.82,-0.44 -2.27,-0.99 -2.27,-1.91s0.73,-1.87 2.32,-1.87s2.35,0.97 2.46,1.97l-0.73,0c-0.12,-0.58 -0.58,-1.31 -1.77,-1.31s-1.55,0.6 -1.55,1.15c0,0.64 0.33,0.96 1.72,1.29c1.98,0.48 2.47,1.13 2.47,2.18c0,1.27 -1.03,2.06 -2.52,2.06c-1.61,0 -2.51,-0.84 -2.7,-2.11l0.74,0l0.01,0z" class="cls-3"/>
   <path id="svg_28" fill="#e9851a" d="m102.18,186.67c-0.33,1.23 -1.15,2.23 -2.73,2.23c-1.76,0 -3.01,-1.31 -3.01,-3.64c0,-1.92 1.03,-3.7 3.09,-3.7c1.79,0 2.52,1.27 2.65,2.25l-0.74,0c-0.21,-0.81 -0.74,-1.57 -1.92,-1.57c-1.47,0 -2.31,1.25 -2.31,2.99s0.78,3 2.24,3c1.02,0 1.63,-0.52 1.99,-1.56l0.74,0z" class="cls-3"/>
   <path id="svg_29" fill="#e9851a" d="m109.05,186.69c0,0.69 0.01,1.77 0.01,2.05l-0.7,0c-0.03,-0.18 -0.04,-0.64 -0.04,-1.21c-0.3,0.82 -1.01,1.38 -2.25,1.38c-1.02,0 -2.3,-0.4 -2.3,-2.54l0,-4.64l0.71,0l0,4.46c0,1.02 0.32,2 1.7,2c1.55,0 2.14,-0.87 2.14,-2.86l0,-3.61l0.73,0l0,4.96l0,0.01z" class="cls-3"/>
   <path id="svg_30" fill="#e9851a" d="m111.4,178.41l0.73,0l0,4.48c0.34,-0.7 1.02,-1.33 2.39,-1.33c1.66,0 2.87,1.36 2.87,3.52s-1.09,3.83 -3.06,3.83c-1.17,0 -1.84,-0.47 -2.21,-1.27c0,0.44 -0.01,0.9 -0.03,1.1l-0.71,0c0.01,-0.8 0.01,-1.6 0.01,-2.39l0,-7.93l0.01,-0.01zm5.22,6.68c0,-1.74 -0.86,-2.85 -2.18,-2.85c-1.74,0 -2.35,1.18 -2.35,3.01c0,1.64 0.54,2.98 2.27,2.98c1.41,0 2.27,-1.17 2.27,-3.13l-0.01,-0.01z" class="cls-3"/>
   <path id="svg_31" fill="#e9851a" d="m119.19,183.63c0,-1.17 -0.01,-1.67 -0.01,-1.91l0.71,0c0.01,0.22 0.03,0.68 0.03,1.56c0.4,-1.05 1.3,-1.68 2.44,-1.73l0,0.78c-1.46,0.09 -2.44,1.09 -2.44,2.76l0,3.63l-0.73,0l0,-5.1l0,0.01z" class="cls-3"/>
   <path id="svg_32" fill="#e9851a" d="m123.9,185.32c0.01,1.79 0.91,2.9 2.25,2.9s1.75,-0.73 2,-1.31l0.74,0c-0.29,0.92 -1.04,1.98 -2.77,1.98c-2.13,0 -2.97,-1.83 -2.97,-3.62c0,-2.01 1,-3.73 3.05,-3.73c2.16,0 2.85,1.86 2.85,3.19c0,0.2 0,0.39 -0.01,0.58l-5.15,0l0.01,0.01zm4.4,-0.63c-0.01,-1.38 -0.76,-2.46 -2.13,-2.46c-1.43,0 -2.08,1 -2.24,2.46l4.36,0l0.01,0z" class="cls-3"/>
   <path id="svg_33" fill="#e9851a" d="m134.53,188.73l0,-10.32l0.73,0l0,10.32l-0.73,0z" class="cls-3"/>
   <path id="svg_34" fill="#e9851a" d="m142.35,187.39c0,0.62 0.06,1.12 0.1,1.34l-0.7,0c-0.06,-0.17 -0.1,-0.48 -0.13,-1.07c-0.24,0.52 -0.85,1.24 -2.29,1.24c-1.63,0 -2.33,-1.05 -2.33,-2.1c0,-1.54 1.19,-2.25 3.3,-2.25l1.32,0l0,-0.71c0,-0.7 -0.21,-1.62 -1.79,-1.62c-1.4,0 -1.61,0.73 -1.77,1.31l-0.73,0c0.08,-0.78 0.57,-1.97 2.51,-1.97c1.6,0 2.5,0.67 2.5,2.22l0,3.62l0.01,-0.01zm-0.71,-2.22l-1.36,0c-1.55,0 -2.5,0.41 -2.5,1.6c0,0.88 0.62,1.47 1.6,1.47c1.99,0 2.26,-1.32 2.26,-2.82l0,-0.25z" class="cls-3"/>
   <path id="svg_35" fill="#e9851a" d="m153.6,186.67c-0.33,1.23 -1.15,2.23 -2.73,2.23c-1.76,0 -3.01,-1.31 -3.01,-3.64c0,-1.92 1.03,-3.7 3.09,-3.7c1.79,0 2.52,1.27 2.65,2.25l-0.74,0c-0.21,-0.81 -0.74,-1.57 -1.92,-1.57c-1.47,0 -2.31,1.25 -2.31,2.99s0.78,3 2.24,3c1.02,0 1.63,-0.52 1.99,-1.56l0.74,0z" class="cls-3"/>
   <path id="svg_36" fill="#e9851a" d="m155.46,178.41l0.73,0l0,1.37l-0.73,0l0,-1.37zm0,3.31l0.73,0l0,7.01l-0.73,0l0,-7.01z" class="cls-3"/>
   <path id="svg_37" fill="#e9851a" d="m158.73,185.32c0.01,1.79 0.91,2.9 2.25,2.9s1.75,-0.73 2,-1.31l0.74,0c-0.29,0.92 -1.04,1.98 -2.77,1.98c-2.13,0 -2.97,-1.83 -2.97,-3.62c0,-2.01 1,-3.73 3.05,-3.73c2.16,0 2.85,1.86 2.85,3.19c0,0.2 0,0.39 -0.01,0.58l-5.15,0l0.01,0.01zm4.4,-0.63c-0.01,-1.38 -0.76,-2.46 -2.13,-2.46c-1.43,0 -2.08,1 -2.24,2.46l4.36,0l0.01,0z" class="cls-3"/>
   <path id="svg_38" fill="#e9851a" d="m165.65,183.49c0,-0.62 0,-1.21 -0.01,-1.77l0.71,0c0.03,0.22 0.04,1.12 0.03,1.32c0.31,-0.71 0.88,-1.49 2.32,-1.49c1.25,0 2.35,0.71 2.35,2.64l0,4.54l-0.73,0l0,-4.43c0,-1.24 -0.51,-2.04 -1.72,-2.04c-1.65,0 -2.22,1.37 -2.22,2.89l0,3.58l-0.73,0l0,-5.24z" class="cls-3"/>
   <path id="svg_39" fill="#e9851a" d="m178.59,186.67c-0.33,1.23 -1.15,2.23 -2.73,2.23c-1.76,0 -3.01,-1.31 -3.01,-3.64c0,-1.92 1.03,-3.7 3.09,-3.7c1.79,0 2.52,1.27 2.64,2.25l-0.74,0c-0.21,-0.81 -0.74,-1.57 -1.92,-1.57c-1.47,0 -2.31,1.25 -2.31,2.99s0.78,3 2.24,3c1.02,0 1.63,-0.52 1.99,-1.56l0.74,0l0.01,0z" class="cls-3"/>
   <path id="svg_40" fill="#e9851a" d="m180.45,178.41l0.73,0l0,1.37l-0.73,0l0,-1.37zm0,3.31l0.73,0l0,7.01l-0.73,0l0,-7.01z" class="cls-3"/>
   <path id="svg_41" fill="#e9851a" d="m188.26,187.39c0,0.62 0.06,1.12 0.1,1.34l-0.7,0c-0.06,-0.17 -0.1,-0.48 -0.13,-1.07c-0.24,0.52 -0.85,1.24 -2.29,1.24c-1.63,0 -2.33,-1.05 -2.33,-2.1c0,-1.54 1.19,-2.25 3.29,-2.25l1.32,0l0,-0.71c0,-0.7 -0.21,-1.62 -1.79,-1.62c-1.4,0 -1.61,0.73 -1.76,1.31l-0.73,0c0.08,-0.78 0.57,-1.97 2.51,-1.97c1.6,0 2.5,0.67 2.5,2.22l0,3.62l0.01,-0.01zm-0.71,-2.22l-1.36,0c-1.55,0 -2.5,0.41 -2.5,1.6c0,0.88 0.62,1.47 1.6,1.47c1.99,0 2.26,-1.32 2.26,-2.82l0,-0.25z" class="cls-3"/>
   <path id="svg_42" fill="#e9851a" d="m194.34,183.49c0,-0.62 0,-1.21 -0.01,-1.77l0.71,0c0.03,0.22 0.04,1.12 0.03,1.32c0.31,-0.71 0.88,-1.49 2.32,-1.49c1.25,0 2.35,0.71 2.35,2.64l0,4.54l-0.73,0l0,-4.43c0,-1.24 -0.51,-2.04 -1.72,-2.04c-1.65,0 -2.22,1.37 -2.22,2.89l0,3.58l-0.73,0l0,-5.24z" class="cls-3"/>
   <path id="svg_43" fill="#e9851a" d="m206.84,187.39c0,0.62 0.06,1.12 0.1,1.34l-0.7,0c-0.06,-0.17 -0.1,-0.48 -0.13,-1.07c-0.24,0.52 -0.85,1.24 -2.29,1.24c-1.63,0 -2.33,-1.05 -2.33,-2.1c0,-1.54 1.19,-2.25 3.29,-2.25l1.32,0l0,-0.71c0,-0.7 -0.21,-1.62 -1.79,-1.62c-1.4,0 -1.61,0.73 -1.76,1.31l-0.73,0c0.08,-0.78 0.57,-1.97 2.51,-1.97c1.6,0 2.5,0.67 2.5,2.22l0,3.62l0.01,-0.01zm-0.71,-2.22l-1.36,0c-1.55,0 -2.5,0.41 -2.5,1.6c0,0.88 0.62,1.47 1.6,1.47c1.99,0 2.26,-1.32 2.26,-2.82l0,-0.25z" class="cls-3"/>
   <path id="svg_44" fill="#e9851a" d="m208.86,181.73c1.12,3.19 1.91,5.38 2.17,6.27l0.01,0c0.16,-0.53 0.94,-2.62 2.28,-6.27l0.77,0l-2.65,7.01l-0.87,0l-2.49,-7.01l0.77,0l0.01,0z" class="cls-3"/>
   <path id="svg_45" fill="#e9851a" d="m215.71,185.32c0.01,1.79 0.91,2.9 2.25,2.9s1.75,-0.73 2,-1.31l0.74,0c-0.29,0.92 -1.04,1.98 -2.77,1.98c-2.13,0 -2.97,-1.83 -2.97,-3.62c0,-2.01 1,-3.73 3.05,-3.73c2.16,0 2.85,1.86 2.85,3.19c0,0.2 0,0.39 -0.01,0.58l-5.15,0l0.01,0.01zm4.4,-0.63c-0.01,-1.38 -0.76,-2.46 -2.12,-2.46c-1.43,0 -2.08,1 -2.24,2.46l4.36,0z" class="cls-3"/>
   <path id="svg_46" fill="#e9851a" d="m228.16,188.25c0,2.24 -0.99,3.43 -3.04,3.43c-1.84,0 -2.59,-1.03 -2.76,-2.09l0.74,0c0.25,0.96 1.04,1.42 2.04,1.42c1.81,0 2.31,-1.17 2.31,-2.94l0,-0.72c-0.38,0.9 -1.06,1.39 -2.33,1.39c-1.65,0 -2.9,-1.34 -2.9,-3.5c0,-2.35 1.35,-3.67 3,-3.67c1.42,0 2.04,0.67 2.23,1.23c0.01,-0.4 0.03,-0.89 0.04,-1.06l0.69,0c0,0.26 -0.03,1.36 -0.03,2.03l0,4.49l0.01,-0.01zm-5.16,-3.05c0,1.66 0.88,2.85 2.21,2.85c1.74,0 2.27,-1.16 2.27,-2.96s-0.55,-2.85 -2.22,-2.85s-2.25,1.37 -2.25,2.96l-0.01,0z" class="cls-3"/>
   <path id="svg_47" fill="#e9851a" d="m235.22,187.39c0,0.62 0.06,1.12 0.1,1.34l-0.7,0c-0.06,-0.17 -0.1,-0.48 -0.13,-1.07c-0.24,0.52 -0.85,1.24 -2.29,1.24c-1.63,0 -2.33,-1.05 -2.33,-2.1c0,-1.54 1.19,-2.25 3.29,-2.25l1.32,0l0,-0.71c0,-0.7 -0.21,-1.62 -1.79,-1.62c-1.4,0 -1.61,0.73 -1.76,1.31l-0.73,0c0.08,-0.78 0.57,-1.97 2.51,-1.97c1.6,0 2.5,0.67 2.5,2.22l0,3.62l0.01,-0.01zm-0.71,-2.22l-1.36,0c-1.55,0 -2.5,0.41 -2.5,1.6c0,0.88 0.62,1.47 1.6,1.47c1.99,0 2.26,-1.32 2.26,-2.82l0,-0.25z" class="cls-3"/>
   <path id="svg_48" fill="#e9851a" d="m237.58,183.49c0,-0.62 0,-1.21 -0.01,-1.77l0.71,0c0.03,0.22 0.04,1.12 0.03,1.32c0.31,-0.71 0.88,-1.49 2.32,-1.49c1.25,0 2.35,0.71 2.35,2.64l0,4.54l-0.73,0l0,-4.43c0,-1.24 -0.51,-2.04 -1.72,-2.04c-1.65,0 -2.22,1.37 -2.22,2.89l0,3.58l-0.73,0l0,-5.24z" class="cls-3"/>
   <path id="svg_49" fill="#e9851a" d="m250.77,178.41l0,8.3c0,0.67 0,1.32 0.01,2.02l-0.7,0c-0.03,-0.17 -0.04,-0.82 -0.04,-1.17c-0.35,0.85 -1.13,1.34 -2.35,1.34c-1.82,0 -2.92,-1.48 -2.92,-3.59s1.19,-3.76 3.1,-3.76c1.39,0 1.95,0.6 2.16,1.04l0,-4.19l0.73,0l0.01,0.01zm-5.22,6.87c0,1.91 0.98,2.94 2.18,2.94c1.84,0 2.34,-1.27 2.34,-3.16s-0.43,-2.83 -2.21,-2.83c-1.38,0 -2.31,1.1 -2.31,3.05z" class="cls-3"/>
   <path id="svg_50" fill="#e9851a" d="m258.82,185.22c0,1.95 -1.08,3.69 -3.18,3.69c-1.9,0 -3.08,-1.56 -3.08,-3.67s1.11,-3.67 3.15,-3.67c1.87,0 3.11,1.46 3.11,3.66l0,-0.01zm-5.48,0.01c0,1.66 0.89,3 2.36,3s2.35,-1.24 2.35,-2.99c0,-1.65 -0.83,-3 -2.38,-3s-2.34,1.32 -2.34,2.99l0.01,0z" class="cls-3"/>
   <path id="svg_51" fill="#e9851a" d="m270.02,185.22c0,1.95 -1.08,3.69 -3.18,3.69c-1.9,0 -3.08,-1.56 -3.08,-3.67s1.11,-3.67 3.15,-3.67c1.87,0 3.11,1.46 3.11,3.66l0,-0.01zm-5.48,0.01c0,1.66 0.89,3 2.36,3s2.35,-1.24 2.35,-2.99c0,-1.65 -0.83,-3 -2.38,-3s-2.34,1.32 -2.34,2.99l0.01,0z" class="cls-3"/>
   <path id="svg_52" fill="#e9851a" d="m280.7,186.67c-0.33,1.23 -1.15,2.23 -2.73,2.23c-1.76,0 -3.01,-1.31 -3.01,-3.64c0,-1.92 1.03,-3.7 3.09,-3.7c1.79,0 2.52,1.27 2.64,2.25l-0.74,0c-0.21,-0.81 -0.74,-1.57 -1.92,-1.57c-1.47,0 -2.31,1.25 -2.31,2.99s0.78,3 2.24,3c1.02,0 1.63,-0.52 1.99,-1.56l0.74,0l0.01,0z" class="cls-3"/>
   <path id="svg_53" fill="#e9851a" d="m288.15,185.22c0,1.95 -1.08,3.69 -3.18,3.69c-1.9,0 -3.08,-1.56 -3.08,-3.67s1.11,-3.67 3.15,-3.67c1.87,0 3.11,1.46 3.11,3.66l0,-0.01zm-5.48,0.01c0,1.66 0.89,3 2.36,3s2.35,-1.24 2.35,-2.99c0,-1.65 -0.83,-3 -2.38,-3s-2.34,1.32 -2.34,2.99l0.01,0z" class="cls-3"/>
   <path id="svg_54" fill="#e9851a" d="m289.94,188.73l0,-10.32l0.73,0l0,10.32l-0.73,0z" class="cls-3"/>
   <path id="svg_55" fill="#e9851a" d="m297.75,187.39c0,0.62 0.06,1.12 0.1,1.34l-0.7,0c-0.06,-0.17 -0.1,-0.48 -0.13,-1.07c-0.24,0.52 -0.85,1.24 -2.29,1.24c-1.63,0 -2.33,-1.05 -2.33,-2.1c0,-1.54 1.19,-2.25 3.29,-2.25l1.32,0l0,-0.71c0,-0.7 -0.21,-1.62 -1.79,-1.62c-1.4,0 -1.61,0.73 -1.76,1.31l-0.73,0c0.08,-0.78 0.57,-1.97 2.51,-1.97c1.6,0 2.5,0.67 2.5,2.22l0,3.62l0.01,-0.01zm-0.71,-2.22l-1.36,0c-1.55,0 -2.5,0.41 -2.5,1.6c0,0.88 0.62,1.47 1.6,1.47c1.99,0 2.26,-1.32 2.26,-2.82l0,-0.25z" class="cls-3"/>
   <path id="svg_56" fill="#e9851a" d="m300.12,178.41l0.73,0l0,4.48c0.33,-0.7 1.02,-1.33 2.39,-1.33c1.66,0 2.87,1.36 2.87,3.52s-1.09,3.83 -3.06,3.83c-1.17,0 -1.84,-0.47 -2.21,-1.27c0,0.44 -0.01,0.9 -0.03,1.1l-0.71,0c0.01,-0.8 0.01,-1.6 0.01,-2.39l0,-7.93l0.01,-0.01zm5.22,6.68c0,-1.74 -0.86,-2.85 -2.18,-2.85c-1.74,0 -2.35,1.18 -2.35,3.01c0,1.64 0.54,2.98 2.27,2.98c1.41,0 2.27,-1.17 2.27,-3.13l-0.01,-0.01z" class="cls-3"/>
   <path id="svg_57" fill="#e9851a" d="m313.68,185.22c0,1.95 -1.08,3.69 -3.18,3.69c-1.9,0 -3.08,-1.56 -3.08,-3.67s1.11,-3.67 3.15,-3.67c1.87,0 3.11,1.46 3.11,3.66l0,-0.01zm-5.48,0.01c0,1.66 0.89,3 2.36,3s2.35,-1.24 2.35,-2.99c0,-1.65 -0.83,-3 -2.38,-3s-2.34,1.32 -2.34,2.99l0.01,0z" class="cls-3"/>
   <path id="svg_58" fill="#e9851a" d="m315.48,183.63c0,-1.17 -0.01,-1.67 -0.01,-1.91l0.71,0c0.01,0.22 0.03,0.68 0.03,1.56c0.4,-1.05 1.3,-1.68 2.43,-1.73l0,0.78c-1.46,0.09 -2.43,1.09 -2.43,2.76l0,3.63l-0.73,0l0,-5.1l0,0.01z" class="cls-3"/>
   <path id="svg_59" fill="#e9851a" d="m324.7,187.39c0,0.62 0.06,1.12 0.1,1.34l-0.7,0c-0.06,-0.17 -0.1,-0.48 -0.13,-1.07c-0.24,0.52 -0.85,1.24 -2.29,1.24c-1.63,0 -2.33,-1.05 -2.33,-2.1c0,-1.54 1.19,-2.25 3.29,-2.25l1.32,0l0,-0.71c0,-0.7 -0.21,-1.62 -1.79,-1.62c-1.4,0 -1.61,0.73 -1.76,1.31l-0.73,0c0.08,-0.78 0.57,-1.97 2.51,-1.97c1.6,0 2.5,0.67 2.5,2.22l0,3.62l0.01,-0.01zm-0.71,-2.22l-1.36,0c-1.55,0 -2.5,0.41 -2.5,1.6c0,0.88 0.62,1.47 1.6,1.47c1.99,0 2.26,-1.32 2.26,-2.82l0,-0.25z" class="cls-3"/>
   <path id="svg_60" fill="#e9851a" d="m327.07,183.49c0,-0.62 0,-1.21 -0.01,-1.77l0.71,0c0.03,0.22 0.04,1.12 0.03,1.32c0.31,-0.71 0.88,-1.49 2.32,-1.49c1.25,0 2.35,0.71 2.35,2.64l0,4.54l-0.73,0l0,-4.43c0,-1.24 -0.51,-2.04 -1.72,-2.04c-1.65,0 -2.22,1.37 -2.22,2.89l0,3.58l-0.73,0l0,-5.24z" class="cls-3"/>
   <path id="svg_61" fill="#e9851a" d="m340.26,178.41l0,8.3c0,0.67 0,1.32 0.01,2.02l-0.7,0c-0.03,-0.17 -0.04,-0.82 -0.04,-1.17c-0.35,0.85 -1.13,1.34 -2.35,1.34c-1.82,0 -2.92,-1.48 -2.92,-3.59s1.19,-3.76 3.1,-3.76c1.39,0 1.95,0.6 2.16,1.04l0,-4.19l0.73,0l0.01,0.01zm-5.22,6.87c0,1.91 0.98,2.94 2.18,2.94c1.84,0 2.34,-1.27 2.34,-3.16s-0.43,-2.83 -2.21,-2.83c-1.38,0 -2.31,1.1 -2.31,3.05z" class="cls-3"/>
   <path id="svg_62" fill="#e9851a" d="m348.31,185.22c0,1.95 -1.08,3.69 -3.18,3.69c-1.9,0 -3.08,-1.56 -3.08,-3.67s1.11,-3.67 3.15,-3.67c1.87,0 3.11,1.46 3.11,3.66l0,-0.01zm-5.48,0.01c0,1.66 0.89,3 2.36,3s2.35,-1.24 2.35,-2.99c0,-1.65 -0.83,-3 -2.38,-3s-2.34,1.32 -2.34,2.99l0.01,0z" class="cls-3"/>
   <path id="svg_63" fill="#e9851a" d="m349.68,188.73l0,-1.82l0.73,0l0,1.82l-0.73,0z" class="cls-3"/>
  </g>
  <g id="svg_64">
   <polygon id="svg_65" fill="#000000" points="474.51 67.79 470.1 52.83 461.68 50.1 461.68 50.1 456.59 48.45 429.28 54.61 408.55 64.68 435.62 54.33 436.09 54.27 453.29 56.33 453.75 56.52 463.41 63.62 463.8 64.55 462.28 74.49 462.12 74.9 450.02 92.61 449.74 92.88 441.99 97.9 441.62 104.42 441.5 104.85 436.9 112.9 435.77 118.77 435.59 119.17 430.52 126 430.06 126.34 424.19 128.39 429.81 130.52 440.43 127.74 449.54 112.19 449.72 102.99 450.17 102.19 455.79 98.56 464.61 88.12 465.68 82.63 466.09 82.01 471 78.68 474.51 67.79" class="cls-3"/>
   <polygon id="svg_66" fill="#000000" points="408.71 45.28 404.1 40.18 399.67 34.66 399.49 34.33 397.7 28.19 396.22 24.31 396.16 23.98 396 10.91 390.96 2.19 383.28 0 373.97 0 367.11 4.69 354.01 24.75 350.03 44.57 348.72 64.64 349.95 69.85 350.47 64.05 350.52 63.83 356.94 44.26 357.19 43.86 364.42 36.92 364.83 36.68 373.19 34.38 379.39 30.56 379.73 30.43 386.51 29.19 387.03 29.24 392.34 31.25 392.87 31.75 396.34 39.07 400.28 44.47 405.24 47.49 406.21 46.62 406.53 46.43 407.87 45.96 408.71 45.28" class="cls-3"/>
   <polygon id="svg_67" fill="#000000" points="499.68 9.08 496.61 2.13 481.19 4.1 439.88 25.3 422.73 36.46 413.36 44.18 425.12 39.91 425.45 39.85 435.44 39.85 451.67 34.69 452.23 34.69 460.41 37.09 460.99 37.54 463.68 42.26 463.8 42.89 463.05 48.73 470.76 51.29 474.17 49.06 477.76 39.29 478 38.93 495.62 21.41 499.68 9.08" class="cls-3"/>
   <polygon id="svg_68" fill="#000000" points="354.25 113.07 356.28 109.55 356.48 106.09 353.8 100.52 352.11 99.8 343.49 101.27 341.68 105.67 342.29 107.94 349.84 115.8 352.75 115.8 354.27 113.11 354.25 113.07" class="cls-3"/>
   <polygon id="svg_69" fill="#000000" points="379.16 113.85 377.04 111.94 376.72 111.07 378.05 102.7 376.31 98.03 371.67 94.09 369.2 93.41 368.82 93.2 365.55 90.34 365.22 89.57 365.3 87.52 355.16 89.44 351.74 91.53 345.46 99.02 352.06 97.89 352.61 97.96 354.9 98.94 355.39 99.41 358.34 105.54 358.44 106.01 358.22 109.95 358.09 110.39 356.56 113.03 370.06 116.99 379.16 113.85" class="cls-3"/>
  </g>
  <polyline id="svg_70" fill="none" stroke-width="0.75px" stroke-linejoin="bevel" stroke="#000000" points="344.26 102.26 337.56 98.92 316.22 112.76 316.22 113.93" class="cls-8"/>
  <polyline id="svg_71" fill="none" stroke-width="0.75px" stroke-linejoin="bevel" stroke="#000000" points="350.91 101.51 344.39 99.39 328.88 120.78 328.88 122.84" class="cls-8"/>
  <g id="Anaranjado">
   <g id="svg_72">
    <polygon id="svg_73" fill="url(#Degradado_sin_nombre_37)" points="387.27 72.83 387.49 72.71 387.49 72.71 387.49 72.71 387.49 72.71 397.02 69.02 404.63 64.02 410.76 57.18 421.68 47.43 421.85 47.31 431.84 41.73 425.61 41.73 407.29 48.21 376.91 75.47 367.27 86.67 367.08 89.01 368.99 90.63 369.93 87.64 370.15 87.26 376.14 80.9 387.27 72.83" class="cls-11"/>
    <polygon id="svg_74" fill="url(#Degradado_sin_nombre_41)" points="436.1 56.24 388.31 74.55 377.36 82.49 371.73 88.5 370.69 91.8 372.4 92.27 372.76 92.47 377.77 96.71 378.06 97.12 378.64 98.75 400.32 90.01 400.56 89.95 411.68 88.49 419.59 83.2 433.63 76.96 433.79 76.91 449.78 73.01 450.04 72.98 460.48 73.34 461.78 64.84 452.8 58.24 436.1 56.24" class="cls-1"/>
    <polygon id="svg_75" fill="url(#Degradado_sin_nombre_42)" points="434.34 78.78 420.46 84.95 416.03 87.92 418.93 87.54 419.3 87.57 436.41 91.92 436.83 92.15 441.15 96.12 448.52 91.35 459.51 75.26 450.11 74.93 434.34 78.78" class="cls-10"/>
    <polygon id="svg_76" fill="url(#Degradado_sin_nombre_43)" points="418.67 89.34 400.65 92.02 379.16 101.12 379.85 102.93 379.9 103.41 378.75 111.56 383.04 115.08 390.33 116.25 401.46 119.87 418.49 127.23 421.5 127.18 429.41 124.25 434.06 117.75 435.08 111.92 435.19 111.62 439.61 103.55 439.85 97.22 435.43 93.29 418.67 89.34" class="cls-5"/>
    <polygon id="svg_77" fill="url(#Degradado_sin_nombre_80)" points="403.65 48.93 399.03 46.11 398.75 45.85 394.54 40.06 391.2 33.01 386.52 31.23 380.19 32.39 374.33 35.99 362.85 73.79 360.69 86.41 365.81 85.44 375.56 74.12 403.65 48.93" class="cls-7"/>
    <polygon id="svg_78" fill="url(#Degradado_sin_nombre_78)" points="372.1 36.64 365.52 38.57 358.64 45.17 352.33 64.41 350.78 81.54 353.49 88.17 354.29 87.68 354.62 87.55 358.64 86.8 360.96 73.28 372.1 36.64" class="cls-2"/>
    <polygon id="svg_79" fill="url(#Degradado_sin_nombre_38)" points="412.1 58.66 408.75 62.42 428.53 52.81 428.74 52.73 456.42 46.49 456.94 46.52 461.16 47.88 461.82 42.88 459.5 38.92 451.97 36.76 435.97 41.72 422.9 49.02 412.1 58.66" class="cls-4"/>
   </g>
  </g>
 </g>
</svg>