<?xml version="1.0" encoding="UTF-8"?>
<svg id="Capa_2" data-name="Capa 2" xmlns="http://www.w3.org/2000/svg" xmlns:xlink="http://www.w3.org/1999/xlink" viewBox="0 0 430.08 384.16">
  <defs>
    <style>
      .cls-1 {
        fill: url(#Degradado_sin_nombre_41);
      }

      .cls-2 {
        fill: url(#Degradado_sin_nombre_78);
      }

      .cls-3 {
        fill: #1f140f;
      }

      .cls-4 {
        fill: url(#Degradado_sin_nombre_38);
      }

      .cls-5 {
        fill: url(#Degradado_sin_nombre_43);
      }

      .cls-6 {
        fill: url(#Degradado_sin_nombre_82);
      }

      .cls-7 {
        fill: url(#Degradado_sin_nombre_80);
      }

      .cls-8 {
        stroke: #1f140f;
        stroke-linejoin: bevel;
        stroke-width: .75px;
      }

      .cls-8, .cls-9 {
        fill: none;
      }

      .cls-10 {
        fill: url(#Degradado_sin_nombre_42);
      }

      .cls-11 {
        fill: url(#Degradado_sin_nombre_37);
      }
    </style>
    <radialGradient id="Degradado_sin_nombre_82" data-name="Degradado sin nombre 82" cx="213.46" cy="330.47" fx="213.46" fy="330.47" r="210.91" gradientUnits="userSpaceOnUse">
      <stop offset="0" stop-color="#eb7b26"/>
      <stop offset=".21" stop-color="#eb7b26"/>
      <stop offset=".31" stop-color="#bb611c"/>
      <stop offset=".45" stop-color="#7f4211"/>
      <stop offset=".55" stop-color="#5a2e09"/>
      <stop offset=".61" stop-color="#4c2707"/>
      <stop offset="1" stop-color="#1b1209"/>
    </radialGradient>
    <linearGradient id="Degradado_sin_nombre_37" data-name="Degradado sin nombre 37" x1="223.21" y1="131.38" x2="113.86" y2="194.18" gradientUnits="userSpaceOnUse">
      <stop offset=".07" stop-color="#eb7b26"/>
      <stop offset=".32" stop-color="#d36e20"/>
      <stop offset=".84" stop-color="#984d14"/>
    </linearGradient>
    <linearGradient id="Degradado_sin_nombre_41" data-name="Degradado sin nombre 41" x1="290.27" y1="155.6" x2="145.27" y2="225.47" gradientUnits="userSpaceOnUse">
      <stop offset="0" stop-color="#eb7b26"/>
      <stop offset=".25" stop-color="#d36e20"/>
      <stop offset=".79" stop-color="#984d14"/>
    </linearGradient>
    <linearGradient id="Degradado_sin_nombre_42" data-name="Degradado sin nombre 42" x1="301.51" y1="198.81" x2="159.59" y2="250.62" gradientUnits="userSpaceOnUse">
      <stop offset=".07" stop-color="#eb7b26"/>
      <stop offset=".22" stop-color="#d36e20"/>
      <stop offset=".55" stop-color="#984d14"/>
    </linearGradient>
    <linearGradient id="Degradado_sin_nombre_43" data-name="Degradado sin nombre 43" x1="329.2" y1="253.25" x2="91.95" y2="254.26" gradientUnits="userSpaceOnUse">
      <stop offset=".07" stop-color="#eb7b26"/>
      <stop offset=".26" stop-color="#d36e20"/>
      <stop offset=".66" stop-color="#984d14"/>
    </linearGradient>
    <linearGradient id="Degradado_sin_nombre_80" data-name="Degradado sin nombre 80" x1="128.71" y1="73.21" x2="170.97" y2="211.17" gradientUnits="userSpaceOnUse">
      <stop offset=".11" stop-color="#eb7b26"/>
      <stop offset=".26" stop-color="#e77825"/>
      <stop offset=".41" stop-color="#db7222"/>
      <stop offset=".55" stop-color="#c8671e"/>
      <stop offset=".69" stop-color="#ac5818"/>
      <stop offset=".78" stop-color="#984d14"/>
    </linearGradient>
    <linearGradient id="Degradado_sin_nombre_78" data-name="Degradado sin nombre 78" x1="75.05" y1="80.44" x2="135.3" y2="195.54" gradientUnits="userSpaceOnUse">
      <stop offset=".07" stop-color="#eb7b26"/>
      <stop offset=".38" stop-color="#e87925"/>
      <stop offset=".53" stop-color="#e07523"/>
      <stop offset=".66" stop-color="#d36d20"/>
      <stop offset=".76" stop-color="#c0631c"/>
      <stop offset=".86" stop-color="#a85517"/>
      <stop offset=".89" stop-color="#9f5015"/>
    </linearGradient>
    <linearGradient id="Degradado_sin_nombre_38" data-name="Degradado sin nombre 38" x1="235.68" y1="146.42" x2="127.23" y2="206.65" gradientUnits="userSpaceOnUse">
      <stop offset=".07" stop-color="#eb7b26"/>
      <stop offset=".22" stop-color="#d36e20"/>
      <stop offset=".55" stop-color="#984d14"/>
    </linearGradient>
  </defs>
  <g id="Capa_7" data-name="Capa 7">
    <g>
      <g>
        <path class="cls-9" d="m53.77,294.8l-8.26,6.62c-2.18-2.27-4.16-3.96-5.94-5.07-1.77-1.11-4.34-1.67-7.69-1.67-3.66,0-6.64.83-8.92,2.48s-3.42,3.79-3.42,6.4c0,2.26,1,4.26,2.99,5.99,1.99,1.73,5.39,3.63,10.18,5.69,4.8,2.06,8.53,3.98,11.2,5.76,2.67,1.78,4.86,3.74,6.58,5.89,1.72,2.15,2.99,4.41,3.83,6.79.84,2.38,1.26,4.9,1.26,7.55,0,6.21-2.26,11.5-6.77,15.87-4.51,4.37-9.97,6.56-16.38,6.56s-11.77-1.71-16.56-5.13c-4.79-3.42-8.47-8.55-11.05-15.38l10.2-2.87c3.71,8.4,9.4,12.6,17.05,12.6,3.71,0,6.8-1.11,9.26-3.33,2.46-2.22,3.69-5.02,3.69-8.41,0-2.02-.65-4.06-1.94-6.11-1.29-2.05-2.9-3.73-4.81-5.05-1.92-1.32-4.96-2.85-9.15-4.56-4.18-1.71-7.4-3.28-9.65-4.71-2.25-1.42-4.21-3.12-5.85-5.09-1.65-1.97-2.85-3.93-3.62-5.89s-1.15-4.04-1.15-6.27c0-5.35,2.15-9.91,6.45-13.67,4.3-3.77,9.51-5.65,15.65-5.65,4.06,0,8.18.88,12.37,2.64,4.18,1.76,7.66,4.43,10.43,8.03Z"/>
        <path class="cls-9" d="m103.46,346.38v11.66c-5.2,2.97-10.24,4.45-15.12,4.45-6.68,0-12.53-2.51-17.55-7.53-5.02-5.02-7.53-10.83-7.53-17.44,0-7.5,2.5-13.72,7.5-18.67,5-4.94,11.27-7.41,18.81-7.41,4.49,0,9.12,1.17,13.89,3.52v11.37c-5.12-3.28-9.96-4.92-14.53-4.92-4.22,0-7.91,1.48-11.08,4.45-3.16,2.97-4.75,6.45-4.75,10.43,0,4.49,1.48,8.27,4.45,11.34,2.97,3.07,6.6,4.6,10.9,4.6s9.38-1.95,15-5.86Z"/>
        <path class="cls-9" d="m111.49,296.91c0-2.11.78-3.94,2.34-5.48,1.56-1.54,3.42-2.31,5.57-2.31s3.94.77,5.48,2.31c1.54,1.54,2.32,3.37,2.32,5.48s-.77,3.99-2.32,5.51c-1.54,1.52-3.37,2.29-5.48,2.29s-4.01-.76-5.57-2.29c-1.56-1.52-2.34-3.36-2.34-5.51Zm2.87,15.88h10.08v48.35h-10.08v-48.35Z"/>
        <path class="cls-9" d="m139.86,286.48h41.38v10.2h-31.3v18.64h31.3v10.08h-31.18v35.75h-10.2v-74.67Z"/>
        <path class="cls-9" d="m193.66,285.07h10.2v76.07h-10.2v-76.07Z"/>
        <path class="cls-9" d="m216.81,312.79h10.2v27.25c0,8.4,3.69,12.6,11.08,12.6,3.28,0,5.88-1.12,7.79-3.37,1.91-2.25,2.87-5.32,2.87-9.23v-27.25h10.08v28.89c0,6.06-1.97,11.04-5.92,14.94-3.95,3.91-8.99,5.86-15.12,5.86s-11.31-1.95-15.18-5.86c-3.87-3.91-5.8-9.01-5.8-15.3v-28.54Z"/>
        <path class="cls-9" d="m274.42,298.73h10.2v14.07h10.08v9.32h-10.08v39.03h-10.2v-39.03h-8.03v-9.44h8.03v-13.95Z"/>
        <path class="cls-9" d="m306.95,298.73h10.2v14.07h10.08v9.32h-10.08v39.03h-10.2v-39.03h-8.03v-9.44h8.03v-13.95Z"/>
        <path class="cls-9" d="m384.48,338.93h-41.26c.9,4.96,2.94,8.59,6.12,10.87s6.65,3.43,10.4,3.43c5.78,0,10.63-2.4,14.53-7.21l7.44,5.63c-5.59,7.23-13.07,10.84-22.45,10.84-7.19,0-13.21-2.46-18.05-7.38-4.85-4.92-7.27-11.04-7.27-18.34,0-6.84,2.45-12.77,7.36-17.79,4.9-5.02,10.89-7.53,17.96-7.53s12.91,2.55,17.87,7.65c4.96,5.1,7.4,11.71,7.33,19.84Zm-40.2-8.15h29.54c-3.28-6.64-8.13-9.96-14.53-9.96-6.99,0-12,3.32-15,9.96Z"/>
        <path class="cls-9" d="m407.57,312.79v9.96c2.27-3.98,4.48-6.87,6.65-8.64,2.17-1.78,4.99-2.67,8.47-2.67.98,0,2.38.23,4.22.7l-3.11,10.2c-1.95-.39-3.24-.59-3.87-.59-3.44,0-6.32,1.2-8.64,3.6-2.33,2.4-3.49,5.4-3.49,9v26.78h-10.2v-48.35h9.96Z"/>
      </g>
      <g>
        <path class="cls-6" d="m53.77,294.8l-8.26,6.62c-2.18-2.27-4.16-3.96-5.94-5.07-1.77-1.11-4.34-1.67-7.69-1.67-3.66,0-6.64.83-8.92,2.48-2.28,1.66-3.42,3.79-3.42,6.4,0,2.26,1,4.26,2.99,5.99,1.99,1.73,5.39,3.63,10.18,5.69,4.8,2.06,8.53,3.98,11.2,5.76,2.67,1.78,4.87,3.74,6.58,5.88,1.72,2.15,2.99,4.41,3.83,6.79.84,2.38,1.26,4.9,1.26,7.55,0,6.21-2.26,11.5-6.77,15.87-4.51,4.37-9.97,6.56-16.38,6.56s-11.77-1.71-16.56-5.13c-4.79-3.42-8.47-8.55-11.05-15.38l10.2-2.87c3.71,8.4,9.4,12.6,17.05,12.6,3.71,0,6.8-1.11,9.26-3.33,2.46-2.22,3.69-5.02,3.69-8.41,0-2.03-.65-4.06-1.94-6.11-1.29-2.04-2.89-3.73-4.81-5.05-1.92-1.32-4.97-2.84-9.15-4.56-4.18-1.71-7.4-3.28-9.65-4.71-2.25-1.42-4.21-3.12-5.85-5.1s-2.85-3.93-3.62-5.88-1.15-4.04-1.15-6.27c0-5.35,2.15-9.91,6.45-13.67,4.3-3.77,9.51-5.65,15.65-5.65,4.06,0,8.18.88,12.37,2.64,4.18,1.76,7.66,4.44,10.43,8.03Z"/>
        <path class="cls-6" d="m103.46,346.38v11.66c-5.2,2.97-10.24,4.45-15.12,4.45-6.68,0-12.53-2.51-17.55-7.53-5.02-5.02-7.53-10.83-7.53-17.44,0-7.5,2.5-13.72,7.5-18.67,5-4.94,11.27-7.41,18.81-7.41,4.49,0,9.12,1.17,13.89,3.52v11.37c-5.12-3.28-9.96-4.92-14.53-4.92-4.22,0-7.91,1.49-11.08,4.45-3.17,2.97-4.75,6.45-4.75,10.43,0,4.49,1.48,8.27,4.45,11.34,2.97,3.07,6.6,4.6,10.9,4.6s9.38-1.95,15-5.86Z"/>
        <path class="cls-6" d="m111.49,296.91c0-2.11.78-3.94,2.34-5.48,1.56-1.54,3.42-2.31,5.57-2.31s3.94.77,5.48,2.31c1.54,1.54,2.31,3.37,2.31,5.48s-.77,3.98-2.31,5.51c-1.54,1.52-3.37,2.29-5.48,2.29s-4.01-.76-5.57-2.29c-1.56-1.52-2.34-3.36-2.34-5.51Zm2.87,15.88h10.08v48.35h-10.08v-48.35Z"/>
        <path class="cls-6" d="m139.86,286.48h41.38v10.2h-31.3v18.64h31.3v10.08h-31.18v35.75h-10.2v-74.67Z"/>
        <path class="cls-6" d="m193.66,285.07h10.2v76.07h-10.2v-76.07Z"/>
        <path class="cls-6" d="m216.81,312.79h10.2v27.25c0,8.4,3.69,12.6,11.08,12.6,3.28,0,5.88-1.12,7.79-3.37,1.91-2.25,2.87-5.32,2.87-9.23v-27.25h10.08v28.89c0,6.06-1.97,11.04-5.92,14.94-3.95,3.91-8.99,5.86-15.12,5.86s-11.31-1.95-15.18-5.86c-3.87-3.91-5.8-9-5.8-15.3v-28.54Z"/>
        <path class="cls-6" d="m274.42,298.73h10.2v14.07h10.08v9.32h-10.08v39.03h-10.2v-39.03h-8.03v-9.44h8.03v-13.95Z"/>
        <path class="cls-6" d="m306.95,298.73h10.2v14.07h10.08v9.32h-10.08v39.03h-10.2v-39.03h-8.03v-9.44h8.03v-13.95Z"/>
        <path class="cls-6" d="m384.48,338.93h-41.26c.9,4.96,2.94,8.59,6.12,10.87,3.18,2.29,6.65,3.43,10.4,3.43,5.78,0,10.63-2.4,14.53-7.21l7.44,5.63c-5.59,7.23-13.07,10.84-22.45,10.84-7.19,0-13.21-2.46-18.05-7.38-4.85-4.92-7.27-11.04-7.27-18.34,0-6.84,2.45-12.77,7.36-17.79,4.9-5.02,10.89-7.53,17.96-7.53s12.91,2.55,17.88,7.65c4.96,5.1,7.4,11.71,7.33,19.84Zm-40.2-8.15h29.54c-3.28-6.64-8.13-9.96-14.53-9.96-6.99,0-12,3.32-15,9.96Z"/>
        <path class="cls-6" d="m407.57,312.79v9.96c2.27-3.99,4.48-6.87,6.65-8.64,2.17-1.78,4.99-2.67,8.47-2.67.98,0,2.38.23,4.22.7l-3.11,10.2c-1.95-.39-3.24-.59-3.87-.59-3.44,0-6.32,1.2-8.64,3.6-2.33,2.4-3.49,5.4-3.49,9v26.78h-10.2v-48.35h9.96Z"/>
      </g>
    </g>
    <g>
      <path class="cls-3" d="m78.42,371.41h3.26c2.69,0,4.55,1.88,4.55,4.82s-1.82,4.99-4.57,4.99h-3.25v-9.8Zm.79,9.08h2.35c2.58,0,3.84-1.81,3.84-4.22,0-2.14-1.14-4.14-3.84-4.14h-2.35v8.36Z"/>
      <path class="cls-3" d="m88.42,377.8c.01,1.79.91,2.9,2.25,2.9s1.75-.73,2-1.31h.74c-.29.92-1.04,1.98-2.77,1.98-2.13,0-2.97-1.83-2.97-3.62,0-2.01,1-3.73,3.05-3.73,2.16,0,2.85,1.86,2.85,3.19,0,.2,0,.39-.01.58h-5.15Zm4.4-.63c-.01-1.38-.76-2.46-2.13-2.46-1.43,0-2.08,1-2.24,2.46h4.36Z"/>
      <path class="cls-3" d="m95.55,379.28c.24.9.88,1.44,1.98,1.44,1.24,0,1.73-.57,1.73-1.34s-.34-1.18-1.89-1.55c-1.82-.44-2.27-.99-2.27-1.91s.73-1.87,2.32-1.87,2.35.97,2.46,1.97h-.73c-.12-.58-.58-1.31-1.77-1.31s-1.55.6-1.55,1.15c0,.64.33.96,1.72,1.29,1.98.48,2.47,1.13,2.47,2.18,0,1.27-1.03,2.06-2.52,2.06-1.61,0-2.51-.84-2.7-2.11h.74Z"/>
      <path class="cls-3" d="m107.01,379.15c-.33,1.23-1.15,2.23-2.73,2.23-1.76,0-3.01-1.31-3.01-3.64,0-1.92,1.03-3.7,3.09-3.7,1.79,0,2.52,1.27,2.65,2.25h-.74c-.21-.81-.74-1.57-1.92-1.57-1.47,0-2.31,1.25-2.31,2.99s.78,3,2.24,3c1.02,0,1.63-.52,1.99-1.56h.74Z"/>
      <path class="cls-3" d="m113.88,379.17c0,.69.01,1.77.01,2.05h-.7c-.03-.18-.04-.64-.04-1.21-.3.82-1.01,1.38-2.25,1.38-1.02,0-2.3-.4-2.3-2.54v-4.64h.71v4.46c0,1.02.32,2,1.7,2,1.55,0,2.14-.87,2.14-2.86v-3.61h.73v4.96Z"/>
      <path class="cls-3" d="m116.23,370.9h.73v4.48c.34-.7,1.02-1.33,2.39-1.33,1.66,0,2.87,1.36,2.87,3.52s-1.09,3.83-3.06,3.83c-1.17,0-1.84-.47-2.21-1.27,0,.44-.01.9-.03,1.1h-.71c.01-.8.01-1.6.01-2.39v-7.93Zm5.22,6.68c0-1.74-.86-2.85-2.18-2.85-1.74,0-2.35,1.18-2.35,3.01,0,1.64.54,2.98,2.27,2.98,1.41,0,2.27-1.17,2.27-3.13Z"/>
      <path class="cls-3" d="m124.02,376.11c0-1.17-.01-1.67-.01-1.91h.71c.01.22.03.68.03,1.56.4-1.05,1.3-1.68,2.44-1.73v.78c-1.46.09-2.44,1.09-2.44,2.76v3.63h-.73v-5.1Z"/>
      <path class="cls-3" d="m128.73,377.8c.01,1.79.91,2.9,2.25,2.9s1.75-.73,2-1.31h.74c-.29.92-1.04,1.98-2.77,1.98-2.13,0-2.97-1.83-2.97-3.62,0-2.01,1-3.73,3.05-3.73,2.16,0,2.85,1.86,2.85,3.19,0,.2,0,.39-.01.58h-5.15Zm4.4-.63c-.01-1.38-.76-2.46-2.13-2.46-1.43,0-2.08,1-2.24,2.46h4.36Z"/>
      <path class="cls-3" d="m139.36,381.22v-10.32h.73v10.32h-.73Z"/>
      <path class="cls-3" d="m147.17,379.87c0,.62.06,1.12.1,1.34h-.7c-.06-.17-.1-.48-.13-1.07-.24.52-.85,1.24-2.29,1.24-1.63,0-2.33-1.05-2.33-2.1,0-1.54,1.19-2.25,3.3-2.25h1.32v-.71c0-.7-.21-1.62-1.79-1.62-1.4,0-1.61.73-1.77,1.31h-.73c.08-.78.57-1.97,2.51-1.97,1.6,0,2.5.67,2.5,2.22v3.62Zm-.71-2.22h-1.36c-1.55,0-2.5.41-2.5,1.6,0,.88.62,1.47,1.6,1.47,1.99,0,2.26-1.32,2.26-2.82v-.25Z"/>
      <path class="cls-3" d="m158.43,379.15c-.33,1.23-1.15,2.23-2.73,2.23-1.76,0-3.01-1.31-3.01-3.64,0-1.92,1.03-3.7,3.09-3.7,1.79,0,2.52,1.27,2.65,2.25h-.74c-.21-.81-.74-1.57-1.92-1.57-1.47,0-2.31,1.25-2.31,2.99s.78,3,2.24,3c1.02,0,1.63-.52,1.99-1.56h.74Z"/>
      <path class="cls-3" d="m160.29,370.9h.73v1.37h-.73v-1.37Zm0,3.31h.73v7.01h-.73v-7.01Z"/>
      <path class="cls-3" d="m163.56,377.8c.01,1.79.91,2.9,2.25,2.9s1.75-.73,2-1.31h.74c-.29.92-1.04,1.98-2.77,1.98-2.13,0-2.97-1.83-2.97-3.62,0-2.01,1-3.73,3.05-3.73,2.16,0,2.85,1.86,2.85,3.19,0,.2,0,.39-.01.58h-5.15Zm4.4-.63c-.01-1.38-.76-2.46-2.13-2.46-1.43,0-2.08,1-2.24,2.46h4.36Z"/>
      <path class="cls-3" d="m170.48,375.97c0-.62,0-1.21-.01-1.77h.71c.03.22.04,1.12.03,1.32.31-.71.88-1.49,2.32-1.49,1.25,0,2.35.71,2.35,2.64v4.54h-.73v-4.43c0-1.24-.51-2.04-1.72-2.04-1.65,0-2.22,1.37-2.22,2.89v3.58h-.73v-5.24Z"/>
      <path class="cls-3" d="m183.42,379.15c-.33,1.23-1.15,2.23-2.73,2.23-1.76,0-3.01-1.31-3.01-3.64,0-1.92,1.03-3.7,3.09-3.7,1.79,0,2.52,1.27,2.64,2.25h-.74c-.21-.81-.74-1.57-1.92-1.57-1.47,0-2.31,1.25-2.31,2.99s.78,3,2.24,3c1.02,0,1.63-.52,1.99-1.56h.74Z"/>
      <path class="cls-3" d="m185.28,370.9h.73v1.37h-.73v-1.37Zm0,3.31h.73v7.01h-.73v-7.01Z"/>
      <path class="cls-3" d="m193.09,379.87c0,.62.06,1.12.1,1.34h-.7c-.06-.17-.1-.48-.13-1.07-.24.52-.85,1.24-2.29,1.24-1.63,0-2.33-1.05-2.33-2.1,0-1.54,1.19-2.25,3.29-2.25h1.32v-.71c0-.7-.21-1.62-1.79-1.62-1.4,0-1.61.73-1.76,1.31h-.73c.08-.78.57-1.97,2.51-1.97,1.6,0,2.5.67,2.5,2.22v3.62Zm-.71-2.22h-1.36c-1.55,0-2.5.41-2.5,1.6,0,.88.62,1.47,1.6,1.47,1.99,0,2.26-1.32,2.26-2.82v-.25Z"/>
      <path class="cls-3" d="m199.17,375.97c0-.62,0-1.21-.01-1.77h.71c.03.22.04,1.12.03,1.32.31-.71.88-1.49,2.32-1.49,1.25,0,2.35.71,2.35,2.64v4.54h-.73v-4.43c0-1.24-.51-2.04-1.72-2.04-1.65,0-2.22,1.37-2.22,2.89v3.58h-.73v-5.24Z"/>
      <path class="cls-3" d="m211.67,379.87c0,.62.06,1.12.1,1.34h-.7c-.06-.17-.1-.48-.13-1.07-.24.52-.85,1.24-2.29,1.24-1.63,0-2.33-1.05-2.33-2.1,0-1.54,1.19-2.25,3.29-2.25h1.32v-.71c0-.7-.21-1.62-1.79-1.62-1.4,0-1.61.73-1.76,1.31h-.73c.08-.78.57-1.97,2.51-1.97,1.6,0,2.5.67,2.5,2.22v3.62Zm-.71-2.22h-1.36c-1.55,0-2.5.41-2.5,1.6,0,.88.62,1.47,1.6,1.47,1.99,0,2.26-1.32,2.26-2.82v-.25Z"/>
      <path class="cls-3" d="m213.69,374.21c1.12,3.19,1.91,5.38,2.17,6.27h.01c.16-.53.94-2.62,2.28-6.27h.77l-2.65,7.01h-.87l-2.49-7.01h.77Z"/>
      <path class="cls-3" d="m220.54,377.8c.01,1.79.91,2.9,2.25,2.9s1.75-.73,2-1.31h.74c-.29.92-1.04,1.98-2.77,1.98-2.13,0-2.97-1.83-2.97-3.62,0-2.01,1-3.73,3.05-3.73,2.16,0,2.85,1.86,2.85,3.19,0,.2,0,.39-.01.58h-5.15Zm4.4-.63c-.01-1.38-.76-2.46-2.12-2.46-1.43,0-2.08,1-2.24,2.46h4.36Z"/>
      <path class="cls-3" d="m232.99,380.73c0,2.24-.99,3.43-3.04,3.43-1.84,0-2.59-1.03-2.76-2.09h.74c.25.96,1.04,1.42,2.04,1.42,1.81,0,2.31-1.17,2.31-2.94v-.72c-.38.9-1.06,1.39-2.33,1.39-1.65,0-2.9-1.34-2.9-3.5,0-2.35,1.35-3.67,3-3.67,1.42,0,2.04.67,2.23,1.23.01-.4.03-.89.04-1.06h.69c0,.26-.03,1.36-.03,2.03v4.49Zm-5.16-3.05c0,1.66.88,2.85,2.21,2.85,1.74,0,2.27-1.16,2.27-2.96s-.55-2.85-2.22-2.85-2.25,1.37-2.25,2.96Z"/>
      <path class="cls-3" d="m240.05,379.87c0,.62.06,1.12.1,1.34h-.7c-.06-.17-.1-.48-.13-1.07-.24.52-.85,1.24-2.29,1.24-1.63,0-2.33-1.05-2.33-2.1,0-1.54,1.19-2.25,3.29-2.25h1.32v-.71c0-.7-.21-1.62-1.79-1.62-1.4,0-1.61.73-1.76,1.31h-.73c.08-.78.57-1.97,2.51-1.97,1.6,0,2.5.67,2.5,2.22v3.62Zm-.71-2.22h-1.36c-1.55,0-2.5.41-2.5,1.6,0,.88.62,1.47,1.6,1.47,1.99,0,2.26-1.32,2.26-2.82v-.25Z"/>
      <path class="cls-3" d="m242.41,375.97c0-.62,0-1.21-.01-1.77h.71c.03.22.04,1.12.03,1.32.31-.71.88-1.49,2.32-1.49,1.25,0,2.35.71,2.35,2.64v4.54h-.73v-4.43c0-1.24-.51-2.04-1.72-2.04-1.65,0-2.22,1.37-2.22,2.89v3.58h-.73v-5.24Z"/>
      <path class="cls-3" d="m255.6,370.9v8.3c0,.67,0,1.32.01,2.02h-.7c-.03-.17-.04-.82-.04-1.17-.35.85-1.13,1.34-2.35,1.34-1.82,0-2.92-1.48-2.92-3.59s1.19-3.76,3.1-3.76c1.39,0,1.95.6,2.16,1.04v-4.19h.73Zm-5.22,6.87c0,1.91.98,2.94,2.18,2.94,1.84,0,2.34-1.27,2.34-3.16s-.43-2.83-2.21-2.83c-1.38,0-2.31,1.1-2.31,3.05Z"/>
      <path class="cls-3" d="m263.65,377.7c0,1.95-1.08,3.69-3.18,3.69-1.9,0-3.08-1.56-3.08-3.67s1.11-3.67,3.15-3.67c1.87,0,3.11,1.46,3.11,3.66Zm-5.48.01c0,1.66.89,3,2.36,3s2.35-1.24,2.35-2.99c0-1.65-.83-3-2.38-3s-2.34,1.32-2.34,2.99Z"/>
      <path class="cls-3" d="m274.85,377.7c0,1.95-1.08,3.69-3.18,3.69-1.9,0-3.08-1.56-3.08-3.67s1.11-3.67,3.15-3.67c1.87,0,3.11,1.46,3.11,3.66Zm-5.48.01c0,1.66.89,3,2.36,3s2.35-1.24,2.35-2.99c0-1.65-.83-3-2.38-3s-2.34,1.32-2.34,2.99Z"/>
      <path class="cls-3" d="m285.53,379.15c-.33,1.23-1.15,2.23-2.73,2.23-1.76,0-3.01-1.31-3.01-3.64,0-1.92,1.03-3.7,3.09-3.7,1.79,0,2.52,1.27,2.64,2.25h-.74c-.21-.81-.74-1.57-1.92-1.57-1.47,0-2.31,1.25-2.31,2.99s.78,3,2.24,3c1.02,0,1.63-.52,1.99-1.56h.74Z"/>
      <path class="cls-3" d="m292.98,377.7c0,1.95-1.08,3.69-3.18,3.69-1.9,0-3.08-1.56-3.08-3.67s1.11-3.67,3.15-3.67c1.87,0,3.11,1.46,3.11,3.66Zm-5.48.01c0,1.66.89,3,2.36,3s2.35-1.24,2.35-2.99c0-1.65-.83-3-2.38-3s-2.34,1.32-2.34,2.99Z"/>
      <path class="cls-3" d="m294.77,381.22v-10.32h.73v10.32h-.73Z"/>
      <path class="cls-3" d="m302.58,379.87c0,.62.06,1.12.1,1.34h-.7c-.06-.17-.1-.48-.13-1.07-.24.52-.85,1.24-2.29,1.24-1.63,0-2.33-1.05-2.33-2.1,0-1.54,1.19-2.25,3.29-2.25h1.32v-.71c0-.7-.21-1.62-1.79-1.62-1.4,0-1.61.73-1.76,1.31h-.73c.08-.78.57-1.97,2.51-1.97,1.6,0,2.5.67,2.5,2.22v3.62Zm-.71-2.22h-1.36c-1.55,0-2.5.41-2.5,1.6,0,.88.62,1.47,1.6,1.47,1.99,0,2.26-1.32,2.26-2.82v-.25Z"/>
      <path class="cls-3" d="m304.95,370.9h.73v4.48c.33-.7,1.02-1.33,2.39-1.33,1.66,0,2.87,1.36,2.87,3.52s-1.09,3.83-3.06,3.83c-1.17,0-1.84-.47-2.21-1.27,0,.44-.01.9-.03,1.1h-.71c.01-.8.01-1.6.01-2.39v-7.93Zm5.22,6.68c0-1.74-.86-2.85-2.18-2.85-1.74,0-2.35,1.18-2.35,3.01,0,1.64.54,2.98,2.27,2.98,1.41,0,2.27-1.17,2.27-3.13Z"/>
      <path class="cls-3" d="m318.51,377.7c0,1.95-1.08,3.69-3.18,3.69-1.9,0-3.08-1.56-3.08-3.67s1.11-3.67,3.15-3.67c1.87,0,3.11,1.46,3.11,3.66Zm-5.48.01c0,1.66.89,3,2.36,3s2.35-1.24,2.35-2.99c0-1.65-.83-3-2.38-3s-2.34,1.32-2.34,2.99Z"/>
      <path class="cls-3" d="m320.31,376.11c0-1.17-.01-1.67-.01-1.91h.71c.01.22.03.68.03,1.56.4-1.05,1.3-1.68,2.43-1.73v.78c-1.46.09-2.43,1.09-2.43,2.76v3.63h-.73v-5.1Z"/>
      <path class="cls-3" d="m329.53,379.87c0,.62.06,1.12.1,1.34h-.7c-.06-.17-.1-.48-.13-1.07-.24.52-.85,1.24-2.29,1.24-1.63,0-2.33-1.05-2.33-2.1,0-1.54,1.19-2.25,3.29-2.25h1.32v-.71c0-.7-.21-1.62-1.79-1.62-1.4,0-1.61.73-1.76,1.31h-.73c.08-.78.57-1.97,2.51-1.97,1.6,0,2.5.67,2.5,2.22v3.62Zm-.71-2.22h-1.36c-1.55,0-2.5.41-2.5,1.6,0,.88.62,1.47,1.6,1.47,1.99,0,2.26-1.32,2.26-2.82v-.25Z"/>
      <path class="cls-3" d="m331.9,375.97c0-.62,0-1.21-.01-1.77h.71c.03.22.04,1.12.03,1.32.31-.71.88-1.49,2.32-1.49,1.25,0,2.35.71,2.35,2.64v4.54h-.73v-4.43c0-1.24-.51-2.04-1.72-2.04-1.65,0-2.22,1.37-2.22,2.89v3.58h-.73v-5.24Z"/>
      <path class="cls-3" d="m345.09,370.9v8.3c0,.67,0,1.32.01,2.02h-.7c-.03-.17-.04-.82-.04-1.17-.35.85-1.13,1.34-2.35,1.34-1.82,0-2.92-1.48-2.92-3.59s1.19-3.76,3.1-3.76c1.39,0,1.95.6,2.16,1.04v-4.19h.73Zm-5.22,6.87c0,1.91.98,2.94,2.18,2.94,1.84,0,2.34-1.27,2.34-3.16s-.43-2.83-2.21-2.83c-1.38,0-2.31,1.1-2.31,3.05Z"/>
      <path class="cls-3" d="m353.13,377.7c0,1.95-1.08,3.69-3.18,3.69-1.9,0-3.08-1.56-3.08-3.67s1.11-3.67,3.15-3.67c1.87,0,3.11,1.46,3.11,3.66Zm-5.48.01c0,1.66.89,3,2.36,3s2.35-1.24,2.35-2.99c0-1.65-.83-3-2.38-3s-2.34,1.32-2.34,2.99Z"/>
      <path class="cls-3" d="m354.51,381.22v-1.82h.73v1.82h-.73Z"/>
    </g>
  </g>
  <g id="Negro">
    <g>
      <polygon class="cls-3" points="371.12 158.79 360.81 123.73 341.07 117.35 341.07 117.35 329.16 113.49 265.19 127.91 216.63 151.49 280.05 127.26 281.13 127.13 321.42 131.95 322.5 132.38 345.13 149.01 346.04 151.2 342.48 174.49 342.11 175.43 313.77 216.93 313.12 217.56 294.95 229.31 294.1 244.58 293.8 245.59 283.03 264.44 280.38 278.2 279.97 279.12 268.08 295.13 267.01 295.93 253.26 300.74 266.44 305.72 291.29 299.2 312.65 262.78 313.07 241.24 314.12 239.36 327.28 230.87 347.95 206.41 350.44 193.54 351.4 192.09 362.9 184.28 371.12 158.79"/>
      <polygon class="cls-3" points="217.02 106.06 206.2 94.12 195.82 81.2 195.41 80.41 191.21 66.02 187.76 56.95 187.61 56.17 187.24 25.56 175.42 5.14 157.43 0 135.63 0 119.56 10.99 88.89 57.98 79.55 104.4 76.5 151.4 79.37 163.6 80.6 150.02 80.7 149.51 95.74 103.67 96.33 102.73 113.26 86.48 114.23 85.92 133.81 80.52 148.34 71.57 149.13 71.27 165.01 68.37 166.23 68.48 178.66 73.21 179.91 74.36 188.04 91.52 197.27 104.16 208.88 111.24 211.15 109.21 211.91 108.76 215.03 107.65 217.02 106.06"/>
      <polygon class="cls-3" points="430.08 21.27 422.9 4.98 386.77 9.61 290 59.27 249.85 85.41 227.91 103.48 255.45 93.48 256.21 93.34 279.61 93.34 317.63 81.26 318.93 81.25 338.11 86.87 339.45 87.94 345.75 98.98 346.04 100.47 344.29 114.15 362.34 120.14 370.34 114.91 378.75 92.04 379.3 91.18 420.57 50.15 430.08 21.27"/>
      <polygon class="cls-3" points="89.45 264.83 94.21 256.6 94.66 248.49 88.38 235.46 84.42 233.76 64.24 237.21 60 247.51 61.43 252.83 79.1 271.24 85.93 271.24 89.49 264.95 89.45 264.83"/>
      <polygon class="cls-3" points="147.79 266.67 142.82 262.21 142.09 260.15 145.19 240.56 141.12 229.61 130.24 220.39 124.46 218.79 123.57 218.3 115.92 211.6 115.14 209.8 115.33 205.01 91.57 209.48 83.57 214.39 68.87 231.94 84.32 229.3 85.6 229.45 90.97 231.75 92.12 232.86 99.03 247.19 99.25 248.31 98.73 257.55 98.43 258.56 94.85 264.76 126.47 274.02 147.79 266.67"/>
    </g>
    <polyline class="cls-8" points="66.04 239.52 50.34 231.71 .38 264.11 .38 266.85"/>
    <polyline class="cls-8" points="81.62 237.77 66.35 232.81 30.03 282.91 30.03 287.72"/>
  </g>
  <g id="Anaranjado">
    <g>
      <polygon class="cls-11" points="166.78 170.59 167.3 170.31 167.31 170.31 167.31 170.31 167.31 170.31 189.62 161.66 207.46 149.96 221.81 133.93 247.38 111.1 247.79 110.81 271.18 97.74 256.6 97.74 213.68 112.93 142.52 176.76 119.94 203.01 119.5 208.48 123.98 212.29 126.18 205.27 126.69 204.39 140.72 189.49 166.78 170.59"/>
      <polygon class="cls-1" points="281.15 131.73 169.22 174.62 143.57 193.21 130.38 207.28 127.96 215.02 131.95 216.13 132.81 216.59 144.53 226.51 145.2 227.49 146.57 231.31 197.36 210.83 197.92 210.69 223.97 207.28 242.49 194.88 275.37 180.27 275.76 180.14 313.2 171.01 313.82 170.95 338.27 171.79 341.31 151.87 320.28 136.41 281.15 131.73"/>
      <polygon class="cls-10" points="277.04 184.53 244.53 198.98 234.15 205.95 240.95 205.05 241.81 205.11 281.88 215.31 282.87 215.84 292.98 225.14 310.26 213.97 336 176.28 313.97 175.52 277.04 184.53"/>
      <polygon class="cls-5" points="240.33 209.25 198.13 215.53 147.8 236.85 149.4 241.09 149.53 242.21 146.84 261.3 156.88 269.54 173.95 272.3 200.01 280.76 239.91 298.01 246.96 297.88 265.49 291.03 276.38 275.81 278.77 262.15 279.02 261.45 289.38 242.56 289.95 227.72 279.59 218.52 240.33 209.25"/>
      <polygon class="cls-7" points="205.15 114.6 194.33 108 193.67 107.4 183.83 93.84 176 77.32 165.03 73.15 150.19 75.86 136.49 84.3 109.58 172.84 104.52 202.4 116.51 200.14 139.36 173.61 205.15 114.6"/>
      <polygon class="cls-2" points="131.26 85.82 115.84 90.33 99.72 105.81 84.95 150.86 81.31 191 87.66 206.53 89.55 205.37 90.32 205.07 99.73 203.3 105.17 171.65 131.26 85.82"/>
      <polygon class="cls-4" points="224.95 137.4 217.09 146.19 263.43 123.69 263.92 123.51 328.76 108.9 329.97 108.96 339.87 112.16 341.41 100.44 335.98 91.16 318.33 86.11 280.85 97.71 250.23 114.83 224.95 137.4"/>
    </g>
  </g>
</svg>