<svg width="430.08" height="384.16" xmlns="http://www.w3.org/2000/svg" data-name="Capa 2">
 <defs>
  <radialGradient gradientUnits="userSpaceOnUse" r="210.91" fy="330.47" fx="213.46" cy="330.47" cx="213.46" data-name="Degradado sin nombre 82" id="Degradado_sin_nombre_82">
   <stop stop-color="#eb7b26" offset="0"/>
   <stop stop-color="#eb7b26" offset="0.21"/>
   <stop stop-color="#bb611c" offset="0.31"/>
   <stop stop-color="#7f4211" offset="0.45"/>
   <stop stop-color="#5a2e09" offset="0.55"/>
   <stop stop-color="#4c2707" offset="0.61"/>
   <stop stop-color="#1b1209" offset="1"/>
  </radialGradient>
  <linearGradient y2="0.8419" x2="-0.03718" y1="0.29367" x1="0.68374" data-name="Degradado sin nombre 37" id="Degradado_sin_nombre_37">
   <stop stop-color="#eb7b26" offset="0.07"/>
   <stop stop-color="#d36e20" offset="0.32"/>
   <stop stop-color="#984d14" offset="0.84"/>
  </linearGradient>
  <linearGradient y2="0.94135" x2="0.08113" y1="0.23971" x1="0.76077" data-name="Degradado sin nombre 41" id="Degradado_sin_nombre_41">
   <stop stop-color="#eb7b26" offset="0"/>
   <stop stop-color="#d36e20" offset="0.25"/>
   <stop stop-color="#984d14" offset="0.79"/>
  </linearGradient>
  <linearGradient y2="1.5135" x2="-0.73206" y1="0.46937" x1="0.66136" data-name="Degradado sin nombre 42" id="Degradado_sin_nombre_42">
   <stop stop-color="#eb7b26" offset="0.07"/>
   <stop stop-color="#d36e20" offset="0.22"/>
   <stop stop-color="#984d14" offset="0.55"/>
  </linearGradient>
  <linearGradient y2="0.5071" x2="-0.38355" y1="0.49572" x1="1.27426" data-name="Degradado sin nombre 43" id="Degradado_sin_nombre_43">
   <stop stop-color="#eb7b26" offset="0.07"/>
   <stop stop-color="#d36e20" offset="0.26"/>
   <stop stop-color="#984d14" offset="0.66"/>
  </linearGradient>
  <linearGradient y2="1.06785" x2="0.66034" y1="0.00046" x1="0.24039" data-name="Degradado sin nombre 80" id="Degradado_sin_nombre_80">
   <stop stop-color="#eb7b26" offset="0.11"/>
   <stop stop-color="#e77825" offset="0.26"/>
   <stop stop-color="#db7222" offset="0.41"/>
   <stop stop-color="#c8671e" offset="0.55"/>
   <stop stop-color="#ac5818" offset="0.69"/>
   <stop stop-color="#984d14" offset="0.78"/>
  </linearGradient>
  <linearGradient y2="0.90896" x2="1.08088" y1="-0.04457" x1="-0.12533" data-name="Degradado sin nombre 78" id="Degradado_sin_nombre_78">
   <stop stop-color="#eb7b26" offset="0.07"/>
   <stop stop-color="#e87925" offset="0.38"/>
   <stop stop-color="#e07523" offset="0.53"/>
   <stop stop-color="#d36d20" offset="0.66"/>
   <stop stop-color="#c0631c" offset="0.76"/>
   <stop stop-color="#a85517" offset="0.86"/>
   <stop stop-color="#9f5015" offset="0.89"/>
  </linearGradient>
  <linearGradient y2="2.00632" x2="-0.72281" y1="1.00383" x1="0.14953" data-name="Degradado sin nombre 38" id="Degradado_sin_nombre_38">
   <stop stop-color="#eb7b26" offset="0.07"/>
   <stop stop-color="#d36e20" offset="0.22"/>
   <stop stop-color="#984d14" offset="0.55"/>
  </linearGradient>
 </defs>
 <g>
  <title>Layer 1</title>
  <g id="svg_1">
   <g id="svg_2">
    <path id="svg_3" fill="none" d="m53.77,294.8l-8.26,6.62c-2.18,-2.27 -4.16,-3.96 -5.94,-5.07c-1.77,-1.11 -4.34,-1.67 -7.69,-1.67c-3.66,0 -6.64,0.83 -8.92,2.48s-3.42,3.79 -3.42,6.4c0,2.26 1,4.26 2.99,5.99c1.99,1.73 5.39,3.63 10.18,5.69c4.8,2.06 8.53,3.98 11.2,5.76c2.67,1.78 4.86,3.74 6.58,5.89c1.72,2.15 2.99,4.41 3.83,6.79c0.84,2.38 1.26,4.9 1.26,7.55c0,6.21 -2.26,11.5 -6.77,15.87c-4.51,4.37 -9.97,6.56 -16.38,6.56s-11.77,-1.71 -16.56,-5.13c-4.79,-3.42 -8.47,-8.55 -11.05,-15.38l10.2,-2.87c3.71,8.4 9.4,12.6 17.05,12.6c3.71,0 6.8,-1.11 9.26,-3.33c2.46,-2.22 3.69,-5.02 3.69,-8.41c0,-2.02 -0.65,-4.06 -1.94,-6.11c-1.29,-2.05 -2.9,-3.73 -4.81,-5.05c-1.92,-1.32 -4.96,-2.85 -9.15,-4.56c-4.18,-1.71 -7.4,-3.28 -9.65,-4.71c-2.25,-1.42 -4.21,-3.12 -5.85,-5.09c-1.65,-1.97 -2.85,-3.93 -3.62,-5.89s-1.15,-4.04 -1.15,-6.27c0,-5.35 2.15,-9.91 6.45,-13.67c4.3,-3.77 9.51,-5.65 15.65,-5.65c4.06,0 8.18,0.88 12.37,2.64c4.18,1.76 7.66,4.43 10.43,8.03l0.02,-0.01z" class="cls-9"/>
    <path id="svg_4" fill="none" d="m103.46,346.38l0,11.66c-5.2,2.97 -10.24,4.45 -15.12,4.45c-6.68,0 -12.53,-2.51 -17.55,-7.53c-5.02,-5.02 -7.53,-10.83 -7.53,-17.44c0,-7.5 2.5,-13.72 7.5,-18.67c5,-4.94 11.27,-7.41 18.81,-7.41c4.49,0 9.12,1.17 13.89,3.52l0,11.37c-5.12,-3.28 -9.96,-4.92 -14.53,-4.92c-4.22,0 -7.91,1.48 -11.08,4.45c-3.16,2.97 -4.75,6.45 -4.75,10.43c0,4.49 1.48,8.27 4.45,11.34c2.97,3.07 6.6,4.6 10.9,4.6s9.38,-1.95 15,-5.86l0.01,0.01z" class="cls-9"/>
    <path id="svg_5" fill="none" d="m111.49,296.91c0,-2.11 0.78,-3.94 2.34,-5.48c1.56,-1.54 3.42,-2.31 5.57,-2.31s3.94,0.77 5.48,2.31c1.54,1.54 2.32,3.37 2.32,5.48s-0.77,3.99 -2.32,5.51c-1.54,1.52 -3.37,2.29 -5.48,2.29s-4.01,-0.76 -5.57,-2.29c-1.56,-1.52 -2.34,-3.36 -2.34,-5.51zm2.87,15.88l10.08,0l0,48.35l-10.08,0l0,-48.35z" class="cls-9"/>
    <path id="svg_6" fill="none" d="m139.86,286.48l41.38,0l0,10.2l-31.3,0l0,18.64l31.3,0l0,10.08l-31.18,0l0,35.75l-10.2,0l0,-74.67z" class="cls-9"/>
    <path id="svg_7" fill="none" d="m193.66,285.07l10.2,0l0,76.07l-10.2,0l0,-76.07z" class="cls-9"/>
    <path id="svg_8" fill="none" d="m216.81,312.79l10.2,0l0,27.25c0,8.4 3.69,12.6 11.08,12.6c3.28,0 5.88,-1.12 7.79,-3.37c1.91,-2.25 2.87,-5.32 2.87,-9.23l0,-27.25l10.08,0l0,28.89c0,6.06 -1.97,11.04 -5.92,14.94c-3.95,3.91 -8.99,5.86 -15.12,5.86s-11.31,-1.95 -15.18,-5.86c-3.87,-3.91 -5.8,-9.01 -5.8,-15.3l0,-28.54l0,0.01z" class="cls-9"/>
    <path id="svg_9" fill="none" d="m274.42,298.73l10.2,0l0,14.07l10.08,0l0,9.32l-10.08,0l0,39.03l-10.2,0l0,-39.03l-8.03,0l0,-9.44l8.03,0l0,-13.95z" class="cls-9"/>
    <path id="svg_10" fill="none" d="m306.95,298.73l10.2,0l0,14.07l10.08,0l0,9.32l-10.08,0l0,39.03l-10.2,0l0,-39.03l-8.03,0l0,-9.44l8.03,0l0,-13.95z" class="cls-9"/>
    <path id="svg_11" fill="none" d="m384.48,338.93l-41.26,0c0.9,4.96 2.94,8.59 6.12,10.87s6.65,3.43 10.4,3.43c5.78,0 10.63,-2.4 14.53,-7.21l7.44,5.63c-5.59,7.23 -13.07,10.84 -22.45,10.84c-7.19,0 -13.21,-2.46 -18.05,-7.38c-4.85,-4.92 -7.27,-11.04 -7.27,-18.34c0,-6.84 2.45,-12.77 7.36,-17.79c4.9,-5.02 10.89,-7.53 17.96,-7.53s12.91,2.55 17.87,7.65c4.96,5.1 7.4,11.71 7.33,19.84l0.02,-0.01zm-40.2,-8.15l29.54,0c-3.28,-6.64 -8.13,-9.96 -14.53,-9.96c-6.99,0 -12,3.32 -15,9.96l-0.01,0z" class="cls-9"/>
    <path id="svg_12" fill="none" d="m407.57,312.79l0,9.96c2.27,-3.98 4.48,-6.87 6.65,-8.64c2.17,-1.78 4.99,-2.67 8.47,-2.67c0.98,0 2.38,0.23 4.22,0.7l-3.11,10.2c-1.95,-0.39 -3.24,-0.59 -3.87,-0.59c-3.44,0 -6.32,1.2 -8.64,3.6c-2.33,2.4 -3.49,5.4 -3.49,9l0,26.78l-10.2,0l0,-48.35l9.96,0l0.01,0.01z" class="cls-9"/>
   </g>
   <g id="svg_13">
    <path id="svg_14" fill="url(#Degradado_sin_nombre_82)" d="m53.77,294.8l-8.26,6.62c-2.18,-2.27 -4.16,-3.96 -5.94,-5.07c-1.77,-1.11 -4.34,-1.67 -7.69,-1.67c-3.66,0 -6.64,0.83 -8.92,2.48c-2.28,1.66 -3.42,3.79 -3.42,6.4c0,2.26 1,4.26 2.99,5.99c1.99,1.73 5.39,3.63 10.18,5.69c4.8,2.06 8.53,3.98 11.2,5.76c2.67,1.78 4.87,3.74 6.58,5.88c1.72,2.15 2.99,4.41 3.83,6.79c0.84,2.38 1.26,4.9 1.26,7.55c0,6.21 -2.26,11.5 -6.77,15.87c-4.51,4.37 -9.97,6.56 -16.38,6.56s-11.77,-1.71 -16.56,-5.13c-4.79,-3.42 -8.47,-8.55 -11.05,-15.38l10.2,-2.87c3.71,8.4 9.4,12.6 17.05,12.6c3.71,0 6.8,-1.11 9.26,-3.33c2.46,-2.22 3.69,-5.02 3.69,-8.41c0,-2.03 -0.65,-4.06 -1.94,-6.11c-1.29,-2.04 -2.89,-3.73 -4.81,-5.05c-1.92,-1.32 -4.97,-2.84 -9.15,-4.56c-4.18,-1.71 -7.4,-3.28 -9.65,-4.71c-2.25,-1.42 -4.21,-3.12 -5.85,-5.1s-2.85,-3.93 -3.62,-5.88s-1.15,-4.04 -1.15,-6.27c0,-5.35 2.15,-9.91 6.45,-13.67c4.3,-3.77 9.51,-5.65 15.65,-5.65c4.06,0 8.18,0.88 12.37,2.64c4.18,1.76 7.66,4.44 10.43,8.03l0.02,0z" class="cls-6"/>
    <path id="svg_15" fill="url(#Degradado_sin_nombre_82)" d="m103.46,346.38l0,11.66c-5.2,2.97 -10.24,4.45 -15.12,4.45c-6.68,0 -12.53,-2.51 -17.55,-7.53c-5.02,-5.02 -7.53,-10.83 -7.53,-17.44c0,-7.5 2.5,-13.72 7.5,-18.67c5,-4.94 11.27,-7.41 18.81,-7.41c4.49,0 9.12,1.17 13.89,3.52l0,11.37c-5.12,-3.28 -9.96,-4.92 -14.53,-4.92c-4.22,0 -7.91,1.49 -11.08,4.45c-3.17,2.97 -4.75,6.45 -4.75,10.43c0,4.49 1.48,8.27 4.45,11.34c2.97,3.07 6.6,4.6 10.9,4.6s9.38,-1.95 15,-5.86l0.01,0.01z" class="cls-6"/>
    <path id="svg_16" fill="url(#Degradado_sin_nombre_82)" d="m111.49,296.91c0,-2.11 0.78,-3.94 2.34,-5.48c1.56,-1.54 3.42,-2.31 5.57,-2.31s3.94,0.77 5.48,2.31c1.54,1.54 2.31,3.37 2.31,5.48s-0.77,3.98 -2.31,5.51c-1.54,1.52 -3.37,2.29 -5.48,2.29s-4.01,-0.76 -5.57,-2.29c-1.56,-1.52 -2.34,-3.36 -2.34,-5.51zm2.87,15.88l10.08,0l0,48.35l-10.08,0l0,-48.35z" class="cls-6"/>
    <path id="svg_17" fill="url(#Degradado_sin_nombre_82)" d="m139.86,286.48l41.38,0l0,10.2l-31.3,0l0,18.64l31.3,0l0,10.08l-31.18,0l0,35.75l-10.2,0l0,-74.67z" class="cls-6"/>
    <path id="svg_18" fill="url(#Degradado_sin_nombre_82)" d="m193.66,285.07l10.2,0l0,76.07l-10.2,0l0,-76.07z" class="cls-6"/>
    <path id="svg_19" fill="url(#Degradado_sin_nombre_82)" d="m216.81,312.79l10.2,0l0,27.25c0,8.4 3.69,12.6 11.08,12.6c3.28,0 5.88,-1.12 7.79,-3.37c1.91,-2.25 2.87,-5.32 2.87,-9.23l0,-27.25l10.08,0l0,28.89c0,6.06 -1.97,11.04 -5.92,14.94c-3.95,3.91 -8.99,5.86 -15.12,5.86s-11.31,-1.95 -15.18,-5.86c-3.87,-3.91 -5.8,-9 -5.8,-15.3l0,-28.54l0,0.01z" class="cls-6"/>
    <path id="svg_20" fill="url(#Degradado_sin_nombre_82)" d="m274.42,298.73l10.2,0l0,14.07l10.08,0l0,9.32l-10.08,0l0,39.03l-10.2,0l0,-39.03l-8.03,0l0,-9.44l8.03,0l0,-13.95z" class="cls-6"/>
    <path id="svg_21" fill="url(#Degradado_sin_nombre_82)" d="m306.95,298.73l10.2,0l0,14.07l10.08,0l0,9.32l-10.08,0l0,39.03l-10.2,0l0,-39.03l-8.03,0l0,-9.44l8.03,0l0,-13.95z" class="cls-6"/>
    <path id="svg_22" fill="url(#Degradado_sin_nombre_82)" d="m384.48,338.93l-41.26,0c0.9,4.96 2.94,8.59 6.12,10.87c3.18,2.29 6.65,3.43 10.4,3.43c5.78,0 10.63,-2.4 14.53,-7.21l7.44,5.63c-5.59,7.23 -13.07,10.84 -22.45,10.84c-7.19,0 -13.21,-2.46 -18.05,-7.38c-4.85,-4.92 -7.27,-11.04 -7.27,-18.34c0,-6.84 2.45,-12.77 7.36,-17.79c4.9,-5.02 10.89,-7.53 17.96,-7.53s12.91,2.55 17.88,7.65c4.96,5.1 7.4,11.71 7.33,19.84l0.01,-0.01zm-40.2,-8.15l29.54,0c-3.28,-6.64 -8.13,-9.96 -14.53,-9.96c-6.99,0 -12,3.32 -15,9.96l-0.01,0z" class="cls-6"/>
    <path id="svg_23" fill="url(#Degradado_sin_nombre_82)" d="m407.57,312.79l0,9.96c2.27,-3.99 4.48,-6.87 6.65,-8.64c2.17,-1.78 4.99,-2.67 8.47,-2.67c0.98,0 2.38,0.23 4.22,0.7l-3.11,10.2c-1.95,-0.39 -3.24,-0.59 -3.87,-0.59c-3.44,0 -6.32,1.2 -8.64,3.6c-2.33,2.4 -3.49,5.4 -3.49,9l0,26.78l-10.2,0l0,-48.35l9.96,0l0.01,0.01z" class="cls-6"/>
   </g>
  </g>
  <polyline id="svg_70" fill="none" stroke-width="0.75px" stroke-linejoin="bevel" stroke="#000000" points="66.04 239.52 50.34 231.71 .38 264.11 .38 266.85" class="cls-8"/>
  <polyline id="svg_71" fill="none" stroke-width="0.75px" stroke-linejoin="bevel" stroke="#000000" points="81.62 237.77 66.35 232.81 30.03 282.91 30.03 287.72" class="cls-8"/>
  <g id="Anaranjado">
   <g id="svg_72">
    <polygon id="svg_73" fill="url(#Degradado_sin_nombre_37)" points="166.78 170.59 167.3 170.31 167.31 170.31 167.31 170.31 167.31 170.31 189.62 161.66 207.46 149.96 221.81 133.93 247.38 111.1 247.79 110.81 271.18 97.74 256.6 97.74 213.68 112.93 142.52 176.76 119.94 203.01 119.5 208.48 123.98 212.29 126.18 205.27 126.69 204.39 140.72 189.49 166.78 170.59" class="cls-11"/>
    <polygon id="svg_74" fill="url(#Degradado_sin_nombre_41)" points="281.15 131.73 169.22 174.62 143.57 193.21 130.38 207.28 127.96 215.02 131.95 216.13 132.81 216.59 144.53 226.51 145.2 227.49 146.57 231.31 197.36 210.83 197.92 210.69 223.97 207.28 242.49 194.88 275.37 180.27 275.76 180.14 313.2 171.01 313.82 170.95 338.27 171.79 341.31 151.87 320.28 136.41 281.15 131.73" class="cls-1"/>
    <polygon id="svg_75" fill="url(#Degradado_sin_nombre_42)" points="277.04 184.53 244.53 198.98 234.15 205.95 240.95 205.05 241.81 205.11 281.88 215.31 282.87 215.84 292.98 225.14 310.26 213.97 336 176.28 313.97 175.52 277.04 184.53" class="cls-10"/>
    <polygon id="svg_76" fill="url(#Degradado_sin_nombre_43)" points="240.33 209.25 198.13 215.53 147.8 236.85 149.4 241.09 149.53 242.21 146.84 261.3 156.88 269.54 173.95 272.3 200.01 280.76 239.91 298.01 246.96 297.88 265.49 291.03 276.38 275.81 278.77 262.15 279.02 261.45 289.38 242.56 289.95 227.72 279.59 218.52 240.33 209.25" class="cls-5"/>
    <polygon id="svg_77" fill="url(#Degradado_sin_nombre_80)" points="205.15 114.6 194.33 108 193.67 107.4 183.83 93.84 176 77.32 165.03 73.15 150.19 75.86 136.49 84.3 109.58 172.84 104.52 202.4 116.51 200.14 139.36 173.61 205.15 114.6" class="cls-7"/>
    <polygon id="svg_78" fill="url(#Degradado_sin_nombre_78)" points="131.26 85.82 115.84 90.33 99.72 105.81 84.95 150.86 81.31 191 87.66 206.53 89.55 205.37 90.32 205.07 99.73 203.3 105.17 171.65 131.26 85.82" class="cls-2"/>
    <polygon id="svg_79" fill="url(#Degradado_sin_nombre_38)" points="224.95 137.4 217.09 146.19 263.43 123.69 263.92 123.51 328.76 108.9 329.97 108.96 339.87 112.16 341.41 100.44 335.98 91.16 318.33 86.11 280.85 97.71 250.23 114.83 224.95 137.4" class="cls-4"/>
   </g>
  </g>
  <g id="svg_80">
   <path id="svg_25" fill="#e9851a" d="m78.42,371.41l3.26,0c2.69,0 4.55,1.88 4.55,4.82s-1.82,4.99 -4.57,4.99l-3.25,0l0,-9.8l0.01,-0.01zm0.79,9.08l2.35,0c2.58,0 3.84,-1.81 3.84,-4.22c0,-2.14 -1.14,-4.14 -3.84,-4.14l-2.35,0l0,8.36z" class="cls-3"/>
   <path id="svg_26" fill="#e9851a" d="m88.42,377.8c0.01,1.79 0.91,2.9 2.25,2.9s1.75,-0.73 2,-1.31l0.74,0c-0.29,0.92 -1.04,1.98 -2.77,1.98c-2.13,0 -2.97,-1.83 -2.97,-3.62c0,-2.01 1,-3.73 3.05,-3.73c2.16,0 2.85,1.86 2.85,3.19c0,0.2 0,0.39 -0.01,0.58l-5.15,0l0.01,0.01zm4.4,-0.63c-0.01,-1.38 -0.76,-2.46 -2.13,-2.46c-1.43,0 -2.08,1 -2.24,2.46l4.36,0l0.01,0z" class="cls-3"/>
   <path id="svg_27" fill="#e9851a" d="m95.55,379.28c0.24,0.9 0.88,1.44 1.98,1.44c1.24,0 1.73,-0.57 1.73,-1.34s-0.34,-1.18 -1.89,-1.55c-1.82,-0.44 -2.27,-0.99 -2.27,-1.91s0.73,-1.87 2.32,-1.87s2.35,0.97 2.46,1.97l-0.73,0c-0.12,-0.58 -0.58,-1.31 -1.77,-1.31s-1.55,0.6 -1.55,1.15c0,0.64 0.33,0.96 1.72,1.29c1.98,0.48 2.47,1.13 2.47,2.18c0,1.27 -1.03,2.06 -2.52,2.06c-1.61,0 -2.51,-0.84 -2.7,-2.11l0.74,0l0.01,0z" class="cls-3"/>
   <path id="svg_28" fill="#e9851a" d="m107.01,379.15c-0.33,1.23 -1.15,2.23 -2.73,2.23c-1.76,0 -3.01,-1.31 -3.01,-3.64c0,-1.92 1.03,-3.7 3.09,-3.7c1.79,0 2.52,1.27 2.65,2.25l-0.74,0c-0.21,-0.81 -0.74,-1.57 -1.92,-1.57c-1.47,0 -2.31,1.25 -2.31,2.99s0.78,3 2.24,3c1.02,0 1.63,-0.52 1.99,-1.56l0.74,0z" class="cls-3"/>
   <path id="svg_29" fill="#e9851a" d="m113.88,379.17c0,0.69 0.01,1.77 0.01,2.05l-0.7,0c-0.03,-0.18 -0.04,-0.64 -0.04,-1.21c-0.3,0.82 -1.01,1.38 -2.25,1.38c-1.02,0 -2.3,-0.4 -2.3,-2.54l0,-4.64l0.71,0l0,4.46c0,1.02 0.32,2 1.7,2c1.55,0 2.14,-0.87 2.14,-2.86l0,-3.61l0.73,0l0,4.96l0,0.01z" class="cls-3"/>
   <path id="svg_30" fill="#e9851a" d="m116.23,370.9l0.73,0l0,4.48c0.34,-0.7 1.02,-1.33 2.39,-1.33c1.66,0 2.87,1.36 2.87,3.52s-1.09,3.83 -3.06,3.83c-1.17,0 -1.84,-0.47 -2.21,-1.27c0,0.44 -0.01,0.9 -0.03,1.1l-0.71,0c0.01,-0.8 0.01,-1.6 0.01,-2.39l0,-7.93l0.01,-0.01zm5.22,6.68c0,-1.74 -0.86,-2.85 -2.18,-2.85c-1.74,0 -2.35,1.18 -2.35,3.01c0,1.64 0.54,2.98 2.27,2.98c1.41,0 2.27,-1.17 2.27,-3.13l-0.01,-0.01z" class="cls-3"/>
   <path id="svg_31" fill="#e9851a" d="m124.02,376.11c0,-1.17 -0.01,-1.67 -0.01,-1.91l0.71,0c0.01,0.22 0.03,0.68 0.03,1.56c0.4,-1.05 1.3,-1.68 2.44,-1.73l0,0.78c-1.46,0.09 -2.44,1.09 -2.44,2.76l0,3.63l-0.73,0l0,-5.1l0,0.01z" class="cls-3"/>
   <path id="svg_32" fill="#e9851a" d="m128.73,377.8c0.01,1.79 0.91,2.9 2.25,2.9s1.75,-0.73 2,-1.31l0.74,0c-0.29,0.92 -1.04,1.98 -2.77,1.98c-2.13,0 -2.97,-1.83 -2.97,-3.62c0,-2.01 1,-3.73 3.05,-3.73c2.16,0 2.85,1.86 2.85,3.19c0,0.2 0,0.39 -0.01,0.58l-5.15,0l0.01,0.01zm4.4,-0.63c-0.01,-1.38 -0.76,-2.46 -2.13,-2.46c-1.43,0 -2.08,1 -2.24,2.46l4.36,0l0.01,0z" class="cls-3"/>
   <path id="svg_33" fill="#e9851a" d="m139.36,381.22l0,-10.32l0.73,0l0,10.32l-0.73,0z" class="cls-3"/>
   <path id="svg_34" fill="#e9851a" d="m147.17,379.87c0,0.62 0.06,1.12 0.1,1.34l-0.7,0c-0.06,-0.17 -0.1,-0.48 -0.13,-1.07c-0.24,0.52 -0.85,1.24 -2.29,1.24c-1.63,0 -2.33,-1.05 -2.33,-2.1c0,-1.54 1.19,-2.25 3.3,-2.25l1.32,0l0,-0.71c0,-0.7 -0.21,-1.62 -1.79,-1.62c-1.4,0 -1.61,0.73 -1.77,1.31l-0.73,0c0.08,-0.78 0.57,-1.97 2.51,-1.97c1.6,0 2.5,0.67 2.5,2.22l0,3.62l0.01,-0.01zm-0.71,-2.22l-1.36,0c-1.55,0 -2.5,0.41 -2.5,1.6c0,0.88 0.62,1.47 1.6,1.47c1.99,0 2.26,-1.32 2.26,-2.82l0,-0.25z" class="cls-3"/>
   <path id="svg_35" fill="#e9851a" d="m158.43,379.15c-0.33,1.23 -1.15,2.23 -2.73,2.23c-1.76,0 -3.01,-1.31 -3.01,-3.64c0,-1.92 1.03,-3.7 3.09,-3.7c1.79,0 2.52,1.27 2.65,2.25l-0.74,0c-0.21,-0.81 -0.74,-1.57 -1.92,-1.57c-1.47,0 -2.31,1.25 -2.31,2.99s0.78,3 2.24,3c1.02,0 1.63,-0.52 1.99,-1.56l0.74,0z" class="cls-3"/>
   <path id="svg_36" fill="#e9851a" d="m160.29,370.9l0.73,0l0,1.37l-0.73,0l0,-1.37zm0,3.31l0.73,0l0,7.01l-0.73,0l0,-7.01z" class="cls-3"/>
   <path id="svg_37" fill="#e9851a" d="m163.56,377.8c0.01,1.79 0.91,2.9 2.25,2.9s1.75,-0.73 2,-1.31l0.74,0c-0.29,0.92 -1.04,1.98 -2.77,1.98c-2.13,0 -2.97,-1.83 -2.97,-3.62c0,-2.01 1,-3.73 3.05,-3.73c2.16,0 2.85,1.86 2.85,3.19c0,0.2 0,0.39 -0.01,0.58l-5.15,0l0.01,0.01zm4.4,-0.63c-0.01,-1.38 -0.76,-2.46 -2.13,-2.46c-1.43,0 -2.08,1 -2.24,2.46l4.36,0l0.01,0z" class="cls-3"/>
   <path id="svg_38" fill="#e9851a" d="m170.48,375.97c0,-0.62 0,-1.21 -0.01,-1.77l0.71,0c0.03,0.22 0.04,1.12 0.03,1.32c0.31,-0.71 0.88,-1.49 2.32,-1.49c1.25,0 2.35,0.71 2.35,2.64l0,4.54l-0.73,0l0,-4.43c0,-1.24 -0.51,-2.04 -1.72,-2.04c-1.65,0 -2.22,1.37 -2.22,2.89l0,3.58l-0.73,0l0,-5.24z" class="cls-3"/>
   <path id="svg_39" fill="#e9851a" d="m183.42,379.15c-0.33,1.23 -1.15,2.23 -2.73,2.23c-1.76,0 -3.01,-1.31 -3.01,-3.64c0,-1.92 1.03,-3.7 3.09,-3.7c1.79,0 2.52,1.27 2.64,2.25l-0.74,0c-0.21,-0.81 -0.74,-1.57 -1.92,-1.57c-1.47,0 -2.31,1.25 -2.31,2.99s0.78,3 2.24,3c1.02,0 1.63,-0.52 1.99,-1.56l0.74,0l0.01,0z" class="cls-3"/>
   <path id="svg_40" fill="#e9851a" d="m185.28,370.9l0.73,0l0,1.37l-0.73,0l0,-1.37zm0,3.31l0.73,0l0,7.01l-0.73,0l0,-7.01z" class="cls-3"/>
   <path id="svg_41" fill="#e9851a" d="m193.09,379.87c0,0.62 0.06,1.12 0.1,1.34l-0.7,0c-0.06,-0.17 -0.1,-0.48 -0.13,-1.07c-0.24,0.52 -0.85,1.24 -2.29,1.24c-1.63,0 -2.33,-1.05 -2.33,-2.1c0,-1.54 1.19,-2.25 3.29,-2.25l1.32,0l0,-0.71c0,-0.7 -0.21,-1.62 -1.79,-1.62c-1.4,0 -1.61,0.73 -1.76,1.31l-0.73,0c0.08,-0.78 0.57,-1.97 2.51,-1.97c1.6,0 2.5,0.67 2.5,2.22l0,3.62l0.01,-0.01zm-0.71,-2.22l-1.36,0c-1.55,0 -2.5,0.41 -2.5,1.6c0,0.88 0.62,1.47 1.6,1.47c1.99,0 2.26,-1.32 2.26,-2.82l0,-0.25z" class="cls-3"/>
   <path id="svg_42" fill="#e9851a" d="m199.17,375.97c0,-0.62 0,-1.21 -0.01,-1.77l0.71,0c0.03,0.22 0.04,1.12 0.03,1.32c0.31,-0.71 0.88,-1.49 2.32,-1.49c1.25,0 2.35,0.71 2.35,2.64l0,4.54l-0.73,0l0,-4.43c0,-1.24 -0.51,-2.04 -1.72,-2.04c-1.65,0 -2.22,1.37 -2.22,2.89l0,3.58l-0.73,0l0,-5.24z" class="cls-3"/>
   <path id="svg_43" fill="#e9851a" d="m211.67,379.87c0,0.62 0.06,1.12 0.1,1.34l-0.7,0c-0.06,-0.17 -0.1,-0.48 -0.13,-1.07c-0.24,0.52 -0.85,1.24 -2.29,1.24c-1.63,0 -2.33,-1.05 -2.33,-2.1c0,-1.54 1.19,-2.25 3.29,-2.25l1.32,0l0,-0.71c0,-0.7 -0.21,-1.62 -1.79,-1.62c-1.4,0 -1.61,0.73 -1.76,1.31l-0.73,0c0.08,-0.78 0.57,-1.97 2.51,-1.97c1.6,0 2.5,0.67 2.5,2.22l0,3.62l0.01,-0.01zm-0.71,-2.22l-1.36,0c-1.55,0 -2.5,0.41 -2.5,1.6c0,0.88 0.62,1.47 1.6,1.47c1.99,0 2.26,-1.32 2.26,-2.82l0,-0.25z" class="cls-3"/>
   <path id="svg_44" fill="#e9851a" d="m213.69,374.21c1.12,3.19 1.91,5.38 2.17,6.27l0.01,0c0.16,-0.53 0.94,-2.62 2.28,-6.27l0.77,0l-2.65,7.01l-0.87,0l-2.49,-7.01l0.77,0l0.01,0z" class="cls-3"/>
   <path id="svg_45" fill="#e9851a" d="m220.54,377.8c0.01,1.79 0.91,2.9 2.25,2.9s1.75,-0.73 2,-1.31l0.74,0c-0.29,0.92 -1.04,1.98 -2.77,1.98c-2.13,0 -2.97,-1.83 -2.97,-3.62c0,-2.01 1,-3.73 3.05,-3.73c2.16,0 2.85,1.86 2.85,3.19c0,0.2 0,0.39 -0.01,0.58l-5.15,0l0.01,0.01zm4.4,-0.63c-0.01,-1.38 -0.76,-2.46 -2.12,-2.46c-1.43,0 -2.08,1 -2.24,2.46l4.36,0z" class="cls-3"/>
   <path id="svg_46" fill="#e9851a" d="m232.99,380.73c0,2.24 -0.99,3.43 -3.04,3.43c-1.84,0 -2.59,-1.03 -2.76,-2.09l0.74,0c0.25,0.96 1.04,1.42 2.04,1.42c1.81,0 2.31,-1.17 2.31,-2.94l0,-0.72c-0.38,0.9 -1.06,1.39 -2.33,1.39c-1.65,0 -2.9,-1.34 -2.9,-3.5c0,-2.35 1.35,-3.67 3,-3.67c1.42,0 2.04,0.67 2.23,1.23c0.01,-0.4 0.03,-0.89 0.04,-1.06l0.69,0c0,0.26 -0.03,1.36 -0.03,2.03l0,4.49l0.01,-0.01zm-5.16,-3.05c0,1.66 0.88,2.85 2.21,2.85c1.74,0 2.27,-1.16 2.27,-2.96s-0.55,-2.85 -2.22,-2.85s-2.25,1.37 -2.25,2.96l-0.01,0z" class="cls-3"/>
   <path id="svg_47" fill="#e9851a" d="m240.05,379.87c0,0.62 0.06,1.12 0.1,1.34l-0.7,0c-0.06,-0.17 -0.1,-0.48 -0.13,-1.07c-0.24,0.52 -0.85,1.24 -2.29,1.24c-1.63,0 -2.33,-1.05 -2.33,-2.1c0,-1.54 1.19,-2.25 3.29,-2.25l1.32,0l0,-0.71c0,-0.7 -0.21,-1.62 -1.79,-1.62c-1.4,0 -1.61,0.73 -1.76,1.31l-0.73,0c0.08,-0.78 0.57,-1.97 2.51,-1.97c1.6,0 2.5,0.67 2.5,2.22l0,3.62l0.01,-0.01zm-0.71,-2.22l-1.36,0c-1.55,0 -2.5,0.41 -2.5,1.6c0,0.88 0.62,1.47 1.6,1.47c1.99,0 2.26,-1.32 2.26,-2.82l0,-0.25z" class="cls-3"/>
   <path id="svg_48" fill="#e9851a" d="m242.41,375.97c0,-0.62 0,-1.21 -0.01,-1.77l0.71,0c0.03,0.22 0.04,1.12 0.03,1.32c0.31,-0.71 0.88,-1.49 2.32,-1.49c1.25,0 2.35,0.71 2.35,2.64l0,4.54l-0.73,0l0,-4.43c0,-1.24 -0.51,-2.04 -1.72,-2.04c-1.65,0 -2.22,1.37 -2.22,2.89l0,3.58l-0.73,0l0,-5.24z" class="cls-3"/>
   <path id="svg_49" fill="#e9851a" d="m255.6,370.9l0,8.3c0,0.67 0,1.32 0.01,2.02l-0.7,0c-0.03,-0.17 -0.04,-0.82 -0.04,-1.17c-0.35,0.85 -1.13,1.34 -2.35,1.34c-1.82,0 -2.92,-1.48 -2.92,-3.59s1.19,-3.76 3.1,-3.76c1.39,0 1.95,0.6 2.16,1.04l0,-4.19l0.73,0l0.01,0.01zm-5.22,6.87c0,1.91 0.98,2.94 2.18,2.94c1.84,0 2.34,-1.27 2.34,-3.16s-0.43,-2.83 -2.21,-2.83c-1.38,0 -2.31,1.1 -2.31,3.05z" class="cls-3"/>
   <path id="svg_50" fill="#e9851a" d="m263.65,377.7c0,1.95 -1.08,3.69 -3.18,3.69c-1.9,0 -3.08,-1.56 -3.08,-3.67s1.11,-3.67 3.15,-3.67c1.87,0 3.11,1.46 3.11,3.66l0,-0.01zm-5.48,0.01c0,1.66 0.89,3 2.36,3s2.35,-1.24 2.35,-2.99c0,-1.65 -0.83,-3 -2.38,-3s-2.34,1.32 -2.34,2.99l0.01,0z" class="cls-3"/>
   <path id="svg_51" fill="#e9851a" d="m274.85,377.7c0,1.95 -1.08,3.69 -3.18,3.69c-1.9,0 -3.08,-1.56 -3.08,-3.67s1.11,-3.67 3.15,-3.67c1.87,0 3.11,1.46 3.11,3.66l0,-0.01zm-5.48,0.01c0,1.66 0.89,3 2.36,3s2.35,-1.24 2.35,-2.99c0,-1.65 -0.83,-3 -2.38,-3s-2.34,1.32 -2.34,2.99l0.01,0z" class="cls-3"/>
   <path id="svg_52" fill="#e9851a" d="m285.53,379.15c-0.33,1.23 -1.15,2.23 -2.73,2.23c-1.76,0 -3.01,-1.31 -3.01,-3.64c0,-1.92 1.03,-3.7 3.09,-3.7c1.79,0 2.52,1.27 2.64,2.25l-0.74,0c-0.21,-0.81 -0.74,-1.57 -1.92,-1.57c-1.47,0 -2.31,1.25 -2.31,2.99s0.78,3 2.24,3c1.02,0 1.63,-0.52 1.99,-1.56l0.74,0l0.01,0z" class="cls-3"/>
   <path id="svg_53" fill="#e9851a" d="m292.98,377.7c0,1.95 -1.08,3.69 -3.18,3.69c-1.9,0 -3.08,-1.56 -3.08,-3.67s1.11,-3.67 3.15,-3.67c1.87,0 3.11,1.46 3.11,3.66l0,-0.01zm-5.48,0.01c0,1.66 0.89,3 2.36,3s2.35,-1.24 2.35,-2.99c0,-1.65 -0.83,-3 -2.38,-3s-2.34,1.32 -2.34,2.99l0.01,0z" class="cls-3"/>
   <path id="svg_54" fill="#e9851a" d="m294.77,381.22l0,-10.32l0.73,0l0,10.32l-0.73,0z" class="cls-3"/>
   <path id="svg_55" fill="#e9851a" d="m302.58,379.87c0,0.62 0.06,1.12 0.1,1.34l-0.7,0c-0.06,-0.17 -0.1,-0.48 -0.13,-1.07c-0.24,0.52 -0.85,1.24 -2.29,1.24c-1.63,0 -2.33,-1.05 -2.33,-2.1c0,-1.54 1.19,-2.25 3.29,-2.25l1.32,0l0,-0.71c0,-0.7 -0.21,-1.62 -1.79,-1.62c-1.4,0 -1.61,0.73 -1.76,1.31l-0.73,0c0.08,-0.78 0.57,-1.97 2.51,-1.97c1.6,0 2.5,0.67 2.5,2.22l0,3.62l0.01,-0.01zm-0.71,-2.22l-1.36,0c-1.55,0 -2.5,0.41 -2.5,1.6c0,0.88 0.62,1.47 1.6,1.47c1.99,0 2.26,-1.32 2.26,-2.82l0,-0.25z" class="cls-3"/>
   <path id="svg_56" fill="#e9851a" d="m304.95,370.9l0.73,0l0,4.48c0.33,-0.7 1.02,-1.33 2.39,-1.33c1.66,0 2.87,1.36 2.87,3.52s-1.09,3.83 -3.06,3.83c-1.17,0 -1.84,-0.47 -2.21,-1.27c0,0.44 -0.01,0.9 -0.03,1.1l-0.71,0c0.01,-0.8 0.01,-1.6 0.01,-2.39l0,-7.93l0.01,-0.01zm5.22,6.68c0,-1.74 -0.86,-2.85 -2.18,-2.85c-1.74,0 -2.35,1.18 -2.35,3.01c0,1.64 0.54,2.98 2.27,2.98c1.41,0 2.27,-1.17 2.27,-3.13l-0.01,-0.01z" class="cls-3"/>
   <path id="svg_57" fill="#e9851a" d="m318.51,377.7c0,1.95 -1.08,3.69 -3.18,3.69c-1.9,0 -3.08,-1.56 -3.08,-3.67s1.11,-3.67 3.15,-3.67c1.87,0 3.11,1.46 3.11,3.66l0,-0.01zm-5.48,0.01c0,1.66 0.89,3 2.36,3s2.35,-1.24 2.35,-2.99c0,-1.65 -0.83,-3 -2.38,-3s-2.34,1.32 -2.34,2.99l0.01,0z" class="cls-3"/>
   <path id="svg_58" fill="#e9851a" d="m320.31,376.11c0,-1.17 -0.01,-1.67 -0.01,-1.91l0.71,0c0.01,0.22 0.03,0.68 0.03,1.56c0.4,-1.05 1.3,-1.68 2.43,-1.73l0,0.78c-1.46,0.09 -2.43,1.09 -2.43,2.76l0,3.63l-0.73,0l0,-5.1l0,0.01z" class="cls-3"/>
   <path id="svg_59" fill="#e9851a" d="m329.53,379.87c0,0.62 0.06,1.12 0.1,1.34l-0.7,0c-0.06,-0.17 -0.1,-0.48 -0.13,-1.07c-0.24,0.52 -0.85,1.24 -2.29,1.24c-1.63,0 -2.33,-1.05 -2.33,-2.1c0,-1.54 1.19,-2.25 3.29,-2.25l1.32,0l0,-0.71c0,-0.7 -0.21,-1.62 -1.79,-1.62c-1.4,0 -1.61,0.73 -1.76,1.31l-0.73,0c0.08,-0.78 0.57,-1.97 2.51,-1.97c1.6,0 2.5,0.67 2.5,2.22l0,3.62l0.01,-0.01zm-0.71,-2.22l-1.36,0c-1.55,0 -2.5,0.41 -2.5,1.6c0,0.88 0.62,1.47 1.6,1.47c1.99,0 2.26,-1.32 2.26,-2.82l0,-0.25z" class="cls-3"/>
   <path id="svg_60" fill="#e9851a" d="m331.9,375.97c0,-0.62 0,-1.21 -0.01,-1.77l0.71,0c0.03,0.22 0.04,1.12 0.03,1.32c0.31,-0.71 0.88,-1.49 2.32,-1.49c1.25,0 2.35,0.71 2.35,2.64l0,4.54l-0.73,0l0,-4.43c0,-1.24 -0.51,-2.04 -1.72,-2.04c-1.65,0 -2.22,1.37 -2.22,2.89l0,3.58l-0.73,0l0,-5.24z" class="cls-3"/>
   <path id="svg_61" fill="#e9851a" d="m345.09,370.9l0,8.3c0,0.67 0,1.32 0.01,2.02l-0.7,0c-0.03,-0.17 -0.04,-0.82 -0.04,-1.17c-0.35,0.85 -1.13,1.34 -2.35,1.34c-1.82,0 -2.92,-1.48 -2.92,-3.59s1.19,-3.76 3.1,-3.76c1.39,0 1.95,0.6 2.16,1.04l0,-4.19l0.73,0l0.01,0.01zm-5.22,6.87c0,1.91 0.98,2.94 2.18,2.94c1.84,0 2.34,-1.27 2.34,-3.16s-0.43,-2.83 -2.21,-2.83c-1.38,0 -2.31,1.1 -2.31,3.05z" class="cls-3"/>
   <path id="svg_62" fill="#e9851a" d="m353.13,377.7c0,1.95 -1.08,3.69 -3.18,3.69c-1.9,0 -3.08,-1.56 -3.08,-3.67s1.11,-3.67 3.15,-3.67c1.87,0 3.11,1.46 3.11,3.66l0,-0.01zm-5.48,0.01c0,1.66 0.89,3 2.36,3s2.35,-1.24 2.35,-2.99c0,-1.65 -0.83,-3 -2.38,-3s-2.34,1.32 -2.34,2.99l0.01,0z" class="cls-3"/>
   <path id="svg_63" fill="#e9851a" d="m354.51,381.22l0,-1.82l0.73,0l0,1.82l-0.73,0z" class="cls-3"/>
  </g>
  <g id="svg_81">
   <polygon stroke="#000000" id="svg_65" fill="#000000" points="371.12 158.79 360.81 123.73 341.07 117.35 341.07 117.35 329.16 113.49 265.19 127.91 216.63 151.49 280.05 127.26 281.13 127.13 321.42 131.95 322.5 132.38 345.13 149.01 346.04 151.2 342.48 174.49 342.11 175.43 313.77 216.93 313.12 217.56 294.95 229.31 294.1 244.58 293.8 245.59 283.03 264.44 280.38 278.2 279.97 279.12 268.08 295.13 267.01 295.93 253.26 300.74 266.44 305.72 291.29 299.2 312.65 262.78 313.07 241.24 314.12 239.36 327.28 230.87 347.95 206.41 350.44 193.54 351.4 192.09 362.9 184.28 371.12 158.79" class="cls-3"/>
   <polygon stroke="#000000" id="svg_66" fill="#000000" points="217.02 106.06 206.2 94.12 195.82 81.2 195.41 80.41 191.21 66.02 187.76 56.95 187.61 56.17 187.24 25.56 175.42 5.14 157.43 0 135.63 0 119.56 10.99 88.89 57.98 79.55 104.4 76.5 151.4 79.37 163.6 80.6 150.02 80.7 149.51 95.74 103.67 96.33 102.73 113.26 86.48 114.23 85.92 133.81 80.52 148.34 71.57 149.13 71.27 165.01 68.37 166.23 68.48 178.66 73.21 179.91 74.36 188.04 91.52 197.27 104.16 208.88 111.24 211.15 109.21 211.91 108.76 215.03 107.65 217.02 106.06" class="cls-3"/>
   <polygon stroke="#000000" id="svg_67" fill="#000000" points="430.08 21.27 422.9 4.98 386.77 9.61 290 59.27 249.85 85.41 227.91 103.48 255.45 93.48 256.21 93.34 279.61 93.34 317.63 81.26 318.93 81.25 338.11 86.87 339.45 87.94 345.75 98.98 346.04 100.47 344.29 114.15 362.34 120.14 370.34 114.91 378.75 92.04 379.3 91.18 420.57 50.15 430.08 21.27" class="cls-3"/>
   <polygon stroke="#000000" id="svg_68" fill="#000000" points="89.45 264.83 94.21 256.6 94.66 248.49 88.38 235.46 84.42 233.76 64.24 237.21 60 247.51 61.43 252.83 79.1 271.24 85.93 271.24 89.49 264.95 89.45 264.83" class="cls-3"/>
   <polygon stroke="#000000" id="svg_69" fill="#000000" points="147.79 266.67 142.82 262.21 142.09 260.15 145.19 240.56 141.12 229.61 130.24 220.39 124.46 218.79 123.57 218.3 115.92 211.6 115.14 209.8 115.33 205.01 91.57 209.48 83.57 214.39 68.87 231.94 84.32 229.3 85.6 229.45 90.97 231.75 92.12 232.86 99.03 247.19 99.25 248.31 98.73 257.55 98.43 258.56 94.85 264.76 126.47 274.02 147.79 266.67" class="cls-3"/>
  </g>
 </g>
</svg>