<svg width="422.08" height="100.02" xmlns="http://www.w3.org/2000/svg" data-name="Capa 2">
 <defs>
  <radialGradient gradientUnits="userSpaceOnUse" r="210.91" fy="46.33" fx="208.63" cy="46.33" cx="208.63" data-name="Degradado sin nombre 82" id="Degradado_sin_nombre_82">
   <stop stop-color="#eb7b26" offset="0"/>
   <stop stop-color="#eb7b26" offset="0.21"/>
   <stop stop-color="#bb611c" offset="0.31"/>
   <stop stop-color="#7f4211" offset="0.45"/>
   <stop stop-color="#5a2e09" offset="0.55"/>
   <stop stop-color="#4c2707" offset="0.61"/>
   <stop stop-color="#1b1209" offset="1"/>
  </radialGradient>
 </defs>
 <g>
  <title>Layer 1</title>
  <g id="svg_1">
   <g id="svg_2">
    <path id="svg_3" fill="none" d="m48.94,10.67l-8.26,6.62c-2.18,-2.27 -4.16,-3.96 -5.94,-5.07c-1.77,-1.11 -4.34,-1.67 -7.69,-1.67c-3.66,0 -6.64,0.83 -8.92,2.48s-3.42,3.79 -3.42,6.4c0,2.26 1,4.26 2.99,5.99c1.99,1.73 5.39,3.63 10.18,5.69c4.8,2.06 8.53,3.98 11.2,5.76c2.67,1.78 4.86,3.74 6.58,5.89c1.72,2.15 2.99,4.41 3.83,6.79c0.84,2.38 1.26,4.9 1.26,7.55c0,6.21 -2.26,11.5 -6.77,15.87c-4.51,4.37 -9.97,6.56 -16.38,6.56s-11.77,-1.71 -16.56,-5.13c-4.79,-3.42 -8.47,-8.55 -11.05,-15.38l10.2,-2.87c3.71,8.4 9.4,12.6 17.05,12.6c3.71,0 6.8,-1.11 9.26,-3.33c2.46,-2.22 3.69,-5.02 3.69,-8.41c0,-2.02 -0.65,-4.06 -1.94,-6.11c-1.29,-2.05 -2.9,-3.73 -4.81,-5.05c-1.92,-1.32 -4.96,-2.85 -9.15,-4.56c-4.18,-1.71 -7.4,-3.28 -9.65,-4.71c-2.25,-1.42 -4.21,-3.12 -5.85,-5.09c-1.65,-1.97 -2.85,-3.93 -3.62,-5.89s-1.15,-4.04 -1.15,-6.27c0,-5.35 2.15,-9.91 6.45,-13.67c4.32,-3.78 9.53,-5.66 15.67,-5.66c4.06,0 8.18,0.88 12.36,2.64c4.18,1.76 7.66,4.43 10.43,8.03l0.01,0z" class="cls-3"/>
    <path id="svg_4" fill="none" d="m98.64,62.24l0,11.66c-5.2,2.97 -10.24,4.45 -15.12,4.45c-6.68,0 -12.53,-2.51 -17.55,-7.53c-5.02,-5.02 -7.53,-10.83 -7.53,-17.44c0,-7.5 2.5,-13.72 7.5,-18.67c5,-4.94 11.27,-7.41 18.81,-7.41c4.49,0 9.12,1.17 13.89,3.52l0,11.37c-5.12,-3.28 -9.96,-4.92 -14.53,-4.92c-4.22,0 -7.91,1.48 -11.08,4.45c-3.16,2.97 -4.75,6.45 -4.75,10.43c0,4.49 1.48,8.27 4.45,11.34c2.97,3.07 6.6,4.6 10.9,4.6s9.38,-1.95 15,-5.86l0.01,0.01z" class="cls-3"/>
    <path id="svg_5" fill="none" d="m106.66,12.78c0,-2.11 0.78,-3.94 2.34,-5.48c1.56,-1.54 3.42,-2.31 5.57,-2.31s3.94,0.77 5.48,2.31c1.54,1.54 2.32,3.37 2.32,5.48s-0.77,3.99 -2.32,5.51c-1.54,1.52 -3.37,2.29 -5.48,2.29s-4.01,-0.76 -5.57,-2.29c-1.56,-1.52 -2.34,-3.36 -2.34,-5.51zm2.87,15.88l10.08,0l0,48.35l-10.08,0l0,-48.35z" class="cls-3"/>
    <path id="svg_6" fill="none" d="m135.03,2.34l41.38,0l0,10.2l-31.3,0l0,18.64l31.3,0l0,10.08l-31.18,0l0,35.75l-10.2,0l0,-74.67z" class="cls-3"/>
    <path id="svg_7" fill="none" d="m188.83,0.94l10.2,0l0,76.07l-10.2,0l0,-76.07z" class="cls-3"/>
    <path id="svg_8" fill="none" d="m211.98,28.66l10.2,0l0,27.25c0,8.4 3.69,12.6 11.08,12.6c3.28,0 5.88,-1.12 7.79,-3.37c1.91,-2.25 2.87,-5.32 2.87,-9.23l0,-27.25l10.08,0l0,28.89c0,6.06 -1.97,11.04 -5.92,14.94c-3.95,3.91 -8.99,5.86 -15.12,5.86s-11.31,-1.95 -15.18,-5.86c-3.87,-3.91 -5.8,-9.01 -5.8,-15.3l0,-28.54l0,0.01z" class="cls-3"/>
    <path id="svg_9" fill="none" d="m269.59,14.59l10.2,0l0,14.07l10.08,0l0,9.32l-10.08,0l0,39.03l-10.2,0l0,-39.03l-8.03,0l0,-9.44l8.03,0l0,-13.95z" class="cls-3"/>
    <path id="svg_10" fill="none" d="m302.12,14.59l10.2,0l0,14.07l10.08,0l0,9.32l-10.08,0l0,39.03l-10.2,0l0,-39.03l-8.03,0l0,-9.44l8.03,0l0,-13.95z" class="cls-3"/>
    <path id="svg_11" fill="none" d="m379.65,54.8l-41.26,0c0.9,4.96 2.94,8.59 6.12,10.87s6.65,3.43 10.4,3.43c5.78,0 10.63,-2.4 14.53,-7.21l7.44,5.63c-5.59,7.23 -13.07,10.84 -22.45,10.84c-7.19,0 -13.21,-2.46 -18.05,-7.38c-4.85,-4.92 -7.27,-11.04 -7.27,-18.34c0,-6.84 2.45,-12.77 7.36,-17.79c4.9,-5.02 10.89,-7.53 17.96,-7.53s12.91,2.55 17.87,7.65c4.96,5.1 7.4,11.71 7.33,19.84l0.02,-0.01zm-40.2,-8.15l29.54,0c-3.28,-6.64 -8.13,-9.96 -14.53,-9.96c-6.99,0 -12,3.32 -15,9.96l-0.01,0z" class="cls-3"/>
    <path id="svg_12" fill="none" d="m402.74,28.66l0,9.96c2.27,-3.98 4.48,-6.87 6.65,-8.64c2.17,-1.78 4.99,-2.67 8.47,-2.67c0.98,0 2.38,0.23 4.22,0.7l-3.11,10.2c-1.95,-0.39 -3.24,-0.59 -3.87,-0.59c-3.44,0 -6.32,1.2 -8.64,3.6c-2.33,2.4 -3.49,5.4 -3.49,9l0,26.78l-10.2,0l0,-48.34l9.96,0l0.01,0z" class="cls-3"/>
   </g>
   <g id="svg_13">
    <path id="svg_14" fill="url(#Degradado_sin_nombre_82)" d="m48.94,10.67l-8.26,6.62c-2.18,-2.27 -4.16,-3.96 -5.94,-5.07c-1.77,-1.11 -4.34,-1.67 -7.69,-1.67c-3.66,0 -6.64,0.83 -8.92,2.48c-2.28,1.66 -3.42,3.79 -3.42,6.4c0,2.26 1,4.26 2.99,5.99c1.99,1.73 5.39,3.63 10.18,5.69c4.8,2.06 8.53,3.98 11.2,5.76c2.67,1.78 4.87,3.74 6.58,5.88c1.72,2.15 2.99,4.41 3.83,6.79c0.84,2.38 1.26,4.9 1.26,7.55c0,6.21 -2.26,11.5 -6.77,15.87c-4.51,4.37 -9.97,6.56 -16.38,6.56s-11.77,-1.71 -16.56,-5.13c-4.78,-3.41 -8.46,-8.54 -11.04,-15.37l10.2,-2.87c3.71,8.4 9.4,12.6 17.05,12.6c3.71,0 6.8,-1.11 9.26,-3.33c2.46,-2.22 3.69,-5.02 3.69,-8.41c0,-2.03 -0.65,-4.06 -1.94,-6.11c-1.29,-2.04 -2.89,-3.73 -4.81,-5.05c-1.92,-1.32 -4.97,-2.84 -9.15,-4.56c-4.18,-1.71 -7.4,-3.28 -9.65,-4.71c-2.25,-1.42 -4.21,-3.12 -5.85,-5.1s-2.85,-3.93 -3.62,-5.88s-1.15,-4.04 -1.15,-6.27c0,-5.35 2.15,-9.91 6.45,-13.67c4.31,-3.78 9.52,-5.66 15.66,-5.66c4.06,0 8.18,0.88 12.37,2.64c4.18,1.76 7.66,4.44 10.43,8.03z" class="cls-2"/>
    <path id="svg_15" fill="url(#Degradado_sin_nombre_82)" d="m98.63,62.24l0,11.66c-5.2,2.97 -10.24,4.45 -15.12,4.45c-6.68,0 -12.53,-2.51 -17.55,-7.53c-5.02,-5.02 -7.53,-10.83 -7.53,-17.44c0,-7.5 2.5,-13.72 7.5,-18.67c5,-4.94 11.27,-7.41 18.81,-7.41c4.49,0 9.12,1.17 13.89,3.52l0,11.37c-5.12,-3.28 -9.96,-4.92 -14.53,-4.92c-4.22,0 -7.91,1.49 -11.08,4.45c-3.17,2.97 -4.75,6.45 -4.75,10.43c0,4.49 1.48,8.27 4.45,11.34c2.97,3.07 6.6,4.6 10.9,4.6s9.38,-1.95 15,-5.86l0.01,0.01z" class="cls-2"/>
    <path id="svg_16" fill="url(#Degradado_sin_nombre_82)" d="m106.66,12.78c0,-2.11 0.78,-3.94 2.34,-5.48c1.56,-1.54 3.42,-2.31 5.57,-2.31s3.94,0.77 5.48,2.31c1.54,1.54 2.31,3.37 2.31,5.48s-0.77,3.98 -2.31,5.51c-1.54,1.52 -3.37,2.29 -5.48,2.29s-4.01,-0.76 -5.57,-2.29c-1.56,-1.52 -2.34,-3.36 -2.34,-5.51zm2.87,15.88l10.08,0l0,48.35l-10.08,0l0,-48.35z" class="cls-2"/>
    <path id="svg_17" fill="url(#Degradado_sin_nombre_82)" d="m135.03,2.34l41.38,0l0,10.2l-31.3,0l0,18.64l31.3,0l0,10.08l-31.18,0l0,35.75l-10.2,0l0,-74.67z" class="cls-2"/>
    <path id="svg_18" fill="url(#Degradado_sin_nombre_82)" d="m188.83,0.94l10.2,0l0,76.07l-10.2,0l0,-76.07z" class="cls-2"/>
    <path id="svg_19" fill="url(#Degradado_sin_nombre_82)" d="m211.98,28.66l10.2,0l0,27.25c0,8.4 3.69,12.6 11.08,12.6c3.28,0 5.88,-1.12 7.79,-3.37c1.91,-2.25 2.87,-5.32 2.87,-9.23l0,-27.25l10.08,0l0,28.89c0,6.06 -1.97,11.04 -5.92,14.94c-3.95,3.91 -8.99,5.86 -15.12,5.86s-11.31,-1.95 -15.18,-5.86c-3.87,-3.91 -5.8,-9 -5.8,-15.3l0,-28.54l0,0.01z" class="cls-2"/>
    <path id="svg_20" fill="url(#Degradado_sin_nombre_82)" d="m269.59,14.59l10.2,0l0,14.07l10.08,0l0,9.32l-10.08,0l0,39.03l-10.2,0l0,-39.03l-8.03,0l0,-9.44l8.03,0l0,-13.95z" class="cls-2"/>
    <path id="svg_21" fill="url(#Degradado_sin_nombre_82)" d="m302.12,14.59l10.2,0l0,14.07l10.08,0l0,9.32l-10.08,0l0,39.03l-10.2,0l0,-39.03l-8.03,0l0,-9.44l8.03,0l0,-13.95z" class="cls-2"/>
    <path id="svg_22" fill="url(#Degradado_sin_nombre_82)" d="m379.65,54.8l-41.26,0c0.9,4.96 2.94,8.59 6.12,10.87c3.18,2.29 6.65,3.43 10.4,3.43c5.78,0 10.63,-2.4 14.53,-7.21l7.44,5.63c-5.59,7.23 -13.07,10.84 -22.45,10.84c-7.19,0 -13.21,-2.46 -18.05,-7.38c-4.85,-4.92 -7.27,-11.04 -7.27,-18.34c0,-6.84 2.45,-12.77 7.36,-17.79c4.9,-5.02 10.89,-7.53 17.96,-7.53s12.91,2.55 17.88,7.65c4.96,5.1 7.4,11.71 7.33,19.84l0.01,-0.01zm-40.2,-8.15l29.54,0c-3.28,-6.64 -8.13,-9.96 -14.53,-9.96c-6.99,0 -12,3.32 -15,9.96l-0.01,0z" class="cls-2"/>
    <path id="svg_23" fill="url(#Degradado_sin_nombre_82)" d="m402.74,28.66l0,9.96c2.27,-3.99 4.48,-6.87 6.65,-8.64c2.17,-1.78 4.99,-2.67 8.47,-2.67c0.98,0 2.38,0.23 4.22,0.7l-3.11,10.2c-1.95,-0.39 -3.24,-0.59 -3.87,-0.59c-3.44,0 -6.32,1.2 -8.64,3.6c-2.33,2.4 -3.49,5.4 -3.49,9l0,26.78l-10.2,0l0,-48.34l9.96,0l0.01,0z" class="cls-2"/>
   </g>
  </g>
  <g id="svg_24">
   <path id="svg_25" fill="#e9851a" d="m73.59,87.28l3.26,0c2.69,0 4.55,1.88 4.55,4.82s-1.82,4.99 -4.57,4.99l-3.25,0l0,-9.8l0.01,-0.01zm0.79,9.08l2.35,0c2.58,0 3.84,-1.81 3.84,-4.22c0,-2.14 -1.14,-4.14 -3.84,-4.14l-2.35,0l0,8.36z" class="cls-1"/>
   <path id="svg_26" fill="#e9851a" d="m83.59,93.67c0.01,1.79 0.91,2.9 2.25,2.9s1.75,-0.73 2,-1.31l0.74,0c-0.29,0.92 -1.04,1.98 -2.77,1.98c-2.13,0 -2.97,-1.83 -2.97,-3.62c0,-2.01 1,-3.73 3.05,-3.73c2.16,0 2.85,1.86 2.85,3.19c0,0.2 0,0.39 -0.01,0.58l-5.15,0l0.01,0.01zm4.4,-0.63c-0.01,-1.38 -0.76,-2.46 -2.13,-2.46c-1.43,0 -2.08,1 -2.24,2.46l4.36,0l0.01,0z" class="cls-1"/>
   <path id="svg_27" fill="#e9851a" d="m90.72,95.14c0.24,0.9 0.88,1.44 1.98,1.44c1.24,0 1.73,-0.57 1.73,-1.34s-0.34,-1.18 -1.89,-1.55c-1.82,-0.44 -2.27,-0.99 -2.27,-1.91s0.73,-1.87 2.32,-1.87s2.35,0.97 2.46,1.97l-0.73,0c-0.12,-0.58 -0.58,-1.31 -1.77,-1.31s-1.55,0.6 -1.55,1.15c0,0.64 0.33,0.96 1.72,1.29c1.98,0.48 2.47,1.13 2.47,2.18c0,1.27 -1.03,2.06 -2.52,2.06c-1.61,0 -2.51,-0.84 -2.7,-2.11l0.74,0l0.01,0z" class="cls-1"/>
   <path id="svg_28" fill="#e9851a" d="m102.18,95.02c-0.33,1.23 -1.15,2.23 -2.73,2.23c-1.76,0 -3.01,-1.31 -3.01,-3.64c0,-1.92 1.03,-3.7 3.09,-3.7c1.79,0 2.52,1.27 2.65,2.25l-0.74,0c-0.21,-0.81 -0.74,-1.57 -1.92,-1.57c-1.47,0 -2.31,1.25 -2.31,2.99s0.78,3 2.24,3c1.02,0 1.63,-0.52 1.99,-1.56l0.74,0z" class="cls-1"/>
   <path id="svg_29" fill="#e9851a" d="m109.05,95.03c0,0.69 0.01,1.77 0.01,2.05l-0.7,0c-0.03,-0.18 -0.04,-0.64 -0.04,-1.21c-0.3,0.82 -1.01,1.38 -2.25,1.38c-1.02,0 -2.3,-0.4 -2.3,-2.54l0,-4.64l0.71,0l0,4.46c0,1.02 0.32,2 1.7,2c1.55,0 2.14,-0.87 2.14,-2.86l0,-3.61l0.73,0l0,4.96l0,0.01z" class="cls-1"/>
   <path id="svg_30" fill="#e9851a" d="m111.4,86.76l0.73,0l0,4.48c0.34,-0.7 1.02,-1.33 2.39,-1.33c1.66,0 2.87,1.36 2.87,3.52s-1.09,3.83 -3.06,3.83c-1.17,0 -1.84,-0.47 -2.21,-1.27c0,0.44 -0.01,0.9 -0.03,1.1l-0.71,0c0.01,-0.8 0.01,-1.6 0.01,-2.39l0,-7.93l0.01,-0.01zm5.22,6.68c0,-1.74 -0.86,-2.85 -2.18,-2.85c-1.74,0 -2.35,1.18 -2.35,3.01c0,1.64 0.54,2.98 2.27,2.98c1.41,0 2.27,-1.17 2.27,-3.13l-0.01,-0.01z" class="cls-1"/>
   <path id="svg_31" fill="#e9851a" d="m119.19,91.98c0,-1.17 -0.01,-1.67 -0.01,-1.91l0.71,0c0.01,0.22 0.03,0.68 0.03,1.56c0.4,-1.05 1.3,-1.68 2.44,-1.73l0,0.78c-1.46,0.09 -2.44,1.09 -2.44,2.76l0,3.63l-0.73,0l0,-5.1l0,0.01z" class="cls-1"/>
   <path id="svg_32" fill="#e9851a" d="m123.9,93.67c0.01,1.79 0.91,2.9 2.25,2.9s1.75,-0.73 2,-1.31l0.74,0c-0.29,0.92 -1.04,1.98 -2.77,1.98c-2.13,0 -2.97,-1.83 -2.97,-3.62c0,-2.01 1,-3.73 3.05,-3.73c2.16,0 2.85,1.86 2.85,3.19c0,0.2 0,0.39 -0.01,0.58l-5.15,0l0.01,0.01zm4.4,-0.63c-0.01,-1.38 -0.76,-2.46 -2.13,-2.46c-1.43,0 -2.08,1 -2.24,2.46l4.36,0l0.01,0z" class="cls-1"/>
   <path id="svg_33" fill="#e9851a" d="m134.53,97.08l0,-10.32l0.73,0l0,10.32l-0.73,0z" class="cls-1"/>
   <path id="svg_34" fill="#e9851a" d="m142.35,95.74c0,0.62 0.06,1.12 0.1,1.34l-0.7,0c-0.06,-0.17 -0.1,-0.48 -0.13,-1.07c-0.24,0.52 -0.85,1.24 -2.29,1.24c-1.63,0 -2.33,-1.05 -2.33,-2.1c0,-1.54 1.19,-2.25 3.3,-2.25l1.32,0l0,-0.71c0,-0.7 -0.21,-1.62 -1.79,-1.62c-1.4,0 -1.61,0.73 -1.77,1.31l-0.73,0c0.08,-0.78 0.57,-1.97 2.51,-1.97c1.6,0 2.5,0.67 2.5,2.22l0,3.62l0.01,-0.01zm-0.71,-2.22l-1.36,0c-1.55,0 -2.5,0.41 -2.5,1.6c0,0.88 0.62,1.47 1.6,1.47c1.99,0 2.26,-1.32 2.26,-2.82l0,-0.25z" class="cls-1"/>
   <path id="svg_35" fill="#e9851a" d="m153.6,95.02c-0.33,1.23 -1.15,2.23 -2.73,2.23c-1.76,0 -3.01,-1.31 -3.01,-3.64c0,-1.92 1.03,-3.7 3.09,-3.7c1.79,0 2.52,1.27 2.65,2.25l-0.74,0c-0.21,-0.81 -0.74,-1.57 -1.92,-1.57c-1.47,0 -2.31,1.25 -2.31,2.99s0.78,3 2.24,3c1.02,0 1.63,-0.52 1.99,-1.56l0.74,0z" class="cls-1"/>
   <path id="svg_36" fill="#e9851a" d="m155.46,86.76l0.73,0l0,1.37l-0.73,0l0,-1.37zm0,3.31l0.73,0l0,7.01l-0.73,0l0,-7.01z" class="cls-1"/>
   <path id="svg_37" fill="#e9851a" d="m158.73,93.67c0.01,1.79 0.91,2.9 2.25,2.9s1.75,-0.73 2,-1.31l0.74,0c-0.29,0.92 -1.04,1.98 -2.77,1.98c-2.13,0 -2.97,-1.83 -2.97,-3.62c0,-2.01 1,-3.73 3.05,-3.73c2.16,0 2.85,1.86 2.85,3.19c0,0.2 0,0.39 -0.01,0.58l-5.15,0l0.01,0.01zm4.4,-0.63c-0.01,-1.38 -0.76,-2.46 -2.13,-2.46c-1.43,0 -2.08,1 -2.24,2.46l4.36,0l0.01,0z" class="cls-1"/>
   <path id="svg_38" fill="#e9851a" d="m165.65,91.84c0,-0.62 0,-1.21 -0.01,-1.77l0.71,0c0.03,0.22 0.04,1.12 0.03,1.32c0.31,-0.71 0.88,-1.49 2.32,-1.49c1.25,0 2.35,0.71 2.35,2.64l0,4.54l-0.73,0l0,-4.43c0,-1.24 -0.51,-2.04 -1.72,-2.04c-1.65,0 -2.22,1.37 -2.22,2.89l0,3.58l-0.73,0l0,-5.24z" class="cls-1"/>
   <path id="svg_39" fill="#e9851a" d="m178.59,95.02c-0.33,1.23 -1.15,2.23 -2.73,2.23c-1.76,0 -3.01,-1.31 -3.01,-3.64c0,-1.92 1.03,-3.7 3.09,-3.7c1.79,0 2.52,1.27 2.64,2.25l-0.74,0c-0.21,-0.81 -0.74,-1.57 -1.92,-1.57c-1.47,0 -2.31,1.25 -2.31,2.99s0.78,3 2.24,3c1.02,0 1.63,-0.52 1.99,-1.56l0.74,0l0.01,0z" class="cls-1"/>
   <path id="svg_40" fill="#e9851a" d="m180.45,86.76l0.73,0l0,1.37l-0.73,0l0,-1.37zm0,3.31l0.73,0l0,7.01l-0.73,0l0,-7.01z" class="cls-1"/>
   <path id="svg_41" fill="#e9851a" d="m188.26,95.74c0,0.62 0.06,1.12 0.1,1.34l-0.7,0c-0.06,-0.17 -0.1,-0.48 -0.13,-1.07c-0.24,0.52 -0.85,1.24 -2.29,1.24c-1.63,0 -2.33,-1.05 -2.33,-2.1c0,-1.54 1.19,-2.25 3.29,-2.25l1.32,0l0,-0.71c0,-0.7 -0.21,-1.62 -1.79,-1.62c-1.4,0 -1.61,0.73 -1.76,1.31l-0.73,0c0.08,-0.78 0.57,-1.97 2.51,-1.97c1.6,0 2.5,0.67 2.5,2.22l0,3.62l0.01,-0.01zm-0.71,-2.22l-1.36,0c-1.55,0 -2.5,0.41 -2.5,1.6c0,0.88 0.62,1.47 1.6,1.47c1.99,0 2.26,-1.32 2.26,-2.82l0,-0.25z" class="cls-1"/>
   <path id="svg_42" fill="#e9851a" d="m194.34,91.84c0,-0.62 0,-1.21 -0.01,-1.77l0.71,0c0.03,0.22 0.04,1.12 0.03,1.32c0.31,-0.71 0.88,-1.49 2.32,-1.49c1.25,0 2.35,0.71 2.35,2.64l0,4.54l-0.73,0l0,-4.43c0,-1.24 -0.51,-2.04 -1.72,-2.04c-1.65,0 -2.22,1.37 -2.22,2.89l0,3.58l-0.73,0l0,-5.24z" class="cls-1"/>
   <path id="svg_43" fill="#e9851a" d="m206.84,95.74c0,0.62 0.06,1.12 0.1,1.34l-0.7,0c-0.06,-0.17 -0.1,-0.48 -0.13,-1.07c-0.24,0.52 -0.85,1.24 -2.29,1.24c-1.63,0 -2.33,-1.05 -2.33,-2.1c0,-1.54 1.19,-2.25 3.29,-2.25l1.32,0l0,-0.71c0,-0.7 -0.21,-1.62 -1.79,-1.62c-1.4,0 -1.61,0.73 -1.76,1.31l-0.73,0c0.08,-0.78 0.57,-1.97 2.51,-1.97c1.6,0 2.5,0.67 2.5,2.22l0,3.62l0.01,-0.01zm-0.71,-2.22l-1.36,0c-1.55,0 -2.5,0.41 -2.5,1.6c0,0.88 0.62,1.47 1.6,1.47c1.99,0 2.26,-1.32 2.26,-2.82l0,-0.25z" class="cls-1"/>
   <path id="svg_44" fill="#e9851a" d="m208.86,90.07c1.12,3.19 1.91,5.38 2.17,6.27l0.01,0c0.16,-0.53 0.94,-2.62 2.28,-6.27l0.77,0l-2.65,7.01l-0.87,0l-2.49,-7.01l0.77,0l0.01,0z" class="cls-1"/>
   <path id="svg_45" fill="#e9851a" d="m215.71,93.67c0.01,1.79 0.91,2.9 2.25,2.9s1.75,-0.73 2,-1.31l0.74,0c-0.29,0.92 -1.04,1.98 -2.77,1.98c-2.13,0 -2.97,-1.83 -2.97,-3.62c0,-2.01 1,-3.73 3.05,-3.73c2.16,0 2.85,1.86 2.85,3.19c0,0.2 0,0.39 -0.01,0.58l-5.15,0l0.01,0.01zm4.4,-0.63c-0.01,-1.38 -0.76,-2.46 -2.12,-2.46c-1.43,0 -2.08,1 -2.24,2.46l4.36,0z" class="cls-1"/>
   <path id="svg_46" fill="#e9851a" d="m228.16,96.6c0,2.24 -0.99,3.43 -3.04,3.43c-1.84,0 -2.59,-1.03 -2.76,-2.09l0.74,0c0.25,0.96 1.04,1.42 2.04,1.42c1.81,0 2.31,-1.17 2.31,-2.94l0,-0.72c-0.38,0.9 -1.06,1.39 -2.33,1.39c-1.65,0 -2.9,-1.34 -2.9,-3.5c0,-2.35 1.35,-3.67 3,-3.67c1.42,0 2.04,0.67 2.23,1.23c0.01,-0.4 0.03,-0.89 0.04,-1.06l0.69,0c0,0.26 -0.03,1.36 -0.03,2.03l0,4.49l0.01,-0.01zm-5.16,-3.05c0,1.66 0.88,2.85 2.21,2.85c1.74,0 2.27,-1.16 2.27,-2.96s-0.55,-2.85 -2.22,-2.85s-2.25,1.37 -2.25,2.96l-0.01,0z" class="cls-1"/>
   <path id="svg_47" fill="#e9851a" d="m235.22,95.74c0,0.62 0.06,1.12 0.1,1.34l-0.7,0c-0.06,-0.17 -0.1,-0.48 -0.13,-1.07c-0.24,0.52 -0.85,1.24 -2.29,1.24c-1.63,0 -2.33,-1.05 -2.33,-2.1c0,-1.54 1.19,-2.25 3.29,-2.25l1.32,0l0,-0.71c0,-0.7 -0.21,-1.62 -1.79,-1.62c-1.4,0 -1.61,0.73 -1.76,1.31l-0.73,0c0.08,-0.78 0.57,-1.97 2.51,-1.97c1.6,0 2.5,0.67 2.5,2.22l0,3.62l0.01,-0.01zm-0.71,-2.22l-1.36,0c-1.55,0 -2.5,0.41 -2.5,1.6c0,0.88 0.62,1.47 1.6,1.47c1.99,0 2.26,-1.32 2.26,-2.82l0,-0.25z" class="cls-1"/>
   <path id="svg_48" fill="#e9851a" d="m237.58,91.84c0,-0.62 0,-1.21 -0.01,-1.77l0.71,0c0.03,0.22 0.04,1.12 0.03,1.32c0.31,-0.71 0.88,-1.49 2.32,-1.49c1.25,0 2.35,0.71 2.35,2.64l0,4.54l-0.73,0l0,-4.43c0,-1.24 -0.51,-2.04 -1.72,-2.04c-1.65,0 -2.22,1.37 -2.22,2.89l0,3.58l-0.73,0l0,-5.24z" class="cls-1"/>
   <path id="svg_49" fill="#e9851a" d="m250.77,86.76l0,8.3c0,0.67 0,1.32 0.01,2.02l-0.7,0c-0.03,-0.17 -0.04,-0.82 -0.04,-1.17c-0.35,0.85 -1.13,1.34 -2.35,1.34c-1.82,0 -2.92,-1.48 -2.92,-3.59s1.19,-3.76 3.1,-3.76c1.39,0 1.95,0.6 2.16,1.04l0,-4.19l0.73,0l0.01,0.01zm-5.22,6.87c0,1.91 0.98,2.94 2.18,2.94c1.84,0 2.34,-1.27 2.34,-3.16s-0.43,-2.83 -2.21,-2.83c-1.38,0 -2.31,1.1 -2.31,3.05z" class="cls-1"/>
   <path id="svg_50" fill="#e9851a" d="m258.82,93.56c0,1.95 -1.08,3.69 -3.18,3.69c-1.9,0 -3.08,-1.56 -3.08,-3.67s1.11,-3.67 3.15,-3.67c1.87,0 3.11,1.46 3.11,3.66l0,-0.01zm-5.48,0.01c0,1.66 0.89,3 2.36,3s2.35,-1.24 2.35,-2.99c0,-1.65 -0.83,-3 -2.38,-3s-2.34,1.32 -2.34,2.99l0.01,0z" class="cls-1"/>
   <path id="svg_51" fill="#e9851a" d="m270.02,93.56c0,1.95 -1.08,3.69 -3.18,3.69c-1.9,0 -3.08,-1.56 -3.08,-3.67s1.11,-3.67 3.15,-3.67c1.87,0 3.11,1.46 3.11,3.66l0,-0.01zm-5.48,0.01c0,1.66 0.89,3 2.36,3s2.35,-1.24 2.35,-2.99c0,-1.65 -0.83,-3 -2.38,-3s-2.34,1.32 -2.34,2.99l0.01,0z" class="cls-1"/>
   <path id="svg_52" fill="#e9851a" d="m280.7,95.02c-0.33,1.23 -1.15,2.23 -2.73,2.23c-1.76,0 -3.01,-1.31 -3.01,-3.64c0,-1.92 1.03,-3.7 3.09,-3.7c1.79,0 2.52,1.27 2.64,2.25l-0.74,0c-0.21,-0.81 -0.74,-1.57 -1.92,-1.57c-1.47,0 -2.31,1.25 -2.31,2.99s0.78,3 2.24,3c1.02,0 1.63,-0.52 1.99,-1.56l0.74,0l0.01,0z" class="cls-1"/>
   <path id="svg_53" fill="#e9851a" d="m288.15,93.56c0,1.95 -1.08,3.69 -3.18,3.69c-1.9,0 -3.08,-1.56 -3.08,-3.67s1.11,-3.67 3.15,-3.67c1.87,0 3.11,1.46 3.11,3.66l0,-0.01zm-5.48,0.01c0,1.66 0.89,3 2.36,3s2.35,-1.24 2.35,-2.99c0,-1.65 -0.83,-3 -2.38,-3s-2.34,1.32 -2.34,2.99l0.01,0z" class="cls-1"/>
   <path id="svg_54" fill="#e9851a" d="m289.94,97.08l0,-10.32l0.73,0l0,10.32l-0.73,0z" class="cls-1"/>
   <path id="svg_55" fill="#e9851a" d="m297.75,95.74c0,0.62 0.06,1.12 0.1,1.34l-0.7,0c-0.06,-0.17 -0.1,-0.48 -0.13,-1.07c-0.24,0.52 -0.85,1.24 -2.29,1.24c-1.63,0 -2.33,-1.05 -2.33,-2.1c0,-1.54 1.19,-2.25 3.29,-2.25l1.32,0l0,-0.71c0,-0.7 -0.21,-1.62 -1.79,-1.62c-1.4,0 -1.61,0.73 -1.76,1.31l-0.73,0c0.08,-0.78 0.57,-1.97 2.51,-1.97c1.6,0 2.5,0.67 2.5,2.22l0,3.62l0.01,-0.01zm-0.71,-2.22l-1.36,0c-1.55,0 -2.5,0.41 -2.5,1.6c0,0.88 0.62,1.47 1.6,1.47c1.99,0 2.26,-1.32 2.26,-2.82l0,-0.25z" class="cls-1"/>
   <path id="svg_56" fill="#e9851a" d="m300.12,86.76l0.73,0l0,4.48c0.33,-0.7 1.02,-1.33 2.39,-1.33c1.66,0 2.87,1.36 2.87,3.52s-1.09,3.83 -3.06,3.83c-1.17,0 -1.84,-0.47 -2.21,-1.27c0,0.44 -0.01,0.9 -0.03,1.1l-0.71,0c0.01,-0.8 0.01,-1.6 0.01,-2.39l0,-7.93l0.01,-0.01zm5.22,6.68c0,-1.74 -0.86,-2.85 -2.18,-2.85c-1.74,0 -2.35,1.18 -2.35,3.01c0,1.64 0.54,2.98 2.27,2.98c1.41,0 2.27,-1.17 2.27,-3.13l-0.01,-0.01z" class="cls-1"/>
   <path id="svg_57" fill="#e9851a" d="m313.68,93.56c0,1.95 -1.08,3.69 -3.18,3.69c-1.9,0 -3.08,-1.56 -3.08,-3.67s1.11,-3.67 3.15,-3.67c1.87,0 3.11,1.46 3.11,3.66l0,-0.01zm-5.48,0.01c0,1.66 0.89,3 2.36,3s2.35,-1.24 2.35,-2.99c0,-1.65 -0.83,-3 -2.38,-3s-2.34,1.32 -2.34,2.99l0.01,0z" class="cls-1"/>
   <path id="svg_58" fill="#e9851a" d="m315.48,91.98c0,-1.17 -0.01,-1.67 -0.01,-1.91l0.71,0c0.01,0.22 0.03,0.68 0.03,1.56c0.4,-1.05 1.3,-1.68 2.43,-1.73l0,0.78c-1.46,0.09 -2.43,1.09 -2.43,2.76l0,3.63l-0.73,0l0,-5.1l0,0.01z" class="cls-1"/>
   <path id="svg_59" fill="#e9851a" d="m324.7,95.74c0,0.62 0.06,1.12 0.1,1.34l-0.7,0c-0.06,-0.17 -0.1,-0.48 -0.13,-1.07c-0.24,0.52 -0.85,1.24 -2.29,1.24c-1.63,0 -2.33,-1.05 -2.33,-2.1c0,-1.54 1.19,-2.25 3.29,-2.25l1.32,0l0,-0.71c0,-0.7 -0.21,-1.62 -1.79,-1.62c-1.4,0 -1.61,0.73 -1.76,1.31l-0.73,0c0.08,-0.78 0.57,-1.97 2.51,-1.97c1.6,0 2.5,0.67 2.5,2.22l0,3.62l0.01,-0.01zm-0.71,-2.22l-1.36,0c-1.55,0 -2.5,0.41 -2.5,1.6c0,0.88 0.62,1.47 1.6,1.47c1.99,0 2.26,-1.32 2.26,-2.82l0,-0.25z" class="cls-1"/>
   <path id="svg_60" fill="#e9851a" d="m327.07,91.84c0,-0.62 0,-1.21 -0.01,-1.77l0.71,0c0.03,0.22 0.04,1.12 0.03,1.32c0.31,-0.71 0.88,-1.49 2.32,-1.49c1.25,0 2.35,0.71 2.35,2.64l0,4.54l-0.73,0l0,-4.43c0,-1.24 -0.51,-2.04 -1.72,-2.04c-1.65,0 -2.22,1.37 -2.22,2.89l0,3.58l-0.73,0l0,-5.24z" class="cls-1"/>
   <path id="svg_61" fill="#e9851a" d="m340.26,86.76l0,8.3c0,0.67 0,1.32 0.01,2.02l-0.7,0c-0.03,-0.17 -0.04,-0.82 -0.04,-1.17c-0.35,0.85 -1.13,1.34 -2.35,1.34c-1.82,0 -2.92,-1.48 -2.92,-3.59s1.19,-3.76 3.1,-3.76c1.39,0 1.95,0.6 2.16,1.04l0,-4.19l0.73,0l0.01,0.01zm-5.22,6.87c0,1.91 0.98,2.94 2.18,2.94c1.84,0 2.34,-1.27 2.34,-3.16s-0.43,-2.83 -2.21,-2.83c-1.38,0 -2.31,1.1 -2.31,3.05z" class="cls-1"/>
   <path id="svg_62" fill="#e9851a" d="m348.31,93.56c0,1.95 -1.08,3.69 -3.18,3.69c-1.9,0 -3.08,-1.56 -3.08,-3.67s1.11,-3.67 3.15,-3.67c1.87,0 3.11,1.46 3.11,3.66l0,-0.01zm-5.48,0.01c0,1.66 0.89,3 2.36,3s2.35,-1.24 2.35,-2.99c0,-1.65 -0.83,-3 -2.38,-3s-2.34,1.32 -2.34,2.99l0.01,0z" class="cls-1"/>
   <path id="svg_63" fill="#e9851a" d="m349.68,97.08l0,-1.82l0.73,0l0,1.82l-0.73,0z" class="cls-1"/>
  </g>
 </g>
</svg>